<svg width="456" height="305" viewBox="0 0 456 305" fill="none" xmlns="http://www.w3.org/2000/svg">
<g opacity="0.2">
<path opacity="0.6" d="M2.50699 170.032L142.34 89.299L372.657 222.422C374.655 223.576 374.655 226.46 372.657 227.613L242.871 302.545C239.436 304.528 235.204 304.528 231.769 302.545L2.50699 170.032Z" fill="url(#paint0_linear_72_1440)"/>
</g>
<g opacity="0.5">
<path opacity="0.6" d="M2.50699 155.758L142.34 75.025L372.657 208.149C374.655 209.303 374.655 212.187 372.657 213.34L242.871 288.272C239.436 290.255 235.204 290.255 231.769 288.272L2.50699 155.758Z" fill="url(#paint1_linear_72_1440)"/>
</g>
<path opacity="0.6" d="M2.50699 141.484L142.34 60.751L372.657 193.875C374.655 195.029 374.655 197.913 372.657 199.066L242.871 273.998C239.436 275.981 235.204 275.981 231.769 273.998L2.50699 141.484Z" fill="url(#paint2_linear_72_1440)"/>
<path opacity="0.3" d="M114.241 114.32L88.256 99.317L114.24 84.315L140.225 99.318L114.241 114.32Z" fill="#42E8E0"/>
<path opacity="0.5" d="M114.241 97.038L88.256 82.036L114.24 67.034L140.225 82.036L114.241 97.038Z" fill="#42E8E0"/>
<path opacity="0.7" d="M114.241 83.185L88.256 68.183L114.24 53.181L140.225 68.184L114.241 83.185Z" fill="#42E8E0"/>
<path d="M114.241 83.923C114.113 83.923 113.987 83.89 113.872 83.824L87.887 68.822C87.659 68.69 87.518 68.447 87.518 68.183C87.518 67.919 87.659 67.676 87.887 67.544L113.871 52.542C114.1 52.41 114.38 52.41 114.608 52.542L140.593 67.544C140.821 67.676 140.962 67.919 140.962 68.183C140.962 68.447 140.821 68.69 140.593 68.822L114.609 83.824C114.495 83.89 114.368 83.923 114.241 83.923ZM89.731 68.183L114.241 82.334L138.75 68.184L114.24 54.033L89.731 68.183Z" fill="#42E8E0"/>
<path opacity="0.3" d="M114.468 132.176C177.687 132.176 228.936 102.587 228.936 66.088C228.936 29.5886 177.687 0 114.468 0C51.2491 0 0 29.5886 0 66.088C0 102.587 51.2491 132.176 114.468 132.176Z" fill="url(#paint3_radial_72_1440)"/>
<path opacity="0.3" d="M378.389 304.963C421.093 304.963 455.712 284.976 455.712 260.32C455.712 235.664 421.093 215.677 378.389 215.677C335.685 215.677 301.066 235.664 301.066 260.32C301.066 284.976 335.685 304.963 378.389 304.963Z" fill="url(#paint4_radial_72_1440)"/>
<path d="M237.447 276.059C235.169 276.059 232.927 275.46 230.965 274.329L156.24 231.186C155.069 230.508 154.369 229.296 154.369 227.944C154.369 226.592 155.068 225.381 156.239 224.704L291.444 146.643C291.672 146.512 291.955 146.512 292.181 146.643L373.023 193.316C374.194 193.994 374.892 195.205 374.892 196.557C374.892 197.91 374.193 199.121 373.023 199.797L243.931 274.329C241.968 275.461 239.726 276.059 237.447 276.059ZM291.814 148.133L156.977 225.98C156.267 226.39 155.844 227.124 155.844 227.943C155.844 228.763 156.268 229.498 156.978 229.908L231.703 273.052C235.18 275.058 239.716 275.058 243.195 273.052L372.286 198.52C372.995 198.111 373.419 197.376 373.419 196.557C373.419 195.738 372.995 195.003 372.286 194.593L291.814 148.133Z" fill="#42E8E0"/>
<path d="M291.98 116.484L273.995 9.78397L275.441 9.17496L273.268 7.92896L273.272 7.94196C272.85 7.66096 272.254 7.67797 271.598 8.05797L127.865 91.042C126.685 91.723 125.791 93.471 125.999 94.693L144.127 202.241C144.222 202.801 144.499 203.173 144.884 203.336L144.882 203.337L147.008 204.565L147.373 202.58L147.252 202.617L290.115 120.135C291.294 119.453 292.187 117.705 291.98 116.484Z" fill="url(#paint5_linear_72_1440)"/>
<path d="M128.666 93.96L126.303 92.915C126.038 93.52 125.908 94.157 125.999 94.694L144.127 202.242C144.222 202.802 144.499 203.174 144.884 203.337L144.882 203.338L147.008 204.566L147.373 202.581L147.252 202.618L154.481 198.444L128.666 93.96Z" fill="url(#paint6_linear_72_1440)"/>
<path d="M291.98 116.484L273.995 9.78393L275.095 9.32094C274.72 8.64394 273.936 8.49293 273.041 9.00993L129.308 91.9939C128.128 92.6759 127.234 94.4229 127.442 95.6449L145.57 203.193C145.618 203.473 145.712 203.705 145.84 203.89L146.684 204.378C146.799 204.388 146.919 204.383 147.045 204.363L147.373 202.58L147.252 202.617L290.115 120.135C291.294 119.453 292.188 117.705 291.98 116.484Z" fill="#42E8E0"/>
<path d="M292.369 121.428L148.636 204.412C147.526 205.053 146.576 204.683 146.381 203.534L128.253 95.986C128.046 94.764 128.939 93.016 130.119 92.335L273.852 9.35096C274.962 8.70996 275.912 9.07996 276.107 10.229L294.235 117.777C294.442 118.999 293.549 120.747 292.369 121.428Z" fill="#24126A"/>
<g opacity="0.51">
<path d="M271.974 16.2159L133.427 96.2059L150.608 197.494L289.062 117.557L271.974 16.2159Z" fill="#453C9E"/>
</g>
<path d="M382.719 172.346L374.875 176.442L296.221 131.031C294.905 130.271 292.607 130.367 291.087 131.244L155.431 209.565C154.133 208.839 148.214 205.992 148.214 205.992L151.085 213.473C151.085 213.473 151.095 213.465 151.097 213.464C151.216 213.797 151.471 214.107 151.9 214.355L234.739 262.182C236.055 262.942 238.353 262.847 239.873 261.969L378.692 181.822C379.316 181.462 379.698 181.026 379.857 180.584L379.868 180.591L382.719 172.346Z" fill="url(#paint7_linear_72_1440)"/>
<path d="M381.507 173.635L239.236 255.775C237.679 256.674 235.323 256.772 233.974 255.993L149.075 206.977C147.726 206.198 147.895 204.838 149.453 203.939L291.724 121.799C293.281 120.9 295.637 120.802 296.986 121.581L381.885 170.597C383.233 171.376 383.064 172.736 381.507 173.635Z" fill="url(#paint8_linear_72_1440)"/>
<path d="M381.507 172.815L239.236 254.955C237.679 255.854 235.323 255.952 233.974 255.173L149.075 206.157C148.633 205.902 148.371 205.582 148.25 205.239C148.037 205.878 148.293 206.525 149.075 206.977L233.974 255.993C235.323 256.772 237.678 256.674 239.236 255.775L381.507 173.635C382.555 173.03 382.958 172.22 382.709 171.515C382.554 171.978 382.161 172.437 381.507 172.815Z" fill="white"/>
<path d="M196.323 238.007V236.447C196.323 236.299 196.413 236.231 196.524 236.295L202.027 239.472C202.138 239.536 202.228 239.708 202.228 239.856V241.416C202.228 241.564 202.138 241.632 202.027 241.568L196.524 238.391C196.412 238.327 196.323 238.155 196.323 238.007Z" fill="#2842A2"/>
<path d="M204.552 242.758V241.198C204.552 241.05 204.642 240.982 204.753 241.046L210.256 244.223C210.367 244.287 210.457 244.459 210.457 244.607V246.167C210.457 246.315 210.367 246.383 210.256 246.319L204.753 243.142C204.641 243.078 204.552 242.906 204.552 242.758Z" fill="#2842A2"/>
<path d="M171.209 202.387L289.437 134.128C290.225 133.673 291.196 133.673 291.984 134.129L334.084 158.487C334.688 158.837 334.688 159.71 334.083 160.059L215.911 228.286C215.124 228.74 214.154 228.741 213.366 228.286L171.209 203.959C170.604 203.61 170.604 202.736 171.209 202.387Z" fill="#ADB1F2"/>
<path d="M171.209 203.959L171.632 204.203L289.436 136.189C290.224 135.734 291.195 135.734 291.983 136.19L333.66 160.303L334.083 160.059C334.688 159.71 334.688 158.837 334.084 158.487L291.984 134.129C291.196 133.673 290.225 133.673 289.437 134.128L171.209 202.387C170.604 202.736 170.604 203.61 171.209 203.959Z" fill="#9198DB"/>
<path d="M295.161 140.298L192.464 199.59L187.898 196.954L290.595 137.662L295.161 140.298Z" fill="#24126A"/>
<path d="M306.356 146.761L210.03 202.375L205.463 199.739L301.789 144.125L306.356 146.761Z" fill="#24126A"/>
<path d="M313.647 150.971L200.234 216.45L195.667 213.814L309.081 148.335L313.647 150.971Z" fill="#24126A"/>
<path d="M320.938 155.181L207.525 220.66L202.959 218.024L316.372 152.544L320.938 155.181Z" fill="#24126A"/>
<path d="M328.23 159.39L214.816 224.87L210.25 222.233L323.663 156.754L328.23 159.39Z" fill="#24126A"/>
<path d="M186.258 203.173L181.692 205.809L177.126 203.173L181.692 200.537L186.258 203.173Z" fill="#24126A"/>
<path d="M202.365 206.801L192.887 212.272L188.321 209.636L197.798 204.164L202.365 206.801Z" fill="#24126A"/>
<path d="M293.989 218.905L325.867 200.5C327.113 199.781 327.113 198.614 325.867 197.895L304.068 185.309C302.822 184.59 300.802 184.59 299.556 185.309L267.678 203.714C266.432 204.433 266.432 205.6 267.678 206.319L289.477 218.905C290.723 219.624 292.743 219.624 293.989 218.905Z" fill="url(#paint9_linear_72_1440)"/>
<path d="M267.678 204.78L299.556 186.375C300.802 185.656 302.822 185.656 304.068 186.375L325.867 198.961C326.252 199.183 326.503 199.45 326.65 199.731C326.98 199.102 326.728 198.393 325.867 197.896L304.068 185.31C302.822 184.591 300.802 184.591 299.556 185.31L267.678 203.715C266.817 204.212 266.565 204.921 266.895 205.551C267.042 205.269 267.293 205.002 267.678 204.78Z" fill="#9198DB"/>
<g opacity="0.11">
<mask id="mask0_72_1440" style="mask-type:luminance" maskUnits="userSpaceOnUse" x="133" y="16" width="157" height="182">
<path d="M271.974 16.2159L133.427 96.2059L150.608 197.494L289.062 117.557L271.974 16.2159Z" fill="white"/>
</mask>
<g mask="url(#mask0_72_1440)">
<path d="M291.865 121.63L149.594 203.77C148.037 204.669 145.681 204.767 144.332 203.988L59.433 154.972C58.084 154.193 58.253 152.833 59.811 151.934L202.082 69.7939C203.639 68.8949 205.995 68.7969 207.344 69.5759L292.243 118.592C293.591 119.371 293.422 120.731 291.865 121.63Z" fill="url(#paint10_linear_72_1440)"/>
<path d="M149.17 136.357L181.048 117.952C182.294 117.233 182.294 116.066 181.048 115.347L159.249 102.761C158.003 102.042 155.983 102.042 154.737 102.761L122.859 121.166C121.613 121.885 121.613 123.052 122.859 123.771L144.658 136.357C145.904 137.076 147.924 137.076 149.17 136.357Z" fill="url(#paint11_linear_72_1440)"/>
<path d="M122.858 122.232L154.736 103.827C155.982 103.108 158.002 103.108 159.248 103.827L181.047 116.413C181.432 116.635 181.683 116.902 181.83 117.183C182.16 116.554 181.908 115.845 181.047 115.348L159.248 102.762C158.002 102.043 155.982 102.043 154.736 102.762L122.858 121.167C121.997 121.664 121.745 122.373 122.075 123.003C122.222 122.72 122.474 122.454 122.858 122.232Z" fill="#9198DB"/>
<path d="M108.845 165.12L227.073 96.8609C227.861 96.4059 228.832 96.4059 229.62 96.8619L271.721 121.22C272.325 121.57 272.325 122.443 271.72 122.792L153.547 191.019C152.76 191.473 151.79 191.474 151.002 191.019L108.845 166.692C108.24 166.343 108.239 165.469 108.845 165.12Z" fill="#ADB1F2"/>
<path d="M108.845 166.692L109.268 166.936L227.072 98.9219C227.86 98.4669 228.831 98.4669 229.619 98.9229L271.296 123.036L271.719 122.792C272.324 122.443 272.324 121.57 271.72 121.22L229.619 96.8619C228.831 96.4059 227.86 96.4059 227.072 96.8609L108.844 165.12C108.239 165.469 108.24 166.343 108.845 166.692Z" fill="#9198DB"/>
<path d="M260.702 119.559L157.706 179.024L161.785 181.38L264.782 121.914L260.702 119.559Z" fill="#24126A"/>
<path d="M249.85 113.293L151.953 169.814L156.033 172.169L253.93 115.649L249.85 113.293Z" fill="#24126A"/>
<path d="M144.643 174.034L135.5 179.313L139.58 181.669L148.723 176.39L144.643 174.034Z" fill="#24126A"/>
<path d="M152.719 181.903L146.352 185.579L150.432 187.934L156.799 184.259L152.719 181.903Z" fill="#24126A"/>
<path d="M243.05 109.367L128.7 175.387L132.78 177.743L247.13 111.723L243.05 109.367Z" fill="#24126A"/>
<path d="M236.25 105.441L121.9 171.461L125.98 173.817L240.33 107.797L236.25 105.441Z" fill="#24126A"/>
<path d="M229.45 101.516L115.1 167.535L119.18 169.891L233.53 103.871L229.45 101.516Z" fill="#24126A"/>
</g>
</g>
<path d="M185.596 158.876L196.805 152.398L197.134 154.344L185.925 160.822L185.596 158.876Z" fill="#42E8E0"/>
<path d="M198.608 151.363L204.715 147.833L205.044 149.78L198.936 153.309L198.608 151.363Z" fill="#42E8E0"/>
<path d="M214.218 142.348L218.637 139.794L218.966 141.741L214.547 144.295L214.218 142.348Z" fill="#42E8E0"/>
<path d="M210.996 144.211L212.506 143.338L212.835 145.284L211.324 146.157L210.996 144.211Z" fill="#42E8E0"/>
<path d="M206.541 146.786L209.283 145.201L209.612 147.147L206.869 148.732L206.541 146.786Z" fill="#42E8E0"/>
<path d="M194.465 143.989L198.884 141.435L199.213 143.381L194.794 145.935L194.465 143.989Z" fill="#42E8E0"/>
<path d="M184.094 149.983L192.752 144.979L193.081 146.925L184.423 151.93L184.094 149.983Z" fill="#42E8E0"/>
<path d="M196.508 118.438L205.166 113.434L205.495 115.38L196.836 120.384L196.508 118.438Z" fill="#42E8E0"/>
<path d="M192.053 121.013L194.795 119.428L195.124 121.374L192.381 122.959L192.053 121.013Z" fill="#42E8E0"/>
<path d="M197.952 127.343L206.611 122.338L206.939 124.285L198.281 129.289L197.952 127.343Z" fill="#42E8E0"/>
<path d="M193.498 129.917L196.24 128.332L196.569 130.278L193.826 131.863L193.498 129.917Z" fill="#42E8E0"/>
<path d="M190.116 80.01L173.806 89.437L173.477 87.491L189.788 78.064L190.116 80.01Z" fill="#42E8E0"/>
<path d="M195.865 76.688L191.829 79.0199L191.5 77.0739L195.536 74.7419L195.865 76.688Z" fill="#42E8E0"/>
<path d="M224.527 74.796L208.216 84.223L207.888 82.277L224.198 72.85L224.527 74.796Z" fill="#42E8E0"/>
<path d="M230.275 71.474L226.24 73.8069L225.911 71.86L229.947 69.528L230.275 71.474Z" fill="#42E8E0"/>
<path d="M178.976 91.329L174.556 93.883L174.228 91.937L178.647 89.383L178.976 91.329Z" fill="#42E8E0"/>
<path d="M205.861 85.562L201.442 88.116L201.114 86.17L205.533 83.616L205.861 85.562Z" fill="#42E8E0"/>
<path d="M189.346 85.335L180.688 90.339L180.359 88.393L189.018 83.389L189.346 85.335Z" fill="#42E8E0"/>
<path d="M193.801 82.76L191.059 84.345L190.73 82.399L193.472 80.814L193.801 82.76Z" fill="#42E8E0"/>
<path d="M204.252 76.731L195.593 81.735L195.265 79.789L203.923 74.784L204.252 76.731Z" fill="#42E8E0"/>
<path d="M208.706 74.156L205.964 75.741L205.635 73.795L208.378 72.21L208.706 74.156Z" fill="#42E8E0"/>
<path d="M205.11 81.114L200.691 83.668L200.362 81.722L204.782 79.167L205.11 81.114Z" fill="#42E8E0"/>
<path d="M215.481 75.12L206.823 80.124L206.494 78.178L215.152 73.173L215.481 75.12Z" fill="#42E8E0"/>
<path d="M219.936 72.545L217.193 74.13L216.865 72.184L219.607 70.599L219.936 72.545Z" fill="#42E8E0"/>
<path d="M184.349 93.103L175.307 98.329L174.979 96.383L184.02 91.157L184.349 93.103Z" fill="#42E8E0"/>
<path d="M192.6 88.335L186.062 92.114L185.733 90.167L192.271 86.388L192.6 88.335Z" fill="#42E8E0"/>
<path d="M198.732 84.791L194.313 87.345L193.984 85.399L198.403 82.845L198.732 84.791Z" fill="#42E8E0"/>
<path d="M241.589 64.955L232.547 70.181L232.218 68.234L241.26 63.009L241.589 64.955Z" fill="#42E8E0"/>
<path d="M249.84 60.186L243.301 63.965L242.972 62.019L249.511 58.24L249.84 60.186Z" fill="#42E8E0"/>
<path d="M255.971 56.642L251.552 59.196L251.223 57.25L255.642 54.696L255.971 56.642Z" fill="#42E8E0"/>
<path d="M238.058 123.705L247.099 118.479L247.428 120.425L238.386 125.651L238.058 123.705Z" fill="#42E8E0"/>
<path d="M229.806 128.473L236.345 124.694L236.674 126.641L230.135 130.42L229.806 128.473Z" fill="#42E8E0"/>
<path d="M223.675 132.017L228.094 129.463L228.423 131.41L224.004 133.964L223.675 132.017Z" fill="#42E8E0"/>
<path d="M235.056 130.337L244.098 125.112L244.427 127.058L235.385 132.284L235.056 130.337Z" fill="#42E8E0"/>
<path d="M226.805 135.106L233.344 131.327L233.672 133.274L227.134 137.052L226.805 135.106Z" fill="#42E8E0"/>
<path d="M220.674 138.65L225.093 136.096L225.421 138.042L221.002 140.596L220.674 138.65Z" fill="#42E8E0"/>
<path d="M198.548 122.114L201.602 120.349L201.931 122.296L198.877 124.061L198.548 122.114Z" fill="#42E8E0"/>
<path d="M192.8 125.437L196.836 123.104L197.164 125.051L193.129 127.383L192.8 125.437Z" fill="#42E8E0"/>
<path d="M185.159 97.523L176.117 102.749L175.788 100.803L184.83 95.577L185.159 97.523Z" fill="#42E8E0"/>
<path d="M193.41 92.755L186.871 96.534L186.542 94.587L193.081 90.808L193.41 92.755Z" fill="#42E8E0"/>
<path d="M199.541 89.211L195.122 91.765L194.793 89.818L199.212 87.264L199.541 89.211Z" fill="#42E8E0"/>
<path d="M179.921 105.43L176.868 107.195L176.539 105.249L179.593 103.484L179.921 105.43Z" fill="#42E8E0"/>
<path d="M185.67 102.108L181.634 104.44L181.305 102.494L185.341 100.161L185.67 102.108Z" fill="#42E8E0"/>
<path d="M193.885 97.36L187.382 101.118L187.054 99.172L193.556 95.413L193.885 97.36Z" fill="#42E8E0"/>
<path d="M202.703 134.374L205.757 132.609L206.085 134.555L203.032 136.32L202.703 134.374Z" fill="#42E8E0"/>
<path d="M196.955 137.696L200.99 135.364L201.319 137.31L197.283 139.643L196.955 137.696Z" fill="#42E8E0"/>
<path d="M188.739 142.444L195.242 138.686L195.571 140.633L189.068 144.391L188.739 142.444Z" fill="#42E8E0"/>
<path d="M207.354 127.156L213.857 123.397L214.186 125.344L207.683 129.102L207.354 127.156Z" fill="#42E8E0"/>
<path d="M196.719 132.953L205.484 127.888L205.812 129.834L197.048 134.9L196.719 132.953Z" fill="#42E8E0"/>
<path d="M192.264 135.528L195.006 133.943L195.335 135.889L192.593 137.474L192.264 135.528Z" fill="#42E8E0"/>
<path d="M187.989 137.999L190.731 136.414L191.06 138.36L188.317 139.946L187.989 137.999Z" fill="#42E8E0"/>
<path d="M188.576 112.875L197.234 107.871L197.563 109.817L188.905 114.822L188.576 112.875Z" fill="#42E8E0"/>
<path d="M184.121 115.45L186.864 113.865L187.192 115.811L184.45 117.396L184.121 115.45Z" fill="#42E8E0"/>
<path d="M189.172 107.647L192.226 105.882L192.554 107.828L189.501 109.593L189.172 107.647Z" fill="#42E8E0"/>
<path d="M199.953 111.21L203.007 109.445L203.336 111.391L200.282 113.156L199.953 111.21Z" fill="#42E8E0"/>
<path d="M204.307 108.696L211.635 104.464L211.964 106.41L204.636 110.643L204.307 108.696Z" fill="#42E8E0"/>
<path d="M212.935 103.716L217.293 101.197L217.622 103.144L213.263 105.662L212.935 103.716Z" fill="#42E8E0"/>
<path d="M183.423 110.97L187.459 108.637L187.788 110.583L183.752 112.916L183.423 110.97Z" fill="#42E8E0"/>
<path d="M183.043 106.401L186.097 104.636L186.426 106.582L183.372 108.348L183.043 106.401Z" fill="#42E8E0"/>
<path d="M177.295 109.724L181.331 107.391L181.659 109.337L177.624 111.67L177.295 109.724Z" fill="#42E8E0"/>
<path d="M195.522 113.767L198.264 112.182L198.593 114.129L195.851 115.714L195.522 113.767Z" fill="#42E8E0"/>
<path d="M191.247 116.238L193.989 114.653L194.318 116.6L191.575 118.185L191.247 116.238Z" fill="#42E8E0"/>
<path d="M212.311 138.584L221.666 133.178L221.994 135.124L212.64 140.53L212.311 138.584Z" fill="#42E8E0"/>
<path d="M201.834 144.64L210.599 139.574L210.928 141.52L202.163 146.586L201.834 144.64Z" fill="#42E8E0"/>
<path d="M197.379 147.214L200.122 145.629L200.45 147.576L197.708 149.161L197.379 147.214Z" fill="#42E8E0"/>
<path d="M193.104 149.685L195.846 148.1L196.175 150.046L193.433 151.632L193.104 149.685Z" fill="#42E8E0"/>
<path d="M190.767 151.036L184.849 154.456L185.178 156.402L191.095 152.982L190.767 151.036Z" fill="#42E8E0"/>
<path opacity="0.7" d="M320.939 282.453L294.954 267.451L320.938 252.449L346.923 267.451L320.939 282.453Z" fill="#42E8E0"/>
<path d="M320.939 283.19C320.812 283.19 320.684 283.157 320.57 283.091L294.586 268.089C294.358 267.957 294.218 267.714 294.218 267.45C294.218 267.186 294.359 266.943 294.586 266.811L320.569 251.809C320.798 251.678 321.079 251.678 321.307 251.809L347.292 266.811C347.52 266.943 347.66 267.186 347.66 267.45C347.66 267.714 347.519 267.957 347.292 268.089L321.308 283.091C321.193 283.157 321.066 283.19 320.939 283.19ZM296.429 267.451L320.939 281.601L345.449 267.451L320.938 253.301L296.429 267.451Z" fill="#42E8E0"/>
<path opacity="0.7" d="M378.389 268.191L364.755 260.32L378.389 252.449L392.022 260.32L378.389 268.191Z" fill="#42E8E0"/>
<path opacity="0.5" d="M378.389 260.32L364.755 252.449L378.389 244.577L392.022 252.449L378.389 260.32Z" fill="#42E8E0"/>
<path opacity="0.3" d="M378.389 252.449L364.755 244.577L378.389 236.706L392.022 244.578L378.389 252.449Z" fill="#42E8E0"/>
<path d="M378.389 268.929C378.262 268.929 378.134 268.896 378.02 268.83L364.386 260.959C364.158 260.827 364.018 260.584 364.018 260.32C364.018 260.056 364.159 259.813 364.386 259.681L378.02 251.81C378.249 251.679 378.53 251.679 378.758 251.81L392.391 259.681C392.619 259.813 392.759 260.056 392.759 260.32C392.759 260.584 392.618 260.827 392.391 260.959L378.758 268.83C378.644 268.895 378.516 268.929 378.389 268.929ZM366.23 260.32L378.389 267.34L390.547 260.32L378.389 253.3L366.23 260.32Z" fill="#42E8E0"/>
<path opacity="0.7" d="M80.022 220.144L66.389 212.272L80.022 204.401L93.655 212.273L80.022 220.144Z" fill="#42E8E0"/>
<path d="M80.022 220.881C79.895 220.881 79.768 220.848 79.653 220.782L66.02 212.911C65.792 212.779 65.651 212.536 65.651 212.272C65.651 212.008 65.792 211.765 66.02 211.633L79.653 203.762C79.882 203.631 80.162 203.631 80.39 203.762L94.024 211.633C94.252 211.765 94.393 212.008 94.393 212.272C94.393 212.536 94.252 212.779 94.024 212.911L80.391 220.782C80.277 220.848 80.15 220.881 80.022 220.881ZM67.863 212.272L80.022 219.292L92.181 212.272L80.022 205.252L67.863 212.272Z" fill="#42E8E0"/>
<defs>
<linearGradient id="paint0_linear_72_1440" x1="307.297" y1="265.351" x2="189.821" y2="61.8831" gradientUnits="userSpaceOnUse">
<stop stop-color="#42E8E0"/>
<stop offset="0.0185" stop-color="#40DEDA"/>
<stop offset="0.1149" stop-color="#37ADBC"/>
<stop offset="0.2166" stop-color="#2E82A2"/>
<stop offset="0.3219" stop-color="#285E8C"/>
<stop offset="0.4319" stop-color="#22417A"/>
<stop offset="0.5479" stop-color="#1E2A6C"/>
<stop offset="0.6729" stop-color="#1A1A63"/>
<stop offset="0.813" stop-color="#19105D"/>
<stop offset="1" stop-color="#180D5B"/>
</linearGradient>
<linearGradient id="paint1_linear_72_1440" x1="307.297" y1="251.077" x2="189.821" y2="47.6092" gradientUnits="userSpaceOnUse">
<stop stop-color="#42E8E0"/>
<stop offset="0.0185" stop-color="#40DEDA"/>
<stop offset="0.1149" stop-color="#37ADBC"/>
<stop offset="0.2166" stop-color="#2E82A2"/>
<stop offset="0.3219" stop-color="#285E8C"/>
<stop offset="0.4319" stop-color="#22417A"/>
<stop offset="0.5479" stop-color="#1E2A6C"/>
<stop offset="0.6729" stop-color="#1A1A63"/>
<stop offset="0.813" stop-color="#19105D"/>
<stop offset="1" stop-color="#180D5B"/>
</linearGradient>
<linearGradient id="paint2_linear_72_1440" x1="307.296" y1="236.803" x2="189.821" y2="33.3353" gradientUnits="userSpaceOnUse">
<stop stop-color="#42E8E0"/>
<stop offset="0.0185" stop-color="#40DEDA"/>
<stop offset="0.1149" stop-color="#37ADBC"/>
<stop offset="0.2166" stop-color="#2E82A2"/>
<stop offset="0.3219" stop-color="#285E8C"/>
<stop offset="0.4319" stop-color="#22417A"/>
<stop offset="0.5479" stop-color="#1E2A6C"/>
<stop offset="0.6729" stop-color="#1A1A63"/>
<stop offset="0.813" stop-color="#19105D"/>
<stop offset="1" stop-color="#180D5B"/>
</linearGradient>
<radialGradient id="paint3_radial_72_1440" cx="0" cy="0" r="1" gradientUnits="userSpaceOnUse" gradientTransform="translate(114.468 66.0876) rotate(149.999) scale(93.4621 80.9418)">
<stop stop-color="#42E8E0"/>
<stop offset="0.1539" stop-color="#33AEB9"/>
<stop offset="0.3113" stop-color="#267A95"/>
<stop offset="0.4663" stop-color="#1B5078"/>
<stop offset="0.6156" stop-color="#132E61"/>
<stop offset="0.7574" stop-color="#0D1651"/>
<stop offset="0.8889" stop-color="#090847"/>
<stop offset="1" stop-color="#080344"/>
</radialGradient>
<radialGradient id="paint4_radial_72_1440" cx="0" cy="0" r="1" gradientUnits="userSpaceOnUse" gradientTransform="translate(378.389 260.32) rotate(149.999) scale(63.1336 54.6761)">
<stop stop-color="#42E8E0"/>
<stop offset="0.1539" stop-color="#33AEB9"/>
<stop offset="0.3113" stop-color="#267A95"/>
<stop offset="0.4663" stop-color="#1B5078"/>
<stop offset="0.6156" stop-color="#132E61"/>
<stop offset="0.7574" stop-color="#0D1651"/>
<stop offset="0.8889" stop-color="#090847"/>
<stop offset="1" stop-color="#080344"/>
</radialGradient>
<linearGradient id="paint5_linear_72_1440" x1="125.969" y1="106.157" x2="292.01" y2="106.157" gradientUnits="userSpaceOnUse">
<stop stop-color="#C0BFF6"/>
<stop offset="0.2938" stop-color="#C5C4F7"/>
<stop offset="0.6399" stop-color="#D3D2F9"/>
<stop offset="1" stop-color="#E9E9FD"/>
</linearGradient>
<linearGradient id="paint6_linear_72_1440" x1="125.969" y1="148.739" x2="154.481" y2="148.739" gradientUnits="userSpaceOnUse">
<stop stop-color="#5761D7"/>
<stop offset="0.1779" stop-color="#5C66D9"/>
<stop offset="0.3876" stop-color="#6A73DF"/>
<stop offset="0.6134" stop-color="#8289E8"/>
<stop offset="0.849" stop-color="#A3A7F5"/>
<stop offset="1" stop-color="#BCBEFF"/>
</linearGradient>
<linearGradient id="paint7_linear_72_1440" x1="148.214" y1="196.607" x2="382.719" y2="196.607" gradientUnits="userSpaceOnUse">
<stop stop-color="#5761D7"/>
<stop offset="0.1779" stop-color="#5C66D9"/>
<stop offset="0.3876" stop-color="#6A73DF"/>
<stop offset="0.6134" stop-color="#8289E8"/>
<stop offset="0.849" stop-color="#A3A7F5"/>
<stop offset="1" stop-color="#BCBEFF"/>
</linearGradient>
<linearGradient id="paint8_linear_72_1440" x1="227.009" y1="188.787" x2="461.639" y2="188.787" gradientUnits="userSpaceOnUse">
<stop stop-color="#C0BFF6"/>
<stop offset="0.2938" stop-color="#C5C4F7"/>
<stop offset="0.6399" stop-color="#D3D2F9"/>
<stop offset="1" stop-color="#E9E9FD"/>
</linearGradient>
<linearGradient id="paint9_linear_72_1440" x1="266.743" y1="202.107" x2="326.802" y2="202.107" gradientUnits="userSpaceOnUse">
<stop stop-color="#C0BFF6"/>
<stop offset="0.2938" stop-color="#C5C4F7"/>
<stop offset="0.6399" stop-color="#D3D2F9"/>
<stop offset="1" stop-color="#E9E9FD"/>
</linearGradient>
<linearGradient id="paint10_linear_72_1440" x1="137.367" y1="136.782" x2="371.997" y2="136.782" gradientUnits="userSpaceOnUse">
<stop stop-color="#C0BFF6"/>
<stop offset="0.2938" stop-color="#C5C4F7"/>
<stop offset="0.6399" stop-color="#D3D2F9"/>
<stop offset="1" stop-color="#E9E9FD"/>
</linearGradient>
<linearGradient id="paint11_linear_72_1440" x1="121.924" y1="119.559" x2="181.983" y2="119.559" gradientUnits="userSpaceOnUse">
<stop stop-color="#C0BFF6"/>
<stop offset="0.2938" stop-color="#C5C4F7"/>
<stop offset="0.6399" stop-color="#D3D2F9"/>
<stop offset="1" stop-color="#E9E9FD"/>
</linearGradient>
</defs>
</svg>
