<svg width="480" height="300" viewBox="0 0 480 300" fill="none" xmlns="http://www.w3.org/2000/svg">
<path style="mix-blend-mode:color-dodge" d="M85.4199 202.172L86.3899 188.76L86.3499 188.733L86.3999 188.706V188.697L86.7999 188.489L129.38 166.171L131.04 166.973L87.9499 189.823L87.9299 189.805L87.2799 201.289L85.4199 202.172Z" fill="url(#paint0_linear_90_10453)"/>
<path style="mix-blend-mode:color-dodge" d="M184.65 202.172L183.68 188.76L183.72 188.733L183.68 188.706V188.697L183.27 188.489L140.69 166.171L139.04 166.973L182.12 189.823L182.14 189.805L182.79 201.289L184.65 202.172Z" fill="url(#paint1_linear_90_10453)"/>
<path style="mix-blend-mode:color-dodge" d="M39.6399 195.71L40.6199 194.042L64.9499 194.168L123.44 163.043L125.09 163.854L65.8599 195.619L65.8099 195.583L39.6399 195.71Z" fill="url(#paint2_linear_90_10453)"/>
<path style="mix-blend-mode:color-dodge" d="M197.76 174.536L196.78 172.868L172.44 172.995L143.57 158.031L141.92 158.834L171.54 174.446L171.59 174.41L197.76 174.536Z" fill="url(#paint3_linear_90_10453)"/>
<path d="M155.46 158.067V161.222C155.46 161.529 155.24 161.844 154.79 162.079L136.73 171.561C135.84 172.03 134.38 172.03 133.48 171.561L115.42 162.079C114.97 161.844 114.75 161.529 114.75 161.222V158.067C114.75 157.761 114.97 157.454 115.42 157.211L133.48 147.728C134.38 147.26 135.84 147.26 136.73 147.728L154.79 157.211C155.24 157.445 155.46 157.752 155.46 158.067Z" fill="url(#paint4_linear_90_10453)"/>
<path d="M154.79 158.924C155.68 158.455 155.68 157.689 154.79 157.22L136.73 147.738C135.84 147.269 134.37 147.269 133.48 147.738L115.42 157.22C114.53 157.689 114.53 158.455 115.42 158.924L133.48 168.406C134.37 168.875 135.84 168.875 136.73 168.406L154.79 158.924Z" fill="url(#paint5_linear_90_10453)"/>
<path d="M155.46 151.046V154.201C155.46 154.507 155.24 154.823 154.79 155.057L136.73 164.539C135.84 165.008 134.38 165.008 133.48 164.539L115.42 155.057C114.97 154.823 114.75 154.507 114.75 154.201V151.046C114.75 150.739 114.97 150.433 115.42 150.189L133.48 140.707C134.38 140.238 135.84 140.238 136.73 140.707L154.79 150.189C155.24 150.424 155.46 150.73 155.46 151.046Z" fill="url(#paint6_linear_90_10453)"/>
<path d="M154.79 151.893C155.68 151.424 155.68 150.658 154.79 150.189L136.73 140.707C135.84 140.238 134.37 140.238 133.48 140.707L115.42 150.189C114.53 150.658 114.53 151.424 115.42 151.893L133.48 161.376C134.37 161.844 135.84 161.844 136.73 161.376L154.79 151.893Z" fill="url(#paint7_linear_90_10453)"/>
<path d="M155.46 144.015V147.17C155.46 147.476 155.24 147.792 154.79 148.026L136.73 157.509C135.84 157.977 134.38 157.977 133.48 157.509L115.42 148.026C114.97 147.792 114.75 147.476 114.75 147.17V144.015C114.75 143.708 114.97 143.402 115.42 143.159L133.48 133.676C134.38 133.207 135.84 133.207 136.73 133.676L154.79 143.159C155.24 143.393 155.46 143.699 155.46 144.015Z" fill="url(#paint8_linear_90_10453)"/>
<path d="M154.79 144.871C155.68 144.403 155.68 143.636 154.79 143.168L136.73 133.685C135.84 133.216 134.37 133.216 133.48 133.685L115.42 143.168C114.53 143.636 114.53 144.403 115.42 144.871L133.48 154.354C134.37 154.823 135.84 154.823 136.73 154.354L154.79 144.871Z" fill="url(#paint9_linear_90_10453)"/>
<path d="M155.46 136.993V140.148C155.46 140.454 155.24 140.77 154.79 141.004L136.73 150.487C135.84 150.955 134.38 150.955 133.48 150.487L115.42 141.004C114.97 140.77 114.75 140.454 114.75 140.148V136.993C114.75 136.686 114.97 136.38 115.42 136.146L133.48 126.663C134.38 126.194 135.84 126.194 136.73 126.663L154.79 136.146C155.24 136.38 155.46 136.686 155.46 136.993Z" fill="url(#paint10_linear_90_10453)"/>
<path d="M154.79 137.849C155.68 137.381 155.68 136.614 154.79 136.146L136.73 126.663C135.84 126.194 134.37 126.194 133.48 126.663L115.42 136.146C114.53 136.614 114.53 137.381 115.42 137.849L133.48 147.332C134.37 147.801 135.84 147.801 136.73 147.332L154.79 137.849Z" fill="url(#paint11_linear_90_10453)"/>
<path style="mix-blend-mode:color-dodge" d="M431 209.708L430.03 196.286L430.07 196.259L430.03 196.241L430.02 196.223L429.62 196.025L387.04 173.698L385.38 174.509L428.47 197.35L428.49 197.341L429.14 208.825L431 209.708Z" fill="url(#paint12_linear_90_10453)"/>
<path style="mix-blend-mode:color-dodge" d="M331.77 209.708L332.74 196.286L332.7 196.259L332.74 196.241V196.223L333.15 196.025L375.73 173.698L377.38 174.509L334.3 197.35L334.28 197.341L333.63 208.825L331.77 209.708Z" fill="url(#paint13_linear_90_10453)"/>
<path style="mix-blend-mode:color-dodge" d="M479.14 201.613L478.16 199.937L453.82 200.063L395.34 168.947L393.69 169.749L452.92 201.523L452.97 201.487L479.14 201.613Z" fill="url(#paint14_linear_90_10453)"/>
<path d="M360.96 165.594V168.749C360.96 169.055 361.18 169.371 361.63 169.605L379.69 179.088C380.58 179.557 382.04 179.557 382.94 179.088L401 169.605C401.45 169.371 401.67 169.055 401.67 168.749V165.594C401.67 165.288 401.45 164.981 401 164.738L382.94 155.255C382.04 154.786 380.59 154.786 379.69 155.255L361.63 164.738C361.18 164.972 360.96 165.279 360.96 165.594Z" fill="url(#paint15_linear_90_10453)"/>
<path d="M361.63 166.45C360.74 165.982 360.74 165.215 361.63 164.747L379.69 155.264C380.58 154.795 382.05 154.795 382.94 155.264L401 164.747C401.89 165.215 401.89 165.982 401 166.45L382.94 175.933C382.05 176.402 380.58 176.402 379.69 175.933L361.63 166.45Z" fill="url(#paint16_linear_90_10453)"/>
<path d="M360.96 158.572V161.727C360.96 162.034 361.18 162.349 361.63 162.583L379.69 172.066C380.58 172.535 382.04 172.535 382.94 172.066L401 162.583C401.45 162.349 401.67 162.034 401.67 161.727V158.572C401.67 158.266 401.45 157.959 401 157.716L382.94 148.233C382.04 147.765 380.59 147.765 379.69 148.233L361.63 157.716C361.18 157.95 360.96 158.257 360.96 158.572Z" fill="url(#paint17_linear_90_10453)"/>
<path d="M361.63 159.429C360.74 158.96 360.74 158.194 361.63 157.725L379.69 148.242C380.58 147.774 382.05 147.774 382.94 148.242L401 157.725C401.89 158.194 401.89 158.96 401 159.429L382.94 168.911C382.05 169.38 380.58 169.38 379.69 168.911L361.63 159.429Z" fill="url(#paint18_linear_90_10453)"/>
<path d="M360.96 151.55V154.705C360.96 155.012 361.18 155.327 361.63 155.562L379.69 165.044C380.58 165.513 382.04 165.513 382.94 165.044L401 155.562C401.45 155.327 401.67 155.012 401.67 154.705V151.55C401.67 151.244 401.45 150.937 401 150.694L382.94 141.211C382.04 140.743 380.59 140.743 379.69 141.211L361.63 150.694C361.18 150.928 360.96 151.235 360.96 151.55Z" fill="url(#paint19_linear_90_10453)"/>
<path d="M361.63 152.407C360.74 151.938 360.74 151.172 361.63 150.703L379.69 141.22C380.58 140.752 382.05 140.752 382.94 141.22L401 150.703C401.89 151.172 401.89 151.938 401 152.407L382.94 161.889C382.05 162.358 380.58 162.358 379.69 161.889L361.63 152.407Z" fill="url(#paint20_linear_90_10453)"/>
<path d="M360.96 144.52V147.674C360.96 147.981 361.18 148.296 361.63 148.531L379.69 158.013C380.58 158.482 382.04 158.482 382.94 158.013L401 148.531C401.45 148.296 401.67 147.981 401.67 147.674V144.52C401.67 144.213 401.45 143.907 401 143.663L382.94 134.181C382.04 133.712 380.59 133.712 379.69 134.181L361.63 143.663C361.18 143.898 360.96 144.204 360.96 144.52Z" fill="url(#paint21_linear_90_10453)"/>
<path d="M361.63 145.376C360.74 144.907 360.74 144.141 361.63 143.672L379.69 134.19C380.58 133.721 382.05 133.721 382.94 134.19L401 143.672C401.89 144.141 401.89 144.907 401 145.376L382.94 154.858C382.05 155.327 380.58 155.327 379.69 154.858L361.63 145.376Z" fill="url(#paint22_linear_90_10453)"/>
<path style="mix-blend-mode:color-dodge" d="M395 300L393.25 266.234L393.29 266.207L393.24 266.18V266.144L391.96 265.513L327.47 231.756L325.8 232.567L391.67 267.28L393.12 299.108L395 300Z" fill="url(#paint23_linear_90_10453)"/>
<path style="mix-blend-mode:color-dodge" d="M367.01 290.914L365.26 257.139L365.3 257.112L365.26 257.085V257.058L364.04 256.445L321.74 234.271L320.07 235.091L363.68 258.167L365.13 290.013L367.01 290.914Z" fill="url(#paint24_linear_90_10453)"/>
<path style="mix-blend-mode:color-dodge" d="M315.79 270.777L315.49 258.996L315.53 258.969L315.49 258.942V258.915L314.27 258.302L296.5 248.792L294.83 249.603L313.91 260.024V269.885L315.79 270.777Z" fill="url(#paint25_linear_90_10453)"/>
<path style="mix-blend-mode:color-dodge" d="M361.38 273.571L360.4 259.978L360.44 259.951L360.39 259.933V259.915L359.98 259.717L316.88 237.119L315.2 237.93L358.82 261.06L358.84 261.042L359.5 272.67L361.38 273.571Z" fill="url(#paint26_linear_90_10453)"/>
<path style="mix-blend-mode:color-dodge" d="M340.14 296.007L342.02 296.899L341.04 278.808L341.08 278.781L341.04 278.754V278.745L340.29 278.376L322.63 269.308L321.74 252.894L321.78 252.867L321.74 252.839L321.73 252.83L320.99 252.461L303.21 243.33L301.54 244.15L320.16 253.966L320.84 270.083L321.33 270.317L339.46 279.881L340.14 296.007Z" fill="url(#paint27_linear_90_10453)"/>
<path style="mix-blend-mode:color-dodge" d="M392.93 246.223L391.94 244.529L356.36 243.212L330.81 229.935L329.14 230.746L355.44 244.682L355.49 244.646L392.93 246.223Z" fill="url(#paint28_linear_90_10453)"/>
<path style="mix-blend-mode:color-dodge" d="M440.55 241.816L439.56 240.121L361.13 240.319L335.68 227.087L334 227.907L360.31 241.789L360.37 241.752L440.55 241.816Z" fill="url(#paint29_linear_90_10453)"/>
<path style="mix-blend-mode:color-dodge" d="M364 230.963L363 229.268L353.65 228.899L343.69 223.635L342.02 224.446L352.83 230.377L352.88 230.341L364 230.963Z" fill="url(#paint30_linear_90_10453)"/>
<path style="mix-blend-mode:color-dodge" d="M159.13 294.844L160.86 261.475L160.82 261.448L160.86 261.43V261.393L162.12 260.763L206.22 237.552L207.87 238.354L162.42 262.52L160.98 293.961L159.13 294.844Z" fill="url(#paint31_linear_90_10453)"/>
<path style="mix-blend-mode:color-dodge" d="M189.06 288.102L190.79 254.741L190.74 254.705L190.79 254.687V254.651L192 254.056L215.71 241.563L217.36 242.365L192.35 255.76L190.91 287.218L189.06 288.102Z" fill="url(#paint32_linear_90_10453)"/>
<path style="mix-blend-mode:color-dodge" d="M166.25 275.969L167.22 262.547L167.18 262.52L167.22 262.493V262.484L167.63 262.286L210.21 239.958L211.86 240.761L168.78 263.611L168.76 263.593L168.11 275.086L166.25 275.969Z" fill="url(#paint33_linear_90_10453)"/>
<path style="mix-blend-mode:color-dodge" d="M227.54 276.96L228.51 263.539L228.47 263.512L228.52 263.485V263.476L228.92 263.277L244.04 255.562L245.69 256.364L230.07 264.602L230.05 264.584L229.4 276.077L227.54 276.96Z" fill="url(#paint34_linear_90_10453)"/>
<path style="mix-blend-mode:color-dodge" d="M0 267.866L0.980011 266.198L143.42 266.324L201.91 235.199L203.56 236.002L144.33 267.776L144.28 267.74L0 267.866Z" fill="url(#paint35_linear_90_10453)"/>
<path style="mix-blend-mode:color-dodge" d="M136.51 248.215L137.49 246.548L173.28 246.611L198.43 233.541L200.08 234.343L174.1 248.071L174.04 248.026L136.51 248.215Z" fill="url(#paint36_linear_90_10453)"/>
<path style="mix-blend-mode:color-dodge" d="M49.01 230.864L49.99 229.196L169.69 229.475L181.85 222.94L183.5 223.743L170.51 230.936L170.45 230.891L49.01 230.864Z" fill="url(#paint37_linear_90_10453)"/>
<path d="M349.07 179.376V219.497C349.07 220.813 348.12 222.147 346.21 223.148L269.11 263.62C265.29 265.621 259.06 265.621 255.24 263.62L178.14 223.148C176.23 222.147 175.28 220.822 175.28 219.497V179.376C175.28 178.06 176.23 176.744 178.14 175.744L255.24 135.271C259.06 133.27 265.29 133.27 269.11 135.271L346.21 175.744C348.12 176.744 349.07 178.06 349.07 179.376Z" fill="url(#paint38_linear_90_10453)"/>
<path d="M346.21 183.018C350.02 181.017 350.02 177.736 346.21 175.735L269.12 135.271C265.3 133.27 259.06 133.27 255.25 135.271L178.16 175.735C174.35 177.736 174.35 181.017 178.16 183.018L255.25 223.481C259.06 225.482 265.31 225.482 269.12 223.481L346.21 183.018Z" fill="url(#paint39_linear_90_10453)"/>
<path d="M250.68 114.053V116.225C250.68 116.874 251.15 117.541 252.09 118.037L290.28 138.084C292.17 139.075 295.26 139.075 297.15 138.084L354.57 107.95C355.52 107.455 355.99 106.797 355.99 106.148V103.975C355.99 103.317 355.52 102.668 354.57 102.173L316.38 82.1257C314.49 81.1342 311.4 81.1342 309.51 82.1257L252.09 112.259C251.14 112.755 250.68 113.404 250.68 114.062V114.053Z" fill="url(#paint40_linear_90_10453)"/>
<path d="M252.1 115.856C250.21 114.864 250.21 113.242 252.1 112.25L309.52 82.1257C311.41 81.1342 314.5 81.1342 316.39 82.1257L354.58 102.173C356.47 103.164 356.47 104.787 354.58 105.778L297.17 135.903C295.28 136.894 292.19 136.894 290.3 135.903L252.11 115.856H252.1Z" fill="url(#paint41_linear_90_10453)"/>
<path d="M249.53 112.809L247.44 111.736C246.81 111.412 246.41 110.718 246.4 109.735L245.94 69.9028C245.92 67.9288 247.45 65.513 249.33 64.5215L306.76 34.4061C307.71 33.9104 308.57 33.8743 309.2 34.1898L311.29 35.2624C311.92 35.5869 312.32 36.272 312.33 37.2635L312.79 77.0959C312.81 79.0699 311.28 81.4856 309.4 82.4772L251.97 112.593C251.03 113.088 250.16 113.133 249.54 112.809H249.53Z" fill="url(#paint42_linear_90_10453)"/>
<path d="M248.49 110.799C248.51 112.773 250.08 113.575 251.97 112.583L309.4 82.4771C311.29 81.4855 312.82 79.0608 312.8 77.0868L312.34 37.2544C312.31 35.2804 310.75 34.4781 308.86 35.4697L251.43 65.576C249.54 66.5676 248.01 68.9923 248.04 70.9663L248.5 110.799H248.49Z" fill="url(#paint43_linear_90_10453)"/>
<path d="M307.4 79.3762C308.06 79.0337 308.83 77.8168 308.82 77.1228L308.39 39.8594L253.43 68.6768C252.77 69.0193 252 70.2452 252.01 70.9302L252.45 108.194L307.41 79.3762H307.4Z" fill="url(#paint44_linear_90_10453)"/>
<path d="M312.88 87.7411L316.08 89.4448L318.75 88.0386L315.54 86.344L312.88 87.7411Z" fill="url(#paint45_linear_90_10453)"/>
<path d="M308.88 89.8324L312.1 91.536L315.28 89.8594L312.06 88.1648L308.88 89.8324Z" fill="url(#paint46_linear_90_10453)"/>
<path d="M304.91 91.9237L308.11 93.6273L311.29 91.9597L308.08 90.2561L304.91 91.9237Z" fill="url(#paint47_linear_90_10453)"/>
<path d="M300.92 94.0147L304.13 95.7093L307.31 94.0418L304.1 92.3472L300.92 94.0147Z" fill="url(#paint48_linear_90_10453)"/>
<path d="M296.93 96.106L300.14 97.8097L303.32 96.1331L300.11 94.4385L296.93 96.106Z" fill="url(#paint49_linear_90_10453)"/>
<path d="M292.96 98.1974L296.16 99.901L299.34 98.2244L296.13 96.5298L292.96 98.1974Z" fill="url(#paint50_linear_90_10453)"/>
<path d="M288.97 100.289L292.18 101.983L295.36 100.316L292.14 98.6211L288.97 100.289Z" fill="url(#paint51_linear_90_10453)"/>
<path d="M284.98 102.38L288.19 104.074L291.37 102.407L288.16 100.703L284.98 102.38Z" fill="url(#paint52_linear_90_10453)"/>
<path d="M281 104.471L284.21 106.175L287.39 104.498L284.18 102.803L281 104.471Z" fill="url(#paint53_linear_90_10453)"/>
<path d="M277.01 106.562L280.22 108.257L283.4 106.589L280.19 104.895L277.01 106.562Z" fill="url(#paint54_linear_90_10453)"/>
<path d="M273.03 108.653L276.24 110.348L279.42 108.68L276.21 106.977L273.03 108.653Z" fill="url(#paint55_linear_90_10453)"/>
<path d="M269.04 110.744L272.26 112.439L275.44 110.772L272.22 109.077L269.04 110.744Z" fill="url(#paint56_linear_90_10453)"/>
<path d="M261.16 114.873L264.39 116.577L272.26 112.439L271.45 112.854L268.23 111.168L265.06 112.836L268.27 114.53L267.47 114.945L264.26 113.259L261.16 114.873Z" fill="url(#paint57_linear_90_10453)"/>
<path d="M316.97 92.1851L320.18 93.8797L324.85 91.3919L321.64 89.6882L316.97 92.1851Z" fill="url(#paint58_linear_90_10453)"/>
<path d="M311.33 95.0875L314.54 96.7911L317.72 95.1146L314.51 93.429L311.33 95.0875Z" fill="url(#paint59_linear_90_10453)"/>
<path d="M307.35 97.1786L310.56 98.8822L313.74 97.2146L310.53 95.511L307.35 97.1786Z" fill="url(#paint60_linear_90_10453)"/>
<path d="M303.36 99.2789L306.58 100.973L309.76 99.3059L306.54 97.6023L303.36 99.2789Z" fill="url(#paint61_linear_90_10453)"/>
<path d="M299.38 101.361L302.59 103.056L305.77 101.388L302.56 99.6936L299.38 101.361Z" fill="url(#paint62_linear_90_10453)"/>
<path d="M295.4 103.452L298.61 105.156L301.79 103.479L298.58 101.785L295.4 103.452Z" fill="url(#paint63_linear_90_10453)"/>
<path d="M291.41 105.544L294.63 107.247L297.8 105.58L294.59 103.876L291.41 105.544Z" fill="url(#paint64_linear_90_10453)"/>
<path d="M287.43 107.635L290.64 109.329L293.82 107.662L290.61 105.967L287.43 107.635Z" fill="url(#paint65_linear_90_10453)"/>
<path d="M283.45 109.726L286.66 111.421L289.84 109.753L286.63 108.059L283.45 109.726Z" fill="url(#paint66_linear_90_10453)"/>
<path d="M279.47 111.808L282.71 113.503L285.85 111.844L282.64 110.15L279.47 111.808Z" fill="url(#paint67_linear_90_10453)"/>
<path d="M275.48 113.909L278.7 115.612L281.9 113.927L278.67 112.232L275.48 113.909Z" fill="url(#paint68_linear_90_10453)"/>
<path d="M272.96 115.225L276.19 116.919L277.89 116.036L274.67 114.323L272.96 115.225Z" fill="url(#paint69_linear_90_10453)"/>
<path d="M267.26 118.217L270.48 119.921L275.39 117.343L272.16 115.648L267.26 118.217Z" fill="url(#paint70_linear_90_10453)"/>
<path d="M322.13 95.9798L325.32 97.6924L330.95 94.7268L327.73 93.0322L322.13 95.9798Z" fill="url(#paint71_linear_90_10453)"/>
<path d="M317.33 98.4947L320.54 100.189L323.72 98.5218L320.48 96.8362L317.33 98.4947Z" fill="url(#paint72_linear_90_10453)"/>
<path d="M313.34 100.586L316.56 102.28L319.74 100.613L316.53 98.9182L313.34 100.586Z" fill="url(#paint73_linear_90_10453)"/>
<path d="M309.36 102.677L312.57 104.381L315.75 102.704L312.54 101.01L309.36 102.677Z" fill="url(#paint74_linear_90_10453)"/>
<path d="M305.38 104.768L308.59 106.463L311.77 104.795L308.56 103.101L305.38 104.768Z" fill="url(#paint75_linear_90_10453)"/>
<path d="M301.39 106.859L304.61 108.554L307.79 106.886L304.57 105.183L301.39 106.859Z" fill="url(#paint76_linear_90_10453)"/>
<path d="M297.42 108.942L300.57 110.672L300.62 110.645L303.8 108.978L300.59 107.283L297.42 108.942Z" fill="url(#paint77_linear_90_10453)"/>
<path d="M293.42 111.033L296.64 112.737L299.76 111.096L296.61 109.365L293.42 111.033Z" fill="url(#paint78_linear_90_10453)"/>
<path d="M289.43 113.133L292.65 114.828L295.83 113.16L292.62 111.457L289.43 113.133Z" fill="url(#paint79_linear_90_10453)"/>
<path d="M285.45 115.224L288.67 116.919L291.85 115.251L288.64 113.557L285.45 115.224Z" fill="url(#paint80_linear_90_10453)"/>
<path d="M281.46 117.307L284.68 119.01L287.87 117.334L284.65 115.648L281.46 117.307Z" fill="url(#paint81_linear_90_10453)"/>
<path d="M277.48 119.398L280.69 121.102L283.45 119.668L280.23 117.974L277.48 119.398Z" fill="url(#paint82_linear_90_10453)"/>
<path d="M273.35 121.57L276.58 123.265L279.89 121.525L276.68 119.822L273.35 121.57Z" fill="url(#paint83_linear_90_10453)"/>
<path d="M331.28 97.7195L334.49 99.4232L337.04 98.0801L333.83 96.3765L331.28 97.7195Z" fill="url(#paint84_linear_90_10453)"/>
<path d="M327.29 99.8109L330.5 101.514L333.68 99.8379L330.47 98.1433L327.29 99.8109Z" fill="url(#paint85_linear_90_10453)"/>
<path d="M323.31 101.902L326.52 103.597L329.7 101.929L326.49 100.234L323.31 101.902Z" fill="url(#paint86_linear_90_10453)"/>
<path d="M319.32 103.993L322.54 105.688L325.72 104.02L322.5 102.317L319.32 103.993Z" fill="url(#paint87_linear_90_10453)"/>
<path d="M303.34 112.349L306.56 114.044L320.93 106.544L317.72 104.841L303.34 112.349Z" fill="url(#paint88_linear_90_10453)"/>
<path d="M299.48 114.305L302.7 116.009L305.11 114.846L301.89 113.142L299.48 114.305Z" fill="url(#paint89_linear_90_10453)"/>
<path d="M296.55 115.9L299.77 117.595L302.14 116.324L298.93 114.629L296.55 115.9Z" fill="url(#paint90_linear_90_10453)"/>
<path d="M294.02 117.27L297.24 118.974L299.25 117.928L296.04 116.225L294.02 117.27Z" fill="url(#paint91_linear_90_10453)"/>
<path d="M291.43 118.632L294.65 120.335L296.55 119.308L293.34 117.613L291.43 118.632Z" fill="url(#paint92_linear_90_10453)"/>
<path d="M289.05 121.489L290.67 122.418L293.85 120.75L292.23 119.822L289.05 121.489Z" fill="url(#paint93_linear_90_10453)"/>
<path d="M287.04 120.281L288.66 121.219L291.83 119.542L290.22 118.623L287.04 120.281Z" fill="url(#paint94_linear_90_10453)"/>
<path d="M285.05 121.895L288.28 123.589L289.87 122.832L286.64 121.138L285.05 121.895Z" fill="url(#paint95_linear_90_10453)"/>
<path d="M279.45 124.905L282.68 126.609L285.18 125.293L281.94 123.589L279.45 124.905Z" fill="url(#paint96_linear_90_10453)"/>
<path d="M282.41 123.265L285.64 124.969L288.03 123.752L284.79 122.048L282.41 123.265Z" fill="url(#paint97_linear_90_10453)"/>
<path d="M309.82 116.487L315.35 119.416L329.24 112.115L323.71 109.185L309.82 116.487Z" fill="url(#paint98_linear_90_10453)"/>
<path d="M315.34 119.416L317.34 120.471L331.23 113.178L329.24 112.124L315.34 119.416Z" fill="url(#paint99_linear_90_10453)"/>
<path d="M269.31 60.357L307.34 79.4124L307.4 79.3853C308.06 79.0428 308.83 77.8259 308.82 77.1319L308.76 71.7596L277.48 56.0754L269.31 60.357Z" fill="url(#paint100_linear_90_10453)"/>
<path d="M252 70.9305L252.06 76.3658L283.29 92.0139L291.45 87.7323L253.42 68.677H253.4C252.74 69.0285 251.98 70.2454 251.99 70.9305H252Z" fill="url(#paint101_linear_90_10453)"/>
<path d="M265.04 62.5924L303.06 81.6477L304.97 80.6562L266.94 61.6008L265.04 62.5924Z" fill="url(#paint102_linear_90_10453)"/>
<path d="M222.46 56.3189L224.05 55.5076C224.53 55.2642 224.84 54.7324 224.84 53.9843L225.62 26.4829C225.64 24.9866 224.48 23.1478 223.04 22.3906L209.9 15.3418C209.18 14.9632 208.52 14.9361 208.05 15.1795L206.46 15.9998C205.98 16.2432 205.68 16.766 205.67 17.5141L204.89 45.0155C204.88 46.5118 206.03 48.3506 207.47 49.1078L220.61 56.1566C221.33 56.5352 221.98 56.5713 222.46 56.3189Z" fill="url(#paint103_linear_90_10453)"/>
<path d="M224.04 27.3032L223.99 31.738L223.26 54.7955C223.24 56.2918 222.05 56.8957 220.61 56.1476L211.72 51.3252L207.47 49.0987C206.04 48.3506 204.87 46.5027 204.89 45.0064L204.94 40.5986L205.67 17.5141C205.69 16.0088 206.88 15.4048 208.31 16.162L211.76 17.9738V18.6949L218.32 22.3005V21.5703L218.51 21.6695L221.44 23.2109C221.5 23.2469 221.57 23.283 221.63 23.319L221.71 23.3641C222.91 24.1213 223.86 25.6086 224.01 26.9336C224.02 27.0598 224.03 27.186 224.03 27.3122L224.04 27.3032Z" fill="url(#paint104_linear_90_10453)"/>
<path d="M223.87 35.5957L223.69 41.022L212.05 51.5052L211.72 51.3249L208.37 49.5672L223.87 35.5957Z" fill="url(#paint105_linear_90_10453)"/>
<path d="M224.04 27.3029L224.02 28.5378L204.97 45.7093C204.92 45.4659 204.89 45.2315 204.89 44.9972L204.94 40.5894L205.09 36.0284L220.11 22.4895L221.46 23.2016C221.52 23.2377 221.59 23.2737 221.65 23.3098L221.73 23.3548C222.93 24.112 223.88 25.5993 224.03 26.9243C224.04 27.0505 224.05 27.1767 224.05 27.3029H224.04Z" fill="url(#paint106_linear_90_10453)"/>
<path d="M223.67 41.8154L223.63 42.807L213.26 52.1634L212.59 51.8028L223.67 41.8154Z" fill="url(#paint107_linear_90_10453)"/>
<path d="M218.95 21.8858L205.14 34.334L205.17 33.3425L217.77 21.985L218.33 22.3004V21.5703L218.53 21.6695L218.95 21.8858Z" fill="url(#paint108_linear_90_10453)"/>
<path d="M241.69 139.355L197.07 115.783C195.98 115.207 194.98 115.161 194.26 115.531L191.85 116.766C191.12 117.135 190.67 117.929 190.65 119.064L190.48 125.428V148.107C191.16 149.694 192.41 151.19 193.86 151.956L238.48 175.527C239.57 176.095 240.56 176.149 241.29 175.78L243.7 174.545C244.42 174.175 244.89 173.373 244.9 172.237L245.6 145.556C245.62 143.285 243.86 140.499 241.69 139.355Z" fill="url(#paint109_linear_90_10453)"/>
<path d="M243.15 146.223C242.93 144.213 241.48 141.96 239.67 140.815L239.55 140.752C239.46 140.698 239.36 140.635 239.27 140.59L234.83 138.264L215.76 128.096L199.99 119.822L194.67 117.027C192.5 115.892 190.69 116.811 190.67 119.082L190.5 124.536V148.134C190.85 150.135 192.43 151.208 193.88 151.965L200.32 155.345L238.49 175.536C240.67 176.672 242.48 175.753 242.5 173.481L243.12 153.543V153.524L243.2 146.8C243.2 146.611 243.2 146.422 243.17 146.232L243.15 146.223Z" fill="url(#paint110_linear_90_10453)"/>
<path d="M240.24 174.365C240.14 174.365 239.85 174.338 239.39 174.094L201.23 153.903L194.78 150.523C193.48 149.838 192.56 149.144 192.31 147.981V124.527L192.48 119.119C192.48 118.938 192.51 118.172 192.88 118.172C192.98 118.172 193.27 118.199 193.73 118.443L214.82 129.512L233.88 139.67L238.34 142.005L238.65 142.185C240.01 143.068 241.15 144.862 241.32 146.377C241.33 146.503 241.34 146.638 241.34 146.782L241.26 153.488L240.65 173.418C240.65 173.598 240.62 174.356 240.24 174.356V174.365Z" fill="url(#paint111_linear_90_10453)"/>
<path d="M217.96 131.188L195.87 151.1L194.78 150.523C193.48 149.847 192.56 149.144 192.32 147.981V141.933L209.31 126.627L214.84 129.52L217.97 131.188H217.96Z" fill="url(#paint112_linear_90_10453)"/>
<path d="M240.85 144.781L219.8 163.746L201.23 153.921L201.05 153.822L223.1 133.946L233.89 139.688L238.34 142.023L238.65 142.203C239.55 142.78 240.35 143.753 240.84 144.79L240.85 144.781Z" fill="url(#paint113_linear_90_10453)"/>
<path style="mix-blend-mode:color-dodge" d="M366.74 42.5635L334.69 173.048C334.69 174.148 333.9 175.257 332.31 176.086L267.97 209.861C264.78 211.529 259.59 211.529 256.4 209.861L192.06 176.086C190.47 175.257 189.68 174.148 189.68 173.048L157.63 42.5635C157.63 41.4639 158.42 40.3642 160.01 39.5349L224.35 5.75987C238.85 -1.91996 284.95 -1.91996 300.03 5.75987L364.37 39.5349C365.96 40.3642 366.75 41.4639 366.75 42.5635H366.74Z" fill="url(#paint114_linear_90_10453)"/>
<path style="mix-blend-mode:color-dodge" d="M187.64 49.45L190.21 58.7704C191.41 63.1151 188.47 67.5228 183.65 68.6045C178.83 69.6862 173.94 67.0361 172.74 62.6914L170.17 53.371C168.97 49.0264 171.91 44.6186 176.73 43.5369C181.55 42.4552 186.44 45.1053 187.64 49.45Z" fill="url(#paint115_linear_90_10453)"/>
<path style="mix-blend-mode:color-dodge" d="M318.69 49.1077L317.5 53.4073C316.95 55.4084 318.3 57.4455 320.53 57.9413C322.76 58.437 325.01 57.2202 325.56 55.2101L326.75 50.9104C327.3 48.9094 325.95 46.8722 323.72 46.3765C321.5 45.8807 319.24 47.0976 318.69 49.1077Z" fill="url(#paint116_linear_90_10453)"/>
<path style="mix-blend-mode:color-dodge" d="M347.81 38.9941L346.62 43.2938C346.07 45.2949 347.42 47.332 349.65 47.8278C351.88 48.3235 354.13 47.1066 354.68 45.0965L355.87 40.7969C356.42 38.7958 355.07 36.7587 352.84 36.2629C350.62 35.7672 348.36 36.9841 347.81 38.9941Z" fill="url(#paint117_linear_90_10453)"/>
<path style="mix-blend-mode:color-dodge" d="M229.07 103.407L230.26 107.707C230.81 109.708 229.46 111.745 227.23 112.241C225.01 112.737 222.75 111.52 222.2 109.51L221.01 105.21C220.46 103.209 221.81 101.172 224.04 100.676C226.26 100.18 228.52 101.397 229.07 103.407Z" fill="url(#paint118_linear_90_10453)"/>
<path style="mix-blend-mode:color-dodge" d="M210.08 60.0685L210.67 62.2138C210.95 63.2144 210.27 64.2329 209.16 64.4853C208.05 64.7377 206.92 64.1248 206.64 63.1242L206.05 60.9789C205.77 59.9784 206.45 58.9598 207.56 58.7074C208.67 58.455 209.8 59.068 210.08 60.0685Z" fill="url(#paint119_linear_90_10453)"/>
<path style="mix-blend-mode:color-dodge" d="M196.13 80.1425L213.45 161.538C214.39 165.937 211.19 170.191 206.31 171.029C201.43 171.877 196.71 168.992 195.78 164.593L178.46 83.2072C177.52 78.8084 180.72 74.5539 185.6 73.7065C190.48 72.8592 195.2 75.7437 196.13 80.1425Z" fill="url(#paint120_linear_90_10453)"/>
<path style="mix-blend-mode:color-dodge" d="M292.87 137.137L284.45 176.69C283.99 178.826 285.55 180.89 287.92 181.305C290.29 181.711 292.58 180.314 293.04 178.177L301.46 138.624C301.92 136.488 300.36 134.415 297.99 134.009C295.62 133.604 293.32 135.001 292.87 137.137Z" fill="url(#paint121_linear_90_10453)"/>
<path style="mix-blend-mode:color-dodge" d="M328.84 71.9218L309.14 164.458C308.08 169.461 311.71 174.292 317.26 175.257C322.81 176.221 328.17 172.94 329.24 167.938L348.94 75.4012C350.01 70.3984 346.37 65.567 340.82 64.6025C335.27 63.6471 329.91 66.9191 328.84 71.9218Z" fill="url(#paint122_linear_90_10453)"/>
<defs>
<linearGradient id="paint0_linear_90_10453" x1="109.3" y1="195.502" x2="105.435" y2="146.757" gradientUnits="userSpaceOnUse">
<stop stop-color="#5669FC" stop-opacity="0"/>
<stop offset="1" stop-color="#4E2FA6"/>
</linearGradient>
<linearGradient id="paint1_linear_90_10453" x1="160.78" y1="195.502" x2="164.645" y2="146.757" gradientUnits="userSpaceOnUse">
<stop stop-color="#5669FC" stop-opacity="0"/>
<stop offset="1" stop-color="#4E2FA6"/>
</linearGradient>
<linearGradient id="paint2_linear_90_10453" x1="38.4699" y1="178.872" x2="117.867" y2="180.025" gradientUnits="userSpaceOnUse">
<stop stop-color="#5669FC" stop-opacity="0"/>
<stop offset="1" stop-color="#4E2FA6"/>
</linearGradient>
<linearGradient id="paint3_linear_90_10453" x1="198.56" y1="165.955" x2="146.612" y2="166.709" gradientUnits="userSpaceOnUse">
<stop stop-color="#5669FC" stop-opacity="0"/>
<stop offset="1" stop-color="#4E2FA6"/>
</linearGradient>
<linearGradient id="paint4_linear_90_10453" x1="128.2" y1="151.812" x2="146.502" y2="177.355" gradientUnits="userSpaceOnUse">
<stop stop-color="#494BCD"/>
<stop offset="1" stop-color="#4E2FA6"/>
</linearGradient>
<linearGradient id="paint5_linear_90_10453" x1="114.75" y1="158.067" x2="155.46" y2="158.067" gradientUnits="userSpaceOnUse">
<stop stop-color="#5669FC"/>
<stop offset="1" stop-color="#4E2FA6"/>
</linearGradient>
<linearGradient id="paint6_linear_90_10453" x1="128.2" y1="144.79" x2="146.502" y2="170.333" gradientUnits="userSpaceOnUse">
<stop stop-color="#494BCD"/>
<stop offset="1" stop-color="#4E2FA6"/>
</linearGradient>
<linearGradient id="paint7_linear_90_10453" x1="-237.29" y1="151.046" x2="-236.29" y2="151.046" gradientUnits="userSpaceOnUse">
<stop stop-color="#5669FC"/>
<stop offset="1" stop-color="#4E2FA6"/>
</linearGradient>
<linearGradient id="paint8_linear_90_10453" x1="128.2" y1="137.759" x2="146.502" y2="163.302" gradientUnits="userSpaceOnUse">
<stop stop-color="#494BCD"/>
<stop offset="1" stop-color="#4E2FA6"/>
</linearGradient>
<linearGradient id="paint9_linear_90_10453" x1="-237.29" y1="144.015" x2="-236.29" y2="144.015" gradientUnits="userSpaceOnUse">
<stop stop-color="#5669FC"/>
<stop offset="1" stop-color="#4E2FA6"/>
</linearGradient>
<linearGradient id="paint10_linear_90_10453" x1="128.2" y1="130.737" x2="146.502" y2="156.28" gradientUnits="userSpaceOnUse">
<stop stop-color="#494BCD"/>
<stop offset="1" stop-color="#4E2FA6"/>
</linearGradient>
<linearGradient id="paint11_linear_90_10453" x1="-237.29" y1="136.993" x2="-236.29" y2="136.993" gradientUnits="userSpaceOnUse">
<stop stop-color="#5669FC"/>
<stop offset="1" stop-color="#4E2FA6"/>
</linearGradient>
<linearGradient id="paint12_linear_90_10453" x1="407.13" y1="203.038" x2="410.995" y2="154.293" gradientUnits="userSpaceOnUse">
<stop stop-color="#5669FC" stop-opacity="0"/>
<stop offset="1" stop-color="#4E2FA6"/>
</linearGradient>
<linearGradient id="paint13_linear_90_10453" x1="355.64" y1="203.038" x2="351.775" y2="154.293" gradientUnits="userSpaceOnUse">
<stop stop-color="#5669FC" stop-opacity="0"/>
<stop offset="1" stop-color="#4E2FA6"/>
</linearGradient>
<linearGradient id="paint14_linear_90_10453" x1="480.31" y1="184.766" x2="400.913" y2="185.931" gradientUnits="userSpaceOnUse">
<stop stop-color="#5669FC" stop-opacity="0"/>
<stop offset="1" stop-color="#4E2FA6"/>
</linearGradient>
<linearGradient id="paint15_linear_90_10453" x1="388.23" y1="159.347" x2="369.919" y2="184.892" gradientUnits="userSpaceOnUse">
<stop stop-color="#494BCD"/>
<stop offset="1" stop-color="#4E2FA6"/>
</linearGradient>
<linearGradient id="paint16_linear_90_10453" x1="401.68" y1="165.603" x2="360.96" y2="165.603" gradientUnits="userSpaceOnUse">
<stop stop-color="#5669FC"/>
<stop offset="1" stop-color="#4E2FA6"/>
</linearGradient>
<linearGradient id="paint17_linear_90_10453" x1="388.23" y1="152.317" x2="369.919" y2="177.861" gradientUnits="userSpaceOnUse">
<stop stop-color="#494BCD"/>
<stop offset="1" stop-color="#4E2FA6"/>
</linearGradient>
<linearGradient id="paint18_linear_90_10453" x1="401.68" y1="158.572" x2="360.96" y2="158.572" gradientUnits="userSpaceOnUse">
<stop stop-color="#5669FC"/>
<stop offset="1" stop-color="#4E2FA6"/>
</linearGradient>
<linearGradient id="paint19_linear_90_10453" x1="388.23" y1="145.295" x2="369.919" y2="170.839" gradientUnits="userSpaceOnUse">
<stop stop-color="#494BCD"/>
<stop offset="1" stop-color="#4E2FA6"/>
</linearGradient>
<linearGradient id="paint20_linear_90_10453" x1="401.68" y1="151.55" x2="360.96" y2="151.55" gradientUnits="userSpaceOnUse">
<stop stop-color="#5669FC"/>
<stop offset="1" stop-color="#4E2FA6"/>
</linearGradient>
<linearGradient id="paint21_linear_90_10453" x1="388.23" y1="138.264" x2="369.919" y2="163.808" gradientUnits="userSpaceOnUse">
<stop stop-color="#494BCD"/>
<stop offset="1" stop-color="#4E2FA6"/>
</linearGradient>
<linearGradient id="paint22_linear_90_10453" x1="401.68" y1="144.52" x2="360.96" y2="144.52" gradientUnits="userSpaceOnUse">
<stop stop-color="#5669FC"/>
<stop offset="1" stop-color="#4E2FA6"/>
</linearGradient>
<linearGradient id="paint23_linear_90_10453" x1="422.15" y1="300.911" x2="319.724" y2="221.359" gradientUnits="userSpaceOnUse">
<stop stop-color="#5669FC" stop-opacity="0"/>
<stop offset="1" stop-color="#4E2FA6"/>
</linearGradient>
<linearGradient id="paint24_linear_90_10453" x1="389.36" y1="288.778" x2="313.283" y2="229.703" gradientUnits="userSpaceOnUse">
<stop stop-color="#5669FC" stop-opacity="0"/>
<stop offset="1" stop-color="#4E2FA6"/>
</linearGradient>
<linearGradient id="paint25_linear_90_10453" x1="324.51" y1="270.588" x2="292.992" y2="246.109" gradientUnits="userSpaceOnUse">
<stop stop-color="#5669FC" stop-opacity="0"/>
<stop offset="1" stop-color="#4E2FA6"/>
</linearGradient>
<linearGradient id="paint26_linear_90_10453" x1="376.05" y1="276.456" x2="313.832" y2="228.136" gradientUnits="userSpaceOnUse">
<stop stop-color="#5669FC" stop-opacity="0"/>
<stop offset="1" stop-color="#4E2FA6"/>
</linearGradient>
<linearGradient id="paint27_linear_90_10453" x1="362.62" y1="294.402" x2="293.987" y2="241.112" gradientUnits="userSpaceOnUse">
<stop stop-color="#5669FC" stop-opacity="0"/>
<stop offset="1" stop-color="#4E2FA6"/>
</linearGradient>
<linearGradient id="paint28_linear_90_10453" x1="398.41" y1="261.538" x2="334.538" y2="211.93" gradientUnits="userSpaceOnUse">
<stop stop-color="#5669FC" stop-opacity="0"/>
<stop offset="1" stop-color="#4E2FA6"/>
</linearGradient>
<linearGradient id="paint29_linear_90_10453" x1="442.04" y1="238.246" x2="353.081" y2="233.811" gradientUnits="userSpaceOnUse">
<stop stop-color="#5669FC" stop-opacity="0"/>
<stop offset="1" stop-color="#4E2FA6"/>
</linearGradient>
<linearGradient id="paint30_linear_90_10453" x1="366.52" y1="235.695" x2="343.739" y2="218.001" gradientUnits="userSpaceOnUse">
<stop stop-color="#5669FC" stop-opacity="0"/>
<stop offset="1" stop-color="#4E2FA6"/>
</linearGradient>
<linearGradient id="paint31_linear_90_10453" x1="183.03" y1="306.003" x2="183.843" y2="221.271" gradientUnits="userSpaceOnUse">
<stop stop-color="#5669FC" stop-opacity="0"/>
<stop offset="1" stop-color="#4E2FA6"/>
</linearGradient>
<linearGradient id="paint32_linear_90_10453" x1="170.89" y1="283.532" x2="224.66" y2="241.78" gradientUnits="userSpaceOnUse">
<stop stop-color="#5669FC" stop-opacity="0"/>
<stop offset="1" stop-color="#4E2FA6"/>
</linearGradient>
<linearGradient id="paint33_linear_90_10453" x1="190.12" y1="269.29" x2="186.255" y2="220.545" gradientUnits="userSpaceOnUse">
<stop stop-color="#5669FC" stop-opacity="0"/>
<stop offset="1" stop-color="#4E2FA6"/>
</linearGradient>
<linearGradient id="paint34_linear_90_10453" x1="219.02" y1="276.05" x2="247.786" y2="253.706" gradientUnits="userSpaceOnUse">
<stop stop-color="#5669FC" stop-opacity="0"/>
<stop offset="1" stop-color="#4E2FA6"/>
</linearGradient>
<linearGradient id="paint35_linear_90_10453" x1="-3.12" y1="250.298" x2="186.622" y2="253.071" gradientUnits="userSpaceOnUse">
<stop stop-color="#5669FC" stop-opacity="0"/>
<stop offset="1" stop-color="#4E2FA6"/>
</linearGradient>
<linearGradient id="paint36_linear_90_10453" x1="141.1" y1="239.274" x2="207.78" y2="244.261" gradientUnits="userSpaceOnUse">
<stop stop-color="#5669FC" stop-opacity="0"/>
<stop offset="1" stop-color="#4E2FA6"/>
</linearGradient>
<linearGradient id="paint37_linear_90_10453" x1="54.23" y1="227.492" x2="202.229" y2="226.66" gradientUnits="userSpaceOnUse">
<stop stop-color="#5669FC" stop-opacity="0"/>
<stop offset="1" stop-color="#4E2FA6"/>
</linearGradient>
<linearGradient id="paint38_linear_90_10453" x1="227.14" y1="159.708" x2="320.009" y2="289.3" gradientUnits="userSpaceOnUse">
<stop stop-color="#494BCD"/>
<stop offset="1" stop-color="#4E2FA6"/>
</linearGradient>
<linearGradient id="paint39_linear_90_10453" x1="175.29" y1="179.376" x2="349.07" y2="179.376" gradientUnits="userSpaceOnUse">
<stop stop-color="#5669FC"/>
<stop offset="1" stop-color="#4E2FA6"/>
</linearGradient>
<linearGradient id="paint40_linear_90_10453" x1="256.84" y1="106.662" x2="363.226" y2="116.343" gradientUnits="userSpaceOnUse">
<stop stop-color="#6773AF"/>
<stop offset="1" stop-color="#C9DCFF"/>
</linearGradient>
<linearGradient id="paint41_linear_90_10453" x1="355.99" y1="109.014" x2="250.68" y2="109.014" gradientUnits="userSpaceOnUse">
<stop stop-color="#6773AF"/>
<stop offset="1" stop-color="#C9DCFF"/>
</linearGradient>
<linearGradient id="paint42_linear_90_10453" x1="322.82" y1="90.6708" x2="248.206" y2="54.3791" gradientUnits="userSpaceOnUse">
<stop stop-color="#6773AF"/>
<stop offset="1" stop-color="#C9DCFF"/>
</linearGradient>
<linearGradient id="paint43_linear_90_10453" x1="240.5" y1="62.8448" x2="309.86" y2="86.7652" gradientUnits="userSpaceOnUse">
<stop stop-color="#6773AF"/>
<stop offset="1" stop-color="#C9DCFF"/>
</linearGradient>
<linearGradient id="paint44_linear_90_10453" x1="308.82" y1="74.031" x2="252" y2="74.031" gradientUnits="userSpaceOnUse">
<stop stop-color="#8158D8"/>
<stop offset="1" stop-color="#1A2B66"/>
</linearGradient>
<linearGradient id="paint45_linear_90_10453" x1="318.75" y1="87.8944" x2="312.88" y2="87.8944" gradientUnits="userSpaceOnUse">
<stop stop-color="#8158D8"/>
<stop offset="1" stop-color="#1A2B66"/>
</linearGradient>
<linearGradient id="paint46_linear_90_10453" x1="315.28" y1="89.8504" x2="308.88" y2="89.8504" gradientUnits="userSpaceOnUse">
<stop stop-color="#8158D8"/>
<stop offset="1" stop-color="#1A2B66"/>
</linearGradient>
<linearGradient id="paint47_linear_90_10453" x1="311.29" y1="91.9417" x2="304.91" y2="91.9417" gradientUnits="userSpaceOnUse">
<stop stop-color="#8158D8"/>
<stop offset="1" stop-color="#1A2B66"/>
</linearGradient>
<linearGradient id="paint48_linear_90_10453" x1="307.31" y1="94.0328" x2="300.93" y2="94.0328" gradientUnits="userSpaceOnUse">
<stop stop-color="#8158D8"/>
<stop offset="1" stop-color="#1A2B66"/>
</linearGradient>
<linearGradient id="paint49_linear_90_10453" x1="303.33" y1="96.1241" x2="296.93" y2="96.1241" gradientUnits="userSpaceOnUse">
<stop stop-color="#8158D8"/>
<stop offset="1" stop-color="#1A2B66"/>
</linearGradient>
<linearGradient id="paint50_linear_90_10453" x1="299.34" y1="98.2154" x2="292.96" y2="98.2154" gradientUnits="userSpaceOnUse">
<stop stop-color="#8158D8"/>
<stop offset="1" stop-color="#1A2B66"/>
</linearGradient>
<linearGradient id="paint51_linear_90_10453" x1="295.36" y1="100.307" x2="288.97" y2="100.307" gradientUnits="userSpaceOnUse">
<stop stop-color="#8158D8"/>
<stop offset="1" stop-color="#1A2B66"/>
</linearGradient>
<linearGradient id="paint52_linear_90_10453" x1="291.37" y1="102.389" x2="284.98" y2="102.389" gradientUnits="userSpaceOnUse">
<stop stop-color="#8158D8"/>
<stop offset="1" stop-color="#1A2B66"/>
</linearGradient>
<linearGradient id="paint53_linear_90_10453" x1="287.39" y1="104.489" x2="281" y2="104.489" gradientUnits="userSpaceOnUse">
<stop stop-color="#8158D8"/>
<stop offset="1" stop-color="#1A2B66"/>
</linearGradient>
<linearGradient id="paint54_linear_90_10453" x1="283.41" y1="106.571" x2="277.01" y2="106.571" gradientUnits="userSpaceOnUse">
<stop stop-color="#8158D8"/>
<stop offset="1" stop-color="#1A2B66"/>
</linearGradient>
<linearGradient id="paint55_linear_90_10453" x1="279.42" y1="108.662" x2="273.03" y2="108.662" gradientUnits="userSpaceOnUse">
<stop stop-color="#8158D8"/>
<stop offset="1" stop-color="#1A2B66"/>
</linearGradient>
<linearGradient id="paint56_linear_90_10453" x1="275.44" y1="110.763" x2="269.05" y2="110.763" gradientUnits="userSpaceOnUse">
<stop stop-color="#8158D8"/>
<stop offset="1" stop-color="#1A2B66"/>
</linearGradient>
<linearGradient id="paint57_linear_90_10453" x1="272.26" y1="113.872" x2="261.17" y2="113.872" gradientUnits="userSpaceOnUse">
<stop stop-color="#8158D8"/>
<stop offset="1" stop-color="#1A2B66"/>
</linearGradient>
<linearGradient id="paint58_linear_90_10453" x1="324.85" y1="91.7795" x2="316.97" y2="91.7795" gradientUnits="userSpaceOnUse">
<stop stop-color="#8158D8"/>
<stop offset="1" stop-color="#1A2B66"/>
</linearGradient>
<linearGradient id="paint59_linear_90_10453" x1="317.73" y1="95.1055" x2="311.33" y2="95.1055" gradientUnits="userSpaceOnUse">
<stop stop-color="#8158D8"/>
<stop offset="1" stop-color="#1A2B66"/>
</linearGradient>
<linearGradient id="paint60_linear_90_10453" x1="313.74" y1="97.1966" x2="307.35" y2="97.1966" gradientUnits="userSpaceOnUse">
<stop stop-color="#8158D8"/>
<stop offset="1" stop-color="#1A2B66"/>
</linearGradient>
<linearGradient id="paint61_linear_90_10453" x1="309.76" y1="99.2879" x2="303.37" y2="99.2879" gradientUnits="userSpaceOnUse">
<stop stop-color="#8158D8"/>
<stop offset="1" stop-color="#1A2B66"/>
</linearGradient>
<linearGradient id="paint62_linear_90_10453" x1="305.78" y1="101.379" x2="299.38" y2="101.379" gradientUnits="userSpaceOnUse">
<stop stop-color="#8158D8"/>
<stop offset="1" stop-color="#1A2B66"/>
</linearGradient>
<linearGradient id="paint63_linear_90_10453" x1="301.79" y1="103.47" x2="295.4" y2="103.47" gradientUnits="userSpaceOnUse">
<stop stop-color="#8158D8"/>
<stop offset="1" stop-color="#1A2B66"/>
</linearGradient>
<linearGradient id="paint64_linear_90_10453" x1="297.81" y1="105.562" x2="291.41" y2="105.562" gradientUnits="userSpaceOnUse">
<stop stop-color="#8158D8"/>
<stop offset="1" stop-color="#1A2B66"/>
</linearGradient>
<linearGradient id="paint65_linear_90_10453" x1="293.82" y1="107.653" x2="287.43" y2="107.653" gradientUnits="userSpaceOnUse">
<stop stop-color="#8158D8"/>
<stop offset="1" stop-color="#1A2B66"/>
</linearGradient>
<linearGradient id="paint66_linear_90_10453" x1="289.84" y1="109.735" x2="283.45" y2="109.735" gradientUnits="userSpaceOnUse">
<stop stop-color="#8158D8"/>
<stop offset="1" stop-color="#1A2B66"/>
</linearGradient>
<linearGradient id="paint67_linear_90_10453" x1="285.86" y1="111.826" x2="279.47" y2="111.826" gradientUnits="userSpaceOnUse">
<stop stop-color="#8158D8"/>
<stop offset="1" stop-color="#1A2B66"/>
</linearGradient>
<linearGradient id="paint68_linear_90_10453" x1="281.9" y1="113.927" x2="275.48" y2="113.927" gradientUnits="userSpaceOnUse">
<stop stop-color="#8158D8"/>
<stop offset="1" stop-color="#1A2B66"/>
</linearGradient>
<linearGradient id="paint69_linear_90_10453" x1="277.9" y1="115.621" x2="272.97" y2="115.621" gradientUnits="userSpaceOnUse">
<stop stop-color="#8158D8"/>
<stop offset="1" stop-color="#1A2B66"/>
</linearGradient>
<linearGradient id="paint70_linear_90_10453" x1="275.39" y1="117.784" x2="267.27" y2="117.784" gradientUnits="userSpaceOnUse">
<stop stop-color="#8158D8"/>
<stop offset="1" stop-color="#1A2B66"/>
</linearGradient>
<linearGradient id="paint71_linear_90_10453" x1="330.95" y1="95.3668" x2="322.13" y2="95.3668" gradientUnits="userSpaceOnUse">
<stop stop-color="#8158D8"/>
<stop offset="1" stop-color="#1A2B66"/>
</linearGradient>
<linearGradient id="paint72_linear_90_10453" x1="323.72" y1="98.5128" x2="317.33" y2="98.5128" gradientUnits="userSpaceOnUse">
<stop stop-color="#8158D8"/>
<stop offset="1" stop-color="#1A2B66"/>
</linearGradient>
<linearGradient id="paint73_linear_90_10453" x1="319.74" y1="100.604" x2="313.35" y2="100.604" gradientUnits="userSpaceOnUse">
<stop stop-color="#8158D8"/>
<stop offset="1" stop-color="#1A2B66"/>
</linearGradient>
<linearGradient id="paint74_linear_90_10453" x1="315.76" y1="102.695" x2="309.36" y2="102.695" gradientUnits="userSpaceOnUse">
<stop stop-color="#8158D8"/>
<stop offset="1" stop-color="#1A2B66"/>
</linearGradient>
<linearGradient id="paint75_linear_90_10453" x1="311.77" y1="104.786" x2="305.38" y2="104.786" gradientUnits="userSpaceOnUse">
<stop stop-color="#8158D8"/>
<stop offset="1" stop-color="#1A2B66"/>
</linearGradient>
<linearGradient id="paint76_linear_90_10453" x1="307.79" y1="106.868" x2="301.39" y2="106.868" gradientUnits="userSpaceOnUse">
<stop stop-color="#8158D8"/>
<stop offset="1" stop-color="#1A2B66"/>
</linearGradient>
<linearGradient id="paint77_linear_90_10453" x1="303.8" y1="108.978" x2="297.43" y2="108.978" gradientUnits="userSpaceOnUse">
<stop stop-color="#8158D8"/>
<stop offset="1" stop-color="#1A2B66"/>
</linearGradient>
<linearGradient id="paint78_linear_90_10453" x1="299.76" y1="111.051" x2="293.42" y2="111.051" gradientUnits="userSpaceOnUse">
<stop stop-color="#8158D8"/>
<stop offset="1" stop-color="#1A2B66"/>
</linearGradient>
<linearGradient id="paint79_linear_90_10453" x1="295.84" y1="113.142" x2="289.43" y2="113.142" gradientUnits="userSpaceOnUse">
<stop stop-color="#8158D8"/>
<stop offset="1" stop-color="#1A2B66"/>
</linearGradient>
<linearGradient id="paint80_linear_90_10453" x1="291.85" y1="115.233" x2="285.45" y2="115.233" gradientUnits="userSpaceOnUse">
<stop stop-color="#8158D8"/>
<stop offset="1" stop-color="#1A2B66"/>
</linearGradient>
<linearGradient id="paint81_linear_90_10453" x1="287.87" y1="117.325" x2="281.47" y2="117.325" gradientUnits="userSpaceOnUse">
<stop stop-color="#8158D8"/>
<stop offset="1" stop-color="#1A2B66"/>
</linearGradient>
<linearGradient id="paint82_linear_90_10453" x1="283.45" y1="119.533" x2="277.48" y2="119.533" gradientUnits="userSpaceOnUse">
<stop stop-color="#8158D8"/>
<stop offset="1" stop-color="#1A2B66"/>
</linearGradient>
<linearGradient id="paint83_linear_90_10453" x1="279.89" y1="121.543" x2="273.36" y2="121.543" gradientUnits="userSpaceOnUse">
<stop stop-color="#8158D8"/>
<stop offset="1" stop-color="#1A2B66"/>
</linearGradient>
<linearGradient id="paint84_linear_90_10453" x1="337.04" y1="97.8998" x2="331.28" y2="97.8998" gradientUnits="userSpaceOnUse">
<stop stop-color="#8158D8"/>
<stop offset="1" stop-color="#1A2B66"/>
</linearGradient>
<linearGradient id="paint85_linear_90_10453" x1="333.69" y1="99.8289" x2="327.29" y2="99.8289" gradientUnits="userSpaceOnUse">
<stop stop-color="#8158D8"/>
<stop offset="1" stop-color="#1A2B66"/>
</linearGradient>
<linearGradient id="paint86_linear_90_10453" x1="329.7" y1="101.92" x2="323.31" y2="101.92" gradientUnits="userSpaceOnUse">
<stop stop-color="#8158D8"/>
<stop offset="1" stop-color="#1A2B66"/>
</linearGradient>
<linearGradient id="paint87_linear_90_10453" x1="325.72" y1="104.002" x2="319.33" y2="104.002" gradientUnits="userSpaceOnUse">
<stop stop-color="#8158D8"/>
<stop offset="1" stop-color="#1A2B66"/>
</linearGradient>
<linearGradient id="paint88_linear_90_10453" x1="320.93" y1="109.447" x2="303.35" y2="109.447" gradientUnits="userSpaceOnUse">
<stop stop-color="#8158D8"/>
<stop offset="1" stop-color="#1A2B66"/>
</linearGradient>
<linearGradient id="paint89_linear_90_10453" x1="305.11" y1="114.576" x2="299.48" y2="114.576" gradientUnits="userSpaceOnUse">
<stop stop-color="#8158D8"/>
<stop offset="1" stop-color="#1A2B66"/>
</linearGradient>
<linearGradient id="paint90_linear_90_10453" x1="302.14" y1="116.117" x2="296.55" y2="116.117" gradientUnits="userSpaceOnUse">
<stop stop-color="#8158D8"/>
<stop offset="1" stop-color="#1A2B66"/>
</linearGradient>
<linearGradient id="paint91_linear_90_10453" x1="299.25" y1="117.595" x2="294.02" y2="117.595" gradientUnits="userSpaceOnUse">
<stop stop-color="#8158D8"/>
<stop offset="1" stop-color="#1A2B66"/>
</linearGradient>
<linearGradient id="paint92_linear_90_10453" x1="296.55" y1="118.974" x2="291.43" y2="118.974" gradientUnits="userSpaceOnUse">
<stop stop-color="#8158D8"/>
<stop offset="1" stop-color="#1A2B66"/>
</linearGradient>
<linearGradient id="paint93_linear_90_10453" x1="293.85" y1="121.12" x2="289.06" y2="121.12" gradientUnits="userSpaceOnUse">
<stop stop-color="#8158D8"/>
<stop offset="1" stop-color="#1A2B66"/>
</linearGradient>
<linearGradient id="paint94_linear_90_10453" x1="291.83" y1="119.921" x2="287.04" y2="119.921" gradientUnits="userSpaceOnUse">
<stop stop-color="#8158D8"/>
<stop offset="1" stop-color="#1A2B66"/>
</linearGradient>
<linearGradient id="paint95_linear_90_10453" x1="289.87" y1="122.364" x2="285.05" y2="122.364" gradientUnits="userSpaceOnUse">
<stop stop-color="#8158D8"/>
<stop offset="1" stop-color="#1A2B66"/>
</linearGradient>
<linearGradient id="paint96_linear_90_10453" x1="285.18" y1="125.104" x2="279.46" y2="125.104" gradientUnits="userSpaceOnUse">
<stop stop-color="#8158D8"/>
<stop offset="1" stop-color="#1A2B66"/>
</linearGradient>
<linearGradient id="paint97_linear_90_10453" x1="288.03" y1="123.508" x2="282.41" y2="123.508" gradientUnits="userSpaceOnUse">
<stop stop-color="#8158D8"/>
<stop offset="1" stop-color="#1A2B66"/>
</linearGradient>
<linearGradient id="paint98_linear_90_10453" x1="329.24" y1="114.296" x2="309.82" y2="114.296" gradientUnits="userSpaceOnUse">
<stop stop-color="#8158D8"/>
<stop offset="1" stop-color="#1A2B66"/>
</linearGradient>
<linearGradient id="paint99_linear_90_10453" x1="331.23" y1="116.297" x2="315.34" y2="116.297" gradientUnits="userSpaceOnUse">
<stop stop-color="#8158D8"/>
<stop offset="1" stop-color="#1A2B66"/>
</linearGradient>
<linearGradient id="paint100_linear_90_10453" x1="303.35" y1="72.1021" x2="256.607" y2="49.1509" gradientUnits="userSpaceOnUse">
<stop stop-color="#9465F8"/>
<stop offset="1" stop-color="#223886"/>
</linearGradient>
<linearGradient id="paint101_linear_90_10453" x1="275.85" y1="84.7578" x2="242.501" y2="57.5511" gradientUnits="userSpaceOnUse">
<stop stop-color="#9465F8"/>
<stop offset="1" stop-color="#223886"/>
</linearGradient>
<linearGradient id="paint102_linear_90_10453" x1="291.98" y1="75.32" x2="256.199" y2="51.9951" gradientUnits="userSpaceOnUse">
<stop stop-color="#9465F8"/>
<stop offset="1" stop-color="#223886"/>
</linearGradient>
<linearGradient id="paint103_linear_90_10453" x1="196.66" y1="43.0955" x2="228.602" y2="27.5645" gradientUnits="userSpaceOnUse">
<stop stop-color="#6773AF"/>
<stop offset="1" stop-color="#C9DCFF"/>
</linearGradient>
<linearGradient id="paint104_linear_90_10453" x1="229.66" y1="31.8912" x2="203.247" y2="41.0026" gradientUnits="userSpaceOnUse">
<stop stop-color="#8158D8"/>
<stop offset="1" stop-color="#1A2B66"/>
</linearGradient>
<linearGradient id="paint105_linear_90_10453" x1="216.3" y1="44.9611" x2="235.208" y2="25.1956" gradientUnits="userSpaceOnUse">
<stop stop-color="#8158D8"/>
<stop offset="1" stop-color="#1A2B66"/>
</linearGradient>
<linearGradient id="paint106_linear_90_10453" x1="210.88" y1="35.4334" x2="232.092" y2="14.4477" gradientUnits="userSpaceOnUse">
<stop stop-color="#8158D8"/>
<stop offset="1" stop-color="#1A2B66"/>
</linearGradient>
<linearGradient id="paint107_linear_90_10453" x1="217.51" y1="47.7916" x2="231.024" y2="33.67" gradientUnits="userSpaceOnUse">
<stop stop-color="#8158D8"/>
<stop offset="1" stop-color="#1A2B66"/>
</linearGradient>
<linearGradient id="paint108_linear_90_10453" x1="210.71" y1="28.7904" x2="227.552" y2="11.1864" gradientUnits="userSpaceOnUse">
<stop stop-color="#8158D8"/>
<stop offset="1" stop-color="#1A2B66"/>
</linearGradient>
<linearGradient id="paint109_linear_90_10453" x1="183.1" y1="159.356" x2="242.635" y2="130.402" gradientUnits="userSpaceOnUse">
<stop stop-color="#6773AF"/>
<stop offset="1" stop-color="#C9DCFF"/>
</linearGradient>
<linearGradient id="paint110_linear_90_10453" x1="248.24" y1="137.399" x2="193.141" y2="156.404" gradientUnits="userSpaceOnUse">
<stop stop-color="#6773AF"/>
<stop offset="1" stop-color="#C9DCFF"/>
</linearGradient>
<linearGradient id="paint111_linear_90_10453" x1="245.97" y1="138.03" x2="194.821" y2="155.676" gradientUnits="userSpaceOnUse">
<stop stop-color="#8158D8"/>
<stop offset="1" stop-color="#1A2B66"/>
</linearGradient>
<linearGradient id="paint112_linear_90_10453" x1="220.73" y1="121.047" x2="187.385" y2="161.87" gradientUnits="userSpaceOnUse">
<stop stop-color="#8158D8"/>
<stop offset="1" stop-color="#1A2B66"/>
</linearGradient>
<linearGradient id="paint113_linear_90_10453" x1="233.6" y1="138.913" x2="202.687" y2="169.993" gradientUnits="userSpaceOnUse">
<stop stop-color="#8158D8"/>
<stop offset="1" stop-color="#1A2B66"/>
</linearGradient>
<linearGradient id="paint114_linear_90_10453" x1="262.86" y1="2.98359" x2="260.057" y2="202.803" gradientUnits="userSpaceOnUse">
<stop stop-color="#5669FC" stop-opacity="0"/>
<stop offset="1" stop-color="#4E2FA6"/>
</linearGradient>
<linearGradient id="paint115_linear_90_10453" x1="165.435" y1="5.82652" x2="183.939" y2="83.3894" gradientUnits="userSpaceOnUse">
<stop stop-color="#5669FC" stop-opacity="0"/>
<stop offset="0.3" stop-color="#5568FA" stop-opacity="0.01"/>
<stop offset="0.46" stop-color="#5565F6" stop-opacity="0.06"/>
<stop offset="0.58" stop-color="#5460EF" stop-opacity="0.14"/>
<stop offset="0.68" stop-color="#535AE6" stop-opacity="0.26"/>
<stop offset="0.78" stop-color="#5251D9" stop-opacity="0.4"/>
<stop offset="0.86" stop-color="#5146C9" stop-opacity="0.59"/>
<stop offset="0.94" stop-color="#4F3AB7" stop-opacity="0.8"/>
<stop offset="1" stop-color="#4E2FA6"/>
</linearGradient>
<linearGradient id="paint116_linear_90_10453" x1="328.799" y1="29.0565" x2="320.268" y2="64.8383" gradientUnits="userSpaceOnUse">
<stop stop-color="#5669FC" stop-opacity="0"/>
<stop offset="0.3" stop-color="#5568FA" stop-opacity="0.01"/>
<stop offset="0.46" stop-color="#5565F6" stop-opacity="0.06"/>
<stop offset="0.58" stop-color="#5460EF" stop-opacity="0.14"/>
<stop offset="0.68" stop-color="#535AE6" stop-opacity="0.26"/>
<stop offset="0.78" stop-color="#5251D9" stop-opacity="0.4"/>
<stop offset="0.86" stop-color="#5146C9" stop-opacity="0.59"/>
<stop offset="0.94" stop-color="#4F3AB7" stop-opacity="0.8"/>
<stop offset="1" stop-color="#4E2FA6"/>
</linearGradient>
<linearGradient id="paint117_linear_90_10453" x1="357.922" y1="18.9425" x2="349.382" y2="54.7255" gradientUnits="userSpaceOnUse">
<stop stop-color="#5669FC" stop-opacity="0"/>
<stop offset="0.3" stop-color="#5568FA" stop-opacity="0.01"/>
<stop offset="0.46" stop-color="#5565F6" stop-opacity="0.06"/>
<stop offset="0.58" stop-color="#5460EF" stop-opacity="0.14"/>
<stop offset="0.68" stop-color="#535AE6" stop-opacity="0.26"/>
<stop offset="0.78" stop-color="#5251D9" stop-opacity="0.4"/>
<stop offset="0.86" stop-color="#5146C9" stop-opacity="0.59"/>
<stop offset="0.94" stop-color="#4F3AB7" stop-opacity="0.8"/>
<stop offset="1" stop-color="#4E2FA6"/>
</linearGradient>
<linearGradient id="paint118_linear_90_10453" x1="218.809" y1="83.2769" x2="227.349" y2="119.06" gradientUnits="userSpaceOnUse">
<stop stop-color="#5669FC" stop-opacity="0"/>
<stop offset="0.3" stop-color="#5568FA" stop-opacity="0.01"/>
<stop offset="0.46" stop-color="#5565F6" stop-opacity="0.06"/>
<stop offset="0.58" stop-color="#5460EF" stop-opacity="0.14"/>
<stop offset="0.68" stop-color="#535AE6" stop-opacity="0.26"/>
<stop offset="0.78" stop-color="#5251D9" stop-opacity="0.4"/>
<stop offset="0.86" stop-color="#5146C9" stop-opacity="0.59"/>
<stop offset="0.94" stop-color="#4F3AB7" stop-opacity="0.8"/>
<stop offset="1" stop-color="#4E2FA6"/>
</linearGradient>
<linearGradient id="paint119_linear_90_10453" x1="204.95" y1="49.9955" x2="209.22" y2="67.887" gradientUnits="userSpaceOnUse">
<stop stop-color="#5669FC" stop-opacity="0"/>
<stop offset="0.3" stop-color="#5568FA" stop-opacity="0.01"/>
<stop offset="0.46" stop-color="#5565F6" stop-opacity="0.06"/>
<stop offset="0.58" stop-color="#5460EF" stop-opacity="0.14"/>
<stop offset="0.68" stop-color="#535AE6" stop-opacity="0.26"/>
<stop offset="0.78" stop-color="#5251D9" stop-opacity="0.4"/>
<stop offset="0.86" stop-color="#5146C9" stop-opacity="0.59"/>
<stop offset="0.94" stop-color="#4F3AB7" stop-opacity="0.8"/>
<stop offset="1" stop-color="#4E2FA6"/>
</linearGradient>
<linearGradient id="paint120_linear_90_10453" x1="186.19" y1="73.588" x2="202.155" y2="171.687" gradientUnits="userSpaceOnUse">
<stop stop-color="#5669FC" stop-opacity="0"/>
<stop offset="1" stop-color="#4E2FA6"/>
</linearGradient>
<linearGradient id="paint121_linear_90_10453" x1="284.77" y1="202.641" x2="295.662" y2="128.969" gradientUnits="userSpaceOnUse">
<stop stop-color="#5669FC" stop-opacity="0"/>
<stop offset="1" stop-color="#4E2FA6"/>
</linearGradient>
<linearGradient id="paint122_linear_90_10453" x1="340.096" y1="64.533" x2="321.949" y2="176.063" gradientUnits="userSpaceOnUse">
<stop stop-color="#5669FC" stop-opacity="0"/>
<stop offset="1" stop-color="#4E2FA6"/>
</linearGradient>
</defs>
</svg>
