<svg width="1280" height="720" viewBox="0 0 1280 720" fill="none" xmlns="http://www.w3.org/2000/svg">
<g opacity="0.15" clip-path="url(#clip0_64_1528)">
<path style="mix-blend-mode:overlay" opacity="0.77" d="M1280 858.352L1276.24 860.547L1228.2 832.595V776.708L1276.24 748.755L1280 750.95V749.366L1276.9 747.567V691.68L1280 689.881V688.33L1276.24 690.525L1228.2 662.573V606.685L1276.24 578.733L1280 580.928V579.344L1276.9 577.545V521.658L1280 519.859V518.308L1276.24 520.503L1228.2 492.551V436.663L1276.24 408.711L1280 410.906V409.322L1276.9 407.523V351.635L1280 349.837V348.286L1276.24 350.48L1228.2 322.528V266.641L1276.24 238.689L1280 240.883V239.299L1276.9 237.501V181.613L1280 179.815V178.264L1276.24 180.458L1228.2 152.506V96.5031L1276.24 68.5511L1280 70.7456V69.1946L1276.24 67L1227.53 95.348L1178.82 67L1130.11 95.348L1081.4 67L1032.69 95.348L983.979 67L935.27 95.348L886.56 67L837.851 95.348L789.141 67L740.432 95.348L691.722 67L643.012 95.348L594.303 67L545.593 95.348L496.884 67L448.174 95.348L399.465 67L350.755 95.348L302.045 67L253.336 95.348L204.626 67L155.917 95.348L107.158 67L58.4482 95.348L9.73861 67L0 72.6597V74.2108L9.73861 68.5511L57.7714 96.5031V152.424L9.73861 180.376L0 174.716V176.267L9.06186 181.547V237.435L0 242.715V244.299L9.73861 238.639L57.7714 266.591V322.479L9.73861 350.431L0 344.771V346.322L9.06186 351.602V407.49L0 412.77V414.354L9.73861 408.695L57.7714 436.647V492.534L9.73861 520.486L0 514.826V516.377L9.06186 521.658V577.545L0 582.825V584.409L9.73861 578.75L57.7714 606.702V662.589L9.73861 690.541L0 684.882V686.433L9.06186 691.713V747.6L0 752.881V754.465L9.73861 748.805L57.7714 776.757V832.645L9.73861 860.597L0 854.937V856.488L9.06186 861.768V900H10.3989V861.768L58.4317 833.816L106.464 861.768V900H107.801V861.768L155.834 833.816L203.867 861.768V900H205.204V861.768L253.237 833.816L301.286 861.768V900H302.623V861.768L350.673 833.816L398.705 861.768V900H400.042V861.768L448.075 833.816L496.108 861.768V900H497.445V861.768L545.478 833.816L593.511 861.768V900H594.848V861.768L642.897 833.816L690.93 861.768V900H692.267V861.768L740.299 833.816L788.332 861.768V900H789.669V861.768L837.702 833.816L885.735 861.768V900H887.072V861.768L935.105 833.816L983.138 861.768V900H984.475V861.768L1032.51 833.816L1080.56 861.768V900H1081.89V861.768L1129.93 833.816L1177.96 861.768V900H1179.3V861.768L1227.33 833.816L1275.36 861.768V900H1276.7V861.768L1279.8 859.97V858.418L1280 858.352ZM1275.56 521.625V577.512L1227.53 605.464L1179.49 577.512V521.625L1227.53 493.673L1275.56 521.625ZM1130.77 322.462V266.575L1178.82 238.623L1226.85 266.575V322.462L1178.82 350.414L1130.77 322.462ZM1226.85 436.614V492.501L1178.82 520.453L1130.77 492.501V436.614L1178.82 408.662L1226.85 436.614ZM1178.14 351.569V407.457L1130.09 435.409L1082.06 407.457V351.569L1130.09 323.617L1178.12 351.569H1178.14ZM1129.43 436.597V492.485L1081.4 520.437L1033.37 492.485V436.597L1081.41 408.645L1129.45 436.597H1129.43ZM1129.43 322.446L1081.4 350.398L1033.37 322.446V266.558L1081.41 238.606L1129.45 266.558V322.446H1129.43ZM1080.72 351.569V407.457L1032.67 435.409L984.64 407.457V351.569L1032.67 323.617L1080.72 351.569ZM1032.01 436.614V492.501L983.979 520.453L935.947 492.501V436.614L983.979 408.662L1032.01 436.614ZM1032.01 322.462L983.979 350.414L935.947 322.462V266.575L983.979 238.623L1032.01 266.575V322.462ZM983.303 351.586V407.473L935.27 435.425L887.237 407.473V351.586L935.27 323.634L983.303 351.586ZM934.593 436.63V492.518L886.544 520.47L838.511 492.518V436.63L886.544 408.678L934.593 436.63ZM934.593 322.479L886.544 350.431L838.511 322.479V266.591L886.544 238.639L934.593 266.591V322.479ZM885.883 351.602V407.49L837.851 435.442L789.818 407.49V351.602L837.851 323.65L885.883 351.602ZM837.174 436.647V492.534L789.141 520.486L741.108 492.534V436.647L789.141 408.695L837.174 436.647ZM837.174 322.495L789.141 350.447L741.108 322.495V266.608L789.141 238.656L837.174 266.608V322.495ZM788.464 351.619V407.506L740.415 435.458L692.382 407.506V351.619L740.415 323.667L788.448 351.619H788.464ZM739.755 436.647V492.534L691.705 520.486L643.673 492.534V436.647L691.722 408.695L739.755 436.647ZM739.755 322.495L691.705 350.447L643.673 322.495V266.608L691.722 238.656L739.755 266.608V322.495ZM691.045 351.619V407.506L643.012 435.458L594.963 407.506V351.619L643.012 323.667L691.045 351.619ZM642.336 436.663V492.551L594.303 520.503L546.254 492.551V436.663L594.303 408.711L642.336 436.663ZM642.336 322.512L594.303 350.464L546.254 322.512V266.624L594.303 238.672L642.336 266.624V322.512ZM593.626 351.635V407.523L545.593 435.475L497.56 407.523V351.635L545.593 323.683L593.626 351.635ZM544.917 436.68V492.567L496.884 520.519L448.851 492.567V436.68L496.884 408.728L544.917 436.68ZM544.917 322.528L496.884 350.48L448.851 322.528V266.641L496.884 238.689L544.917 266.641V322.528ZM496.207 351.652V407.539L448.174 435.492L400.141 407.539V351.652L448.174 323.7L496.207 351.652ZM447.497 436.696V492.584L399.448 520.536L351.415 492.584V436.696L399.465 408.744L447.497 436.696ZM447.497 322.545L399.448 350.497L351.415 322.545V266.657L399.465 238.705L447.497 266.657V322.545ZM398.788 351.668V407.556L350.739 435.508L302.706 407.556V351.668L350.755 323.716L398.788 351.668ZM350.078 436.696V492.584L302.045 520.536L254.013 492.584V436.696L302.062 408.744L350.095 436.696H350.078ZM350.078 322.545L302.045 350.497L254.013 322.545V266.657L302.062 238.705L350.095 266.657V322.545H350.078ZM301.369 351.668V407.556L253.319 435.508L205.287 407.556V351.668L253.319 323.716L301.369 351.668ZM252.659 436.713V492.6L204.626 520.552L156.594 492.6V436.713L204.626 408.761L252.659 436.713ZM252.659 322.561L204.626 350.513L156.594 322.561V266.674L204.626 238.722L252.659 266.674V322.561ZM203.95 351.685V407.572L155.917 435.524L107.884 407.572V351.685L155.917 323.733L203.95 351.685ZM155.24 322.561L107.207 350.513L59.1744 322.561V266.674L107.207 238.722L155.24 266.674V322.561ZM155.24 436.713V492.6L107.207 520.552L59.1744 492.6V436.713L107.207 408.761L155.24 436.713ZM155.24 606.751V662.639L107.207 690.591L59.1744 662.639V606.751L107.207 578.799L155.24 606.751ZM107.867 577.595V521.707L155.9 493.755L203.933 521.707V577.595L155.9 605.547L107.867 577.595ZM156.577 606.751L204.61 578.799L252.643 606.751V662.639L204.61 690.591L156.577 662.639V606.751ZM205.287 577.595V521.707L253.319 493.755L301.369 521.707V577.595L253.319 605.547L205.287 577.595ZM253.996 606.751L302.045 578.799L350.078 606.751V662.639L302.045 690.591L254.013 662.639V606.751H253.996ZM302.706 577.611V521.724L350.755 493.772L398.788 521.724V577.611L350.739 605.563L302.706 577.611ZM351.415 606.768L399.465 578.816L447.497 606.768V662.655L399.448 690.607L351.415 662.655V606.768ZM400.125 577.611V521.724L448.158 493.772L496.19 521.724V577.611L448.158 605.563L400.125 577.611ZM448.834 606.751L496.867 578.799L544.9 606.751V662.639L496.867 690.591L448.834 662.639V606.751ZM497.544 577.595V521.707L545.577 493.755L593.61 521.707V577.595L545.577 605.547L497.544 577.595ZM546.254 606.751L594.303 578.799L642.336 606.751V662.639L594.303 690.591L546.254 662.639V606.751ZM594.963 577.595V521.707L643.012 493.755L691.045 521.707V577.595L643.012 605.547L594.963 577.595ZM643.673 606.751L691.722 578.799L739.755 606.751V662.639L691.705 690.591L643.673 662.639V606.751ZM692.382 577.611V521.724L740.415 493.772L788.448 521.724V577.611L740.399 605.563L692.366 577.611H692.382ZM741.092 606.751L789.125 578.799L837.157 606.751V662.639L789.125 690.591L741.092 662.639V606.751ZM789.801 577.595V521.707L837.834 493.755L885.867 521.707V577.595L837.834 605.547L789.801 577.595ZM838.511 606.751L886.544 578.799L934.593 606.751V662.639L886.544 690.591L838.511 662.639V606.751ZM887.22 577.595V521.707L935.253 493.755L983.286 521.707V577.595L935.253 605.547L887.22 577.595ZM935.93 606.751L983.963 578.799L1032 606.751V662.639L983.963 690.591L935.93 662.639V606.751ZM984.64 577.595V521.707L1032.67 493.755L1080.72 521.707V577.595L1032.67 605.547L984.64 577.595ZM1033.35 606.751L1081.4 578.799L1129.43 606.751V662.639L1081.4 690.591L1033.37 662.639V606.751H1033.35ZM1082.06 577.611V521.724L1130.09 493.772L1178.12 521.724V577.611L1130.08 605.563L1082.04 577.611H1082.06ZM1130.77 606.768L1178.82 578.816L1226.85 606.768V662.655L1178.82 690.607L1130.77 662.655V606.768ZM1275.56 351.685V407.572L1227.53 435.524L1179.49 407.572V351.685L1227.53 323.733L1275.56 351.685ZM1275.56 181.646V237.534L1227.53 265.486L1179.49 237.534V181.646L1227.53 153.694L1275.56 181.646ZM1130.77 96.6021L1178.82 68.6501L1226.85 96.6021V152.523L1178.82 180.475L1130.77 152.523V96.5031V96.6021ZM1130.09 153.678L1178.12 181.63V237.517L1130.08 265.469L1082.04 237.517V181.63L1130.08 153.678H1130.09ZM1033.33 96.6021L1081.37 68.6501L1129.4 96.6021V152.523L1081.37 180.475L1033.33 152.523V96.5031V96.6021ZM1080.71 181.646V237.534L1032.66 265.486L984.623 237.534V181.646L1032.66 153.694L1080.71 181.646ZM935.914 96.6021L983.946 68.6501L1031.98 96.6021V152.523L983.946 180.475L935.914 152.523V96.5031V96.6021ZM983.286 181.646V237.534L935.253 265.486L887.22 237.534V181.646L935.253 153.694L983.286 181.646ZM838.494 96.6021L886.527 68.6501L934.577 96.6021V152.523L886.527 180.475L838.494 152.523V96.5031V96.6021ZM885.867 181.646V237.534L837.834 265.486L789.801 237.534V181.646L837.834 153.694L885.867 181.646ZM741.075 96.6021L789.108 68.6501L837.141 96.6021V152.523L789.108 180.475L741.075 152.523V96.5031V96.6021ZM740.399 153.678L788.431 181.63V237.517L740.382 265.469L692.349 237.517V181.63L740.382 153.678H740.399ZM643.64 96.6021L691.672 68.6501L739.722 96.6021V152.523L691.672 180.475L643.64 152.523V96.5031V96.6021ZM691.012 181.646V237.534L642.979 265.486L594.93 237.534V181.646L642.979 153.694L691.012 181.646ZM546.221 96.6021L594.27 68.6501L642.303 96.6021V152.523L594.27 180.475L546.221 152.523V96.5031V96.6021ZM593.593 181.646V237.534L545.56 265.486L497.527 237.534V181.646L545.56 153.694L593.593 181.646ZM448.801 96.6021L496.834 68.6501L544.867 96.6021V152.523L496.834 180.475L448.801 152.523V96.5031V96.6021ZM496.174 181.646V237.534L448.141 265.486L400.108 237.534V181.646L448.141 153.694L496.174 181.646ZM351.382 96.6021L399.415 68.6501L447.464 96.6021V152.523L399.415 180.475L351.382 152.523V96.5031V96.6021ZM350.706 153.678L398.738 181.63V237.517L350.689 265.469L302.656 237.517V181.63L350.706 153.678ZM253.947 96.6021L301.979 68.6501L350.012 96.6021V152.523L301.979 180.475L253.947 152.523V96.5031V96.6021ZM301.319 181.646V237.534L253.27 265.486L205.237 237.534V181.646L253.27 153.694L301.319 181.646ZM156.544 96.5031L204.577 68.5511L252.61 96.5031V152.424L204.577 180.376L156.544 152.424V96.5031ZM203.917 181.547V237.435L155.884 265.387L107.851 237.435V181.547L155.884 153.595L203.917 181.547ZM59.1249 96.5031L107.158 68.5511L155.191 96.5031V152.424L107.158 180.376L59.1249 152.424V96.5031ZM10.4154 237.418V181.531L58.4482 153.579L106.481 181.531V237.418L58.4482 265.37L10.4154 237.418ZM10.4154 407.457V351.569L58.4482 323.617L106.481 351.569V407.457L58.4482 435.409L10.4154 407.457ZM10.4154 577.496V521.608L58.4482 493.656L106.481 521.608V577.496L58.4482 605.448L10.4154 577.496ZM10.4154 747.534V691.647L58.4482 663.695L106.481 691.647V747.534L58.4482 775.486L10.4154 747.534ZM155.207 832.579L107.174 860.531L59.1414 832.579V776.691L107.174 748.739L155.207 776.691V832.579ZM107.834 747.534V691.647L155.867 663.695L203.9 691.647V747.534L155.867 775.486L107.834 747.534ZM252.626 832.579L204.593 860.531L156.561 832.579V776.691L204.593 748.739L252.626 776.691V832.579ZM205.254 747.534V691.647L253.286 663.695L301.336 691.647V747.534L253.286 775.486L205.254 747.534ZM350.045 832.579L302.012 860.531L253.98 832.579V776.691L302.029 748.739L350.062 776.691V832.579H350.045ZM350.722 775.503L302.689 747.551V691.663L350.739 663.711L398.771 691.663V747.551L350.722 775.503ZM447.481 832.579L399.432 860.531L351.399 832.579V776.691L399.448 748.739L447.481 776.691V832.579ZM400.108 747.551V691.663L448.141 663.711L496.174 691.663V747.551L448.141 775.503L400.108 747.551ZM544.9 832.579L496.867 860.531L448.834 832.579V776.691L496.867 748.739L544.9 776.691V832.579ZM497.527 747.534V691.647L545.56 663.695L593.593 691.647V747.534L545.56 775.486L497.527 747.534ZM642.319 832.579L594.286 860.531L546.237 832.579V776.691L594.286 748.739L642.319 776.691V832.579ZM594.947 747.534V691.647L642.996 663.695L691.029 691.647V747.534L642.996 775.486L594.947 747.534ZM739.738 832.579L691.689 860.531L643.656 832.579V776.691L691.705 748.739L739.738 776.691V832.579ZM740.415 775.503L692.382 747.551V691.663L740.415 663.711L788.448 691.663V747.551L740.399 775.503H740.415ZM837.174 832.579L789.141 860.531L741.108 832.579V776.691L789.141 748.739L837.174 776.691V832.579ZM789.801 747.534V691.647L837.834 663.695L885.867 691.647V747.534L837.834 775.486L789.801 747.534ZM934.593 832.579L886.544 860.531L838.511 832.579V776.691L886.544 748.739L934.593 776.691V832.579ZM887.22 747.534V691.647L935.253 663.695L983.286 691.647V747.534L935.253 775.486L887.22 747.534ZM1032.01 832.579L983.979 860.531L935.947 832.579V776.691L983.979 748.739L1032.01 776.691V832.579ZM984.64 747.534V691.647L1032.67 663.695L1080.72 691.647V747.534L1032.67 775.486L984.64 747.534ZM1129.43 832.579L1081.4 860.531L1033.37 832.579V776.691L1081.41 748.739L1129.45 776.691V832.579H1129.43ZM1130.11 775.503L1082.08 747.551V691.663L1130.11 663.711L1178.14 691.663V747.551L1130.09 775.503H1130.11ZM1226.87 832.579L1178.83 860.531L1130.78 832.579V776.691L1178.83 748.739L1226.87 776.691V832.579ZM1179.49 747.534V691.647L1227.53 663.695L1275.56 691.647V747.534L1227.53 775.486L1179.49 747.534Z" fill="url(#paint0_linear_64_1528)"/>
<path style="mix-blend-mode:overlay" opacity="0.3" d="M1280 863.905L1275.33 861.181V805.256L1280 802.531V800.979L1274.65 804.083L1226.61 776.112V720.187L1274.65 692.216L1280 695.32V693.735L1275.33 691.011V635.085L1280 632.361V630.809L1274.65 633.913L1226.61 605.942V550.017L1274.65 522.046L1280 525.15V523.565L1275.33 520.841V464.915L1280 462.191V460.639L1274.65 463.743L1226.61 435.772V379.847L1274.65 351.876L1280 354.98V353.395L1275.33 350.67V294.745L1280 292.021V290.469L1274.65 293.573L1226.61 265.602V209.677L1274.65 181.706L1280 184.81V183.225L1275.33 180.5V124.575L1280 121.851V120.299L1274.65 123.403L1226.61 95.4318V39.5395L1274.65 11.5686L1280 14.6728V13.1207L1274.65 10.0165L1225.95 38.3837L1177.24 10.0165L1128.53 38.3837L1079.82 10.0165L1031.12 38.3837L982.41 10.0165L933.703 38.3837L884.996 10.0165L836.289 38.3837L787.582 10.0165L738.875 38.3837L690.168 10.0165L641.461 38.3837L592.754 10.0165L544.047 38.3837L495.34 10.0165L446.633 38.3837L397.926 10.0165L349.218 38.3837L300.511 10.0165L251.804 38.3837L203.097 10.0165L154.39 38.3837L105.683 10.0165L56.9432 38.3672L8.23613 10L0.0825267 14.7389V16.291L8.23613 11.5521L56.2665 39.5395V95.4979L8.21962 123.469L0.066021 118.73V120.282L7.54291 124.641V180.566L0.066021 184.925V186.511L8.21962 181.755L56.25 209.726V265.651L8.20312 293.622L0.0495154 288.883V290.436L7.5264 294.795V350.72L0.0495154 355.079V356.664L8.20312 351.909L56.2335 379.88V435.805L8.18661 463.776L0.0330097 459.037V460.589L7.5099 464.948V520.874L0.0330097 525.233V526.818L8.18661 522.063L56.2169 550.033V605.959L8.17011 633.93L0.0165056 629.191V630.743L7.49339 635.102V691.027L0.0165056 695.386V696.971L8.17011 692.216L56.2004 720.187V776.112L8.1536 804.083L0 799.328V800.88L7.47689 805.239V861.164L0 865.523V867.109L8.1536 862.353L56.1839 890.324V900H57.5209V890.324L105.551 862.353L153.582 890.324V900H154.918V890.324L202.949 862.353L250.979 890.324V900H252.316V890.324L300.346 862.353L348.377 890.324V900H349.714V890.324L397.76 862.353L445.791 890.324V900H447.128V890.324L495.175 862.353L543.205 890.324V900H544.542V890.324L592.572 862.353L640.602 890.324V900H641.939V890.324L689.97 862.353L738 890.324V900H739.337V890.324L787.384 862.353L835.414 890.324V900H836.751V890.324L884.781 862.353L932.812 890.324V900H934.149V890.324L982.179 862.353L1030.21 890.324V900H1031.55V890.324L1079.58 862.353L1127.61 890.324V900H1128.94V890.324L1176.99 862.353L1225.02 890.324V900H1226.36V890.324L1274.4 862.353L1279.75 865.457V863.872L1280 863.905ZM1273.99 635.102V691.027L1225.95 718.998L1177.91 691.027V635.102L1225.95 607.131L1273.98 635.102H1273.99ZM155.017 435.805V379.88L203.048 351.909L251.078 379.88V435.805L203.048 463.776L155.017 435.805ZM202.388 464.948V520.874L154.357 548.845L106.327 520.874V464.948L154.357 436.977L202.388 464.948ZM203.725 464.948L251.755 436.977L299.785 464.948V520.874L251.755 548.845L203.725 520.874V464.948ZM252.432 435.805V379.88L300.462 351.909L348.492 379.88V435.805L300.462 463.776L252.432 435.805ZM301.139 464.948L349.169 436.977L397.216 464.948V520.874L349.169 548.845L301.139 520.874V464.948ZM349.846 435.805V379.88L397.893 351.909L445.923 379.88V435.805L397.893 463.776L349.862 435.805H349.846ZM398.553 464.948L446.583 436.977L494.613 464.948V520.874L446.567 548.845L398.536 520.874V464.948H398.553ZM447.26 435.805V379.88L495.307 351.909L543.337 379.88V435.805L495.29 463.776L447.26 435.805ZM495.967 464.948L543.997 436.977L592.027 464.948V520.874L543.997 548.845L495.967 520.874V464.948ZM544.674 435.805V379.88L592.704 351.909L640.735 379.88V435.805L592.704 463.776L544.674 435.805ZM593.381 464.948L641.411 436.977L689.442 464.948V520.874L641.411 548.845L593.381 520.874V464.948ZM642.088 435.805V379.88L690.118 351.909L738.149 379.88V435.805L690.118 463.776L642.088 435.805ZM690.795 464.948L738.825 436.977L786.856 464.948V520.874L738.825 548.845L690.795 520.874V464.948ZM739.502 435.805V379.88L787.549 351.909L835.579 379.88V435.805L787.549 463.776L739.519 435.805H739.502ZM788.209 464.948L836.239 436.977L884.27 464.948V520.874L836.223 548.845L788.193 520.874V464.948H788.209ZM836.916 435.805V379.88L884.946 351.909L932.977 379.88V435.805L884.946 463.776L836.916 435.805ZM885.623 464.948L933.654 436.977L981.684 464.948V520.874L933.654 548.845L885.623 520.874V464.948ZM934.33 435.805V379.88L982.361 351.909L1030.39 379.88V435.805L982.361 463.776L934.33 435.805ZM983.037 464.948L1031.08 436.977L1079.11 464.948V520.874L1031.08 548.845L983.037 520.874V464.948ZM1031.74 435.805V379.88L1079.77 351.909L1127.8 379.88V435.805L1079.77 463.776L1031.74 435.805ZM1080.45 464.948L1128.48 436.977L1176.53 464.948V520.874L1128.48 548.845L1080.45 520.874V464.948ZM1129.16 435.805V379.88L1177.21 351.909L1225.24 379.88V435.805L1177.21 463.776L1129.17 435.805H1129.16ZM1177.19 293.622L1129.16 265.651V209.726L1177.21 181.755L1225.24 209.726V265.651L1177.21 293.622H1177.19ZM1176.51 294.778V350.703L1128.47 378.674L1080.43 350.703V294.778L1128.47 266.807L1176.51 294.778ZM1127.8 265.635L1079.77 293.606L1031.74 265.635V209.71L1079.77 181.739L1127.8 209.71V265.635ZM1079.1 294.778V350.703L1031.07 378.674L983.021 350.703V294.778L1031.07 266.807L1079.1 294.778ZM1030.39 265.635L982.361 293.606L934.33 265.635V209.71L982.361 181.739L1030.39 209.71V265.635ZM981.684 294.778V350.703L933.654 378.674L885.623 350.703V294.778L933.654 266.807L981.684 294.778ZM932.977 265.635L884.946 293.606L836.916 265.635V209.71L884.946 181.739L932.977 209.71V265.635ZM884.27 294.778V350.703L836.223 378.674L788.193 350.703V294.778L836.223 266.807L884.253 294.778H884.27ZM835.563 265.635L787.532 293.606L739.502 265.635V209.71L787.549 181.739L835.579 209.71V265.635H835.563ZM786.856 294.778V350.703L738.825 378.674L690.795 350.703V294.778L738.825 266.807L786.856 294.778ZM738.149 265.635L690.118 293.606L642.088 265.635V209.71L690.118 181.739L738.149 209.71V265.635ZM689.442 294.778V350.703L641.411 378.674L593.381 350.703V294.778L641.411 266.807L689.442 294.778ZM640.735 265.635L592.704 293.606L544.674 265.635V209.71L592.704 181.739L640.735 209.71V265.635ZM592.027 294.778V350.703L543.997 378.674L495.967 350.703V294.778L543.997 266.807L592.027 294.778ZM543.32 265.635L495.274 293.606L447.243 265.635V209.71L495.29 181.739L543.32 209.71V265.635ZM494.613 294.778V350.703L446.567 378.674L398.536 350.703V294.778L446.567 266.807L494.597 294.778H494.613ZM445.906 265.635L397.876 293.606L349.846 265.635V209.71L397.893 181.739L445.923 209.71V265.635H445.906ZM397.199 294.778V350.703L349.152 378.674L301.122 350.703V294.778L349.152 266.807L397.199 294.778ZM348.492 265.635L300.462 293.606L252.432 265.635V209.71L300.462 181.739L348.492 209.71V265.635ZM299.785 294.778V350.703L251.755 378.674L203.725 350.703V294.778L251.755 266.807L299.785 294.778ZM251.078 265.635L203.048 293.606L155.017 265.635V209.71L203.048 181.739L251.078 209.71V265.635ZM202.371 294.778V350.703L154.341 378.674L106.31 350.703V294.778L154.341 266.807L202.371 294.778ZM153.664 265.635L105.634 293.606L57.6034 265.635V209.71L105.634 181.739L153.664 209.71V265.635ZM153.664 379.863V435.789L105.634 463.759L57.6034 435.789V379.863L105.634 351.892L153.664 379.863ZM153.664 550.017V605.942L105.634 633.913L57.6034 605.942V550.017L105.634 522.046L153.664 550.017ZM106.294 635.085L154.324 607.115L202.355 635.085V691.011L154.324 718.982L106.294 691.011V635.085ZM155.001 605.942V550.017L203.031 522.046L251.062 550.017V605.942L203.031 633.913L155.001 605.942ZM203.708 635.085L251.738 607.115L299.769 635.085V691.011L251.738 718.982L203.708 691.011V635.085ZM252.415 605.942V550.017L300.445 522.046L348.476 550.017V605.942L300.445 633.913L252.415 605.942ZM301.122 635.085L349.152 607.115L397.199 635.085V691.011L349.152 718.982L301.122 691.011V635.085ZM349.829 605.942V550.017L397.876 522.046L445.906 550.017V605.942L397.876 633.913L349.846 605.942H349.829ZM398.536 635.085L446.567 607.115L494.597 635.085V691.011L446.55 718.982L398.52 691.011V635.085H398.536ZM447.243 605.942V550.017L495.29 522.046L543.32 550.017V605.942L495.274 633.913L447.243 605.942ZM495.95 635.085L543.981 607.115L592.011 635.085V691.011L543.981 718.982L495.95 691.011V635.085ZM544.657 605.942V550.017L592.688 522.046L640.718 550.017V605.942L592.688 633.913L544.657 605.942ZM593.364 635.085L641.395 607.115L689.425 635.085V691.011L641.395 718.982L593.364 691.011V635.085ZM642.071 605.942V550.017L690.102 522.046L738.132 550.017V605.942L690.102 633.913L642.071 605.942ZM690.779 635.085L738.809 607.115L786.839 635.085V691.011L738.809 718.982L690.779 691.011V635.085ZM739.486 605.942V550.017L787.532 522.046L835.563 550.017V605.942L787.532 633.913L739.502 605.942H739.486ZM788.193 635.085L836.223 607.115L884.253 635.085V691.011L836.206 718.982L788.176 691.011V635.085H788.193ZM836.9 605.942V550.017L884.93 522.046L932.96 550.017V605.942L884.93 633.913L836.9 605.942ZM885.607 635.085L933.637 607.115L981.667 635.085V691.011L933.637 718.982L885.607 691.011V635.085ZM934.314 605.942V550.017L982.344 522.046L1030.37 550.017V605.942L982.344 633.913L934.314 605.942ZM983.021 635.085L1031.07 607.115L1079.1 635.085V691.011L1031.07 718.982L983.021 691.011V635.085ZM1031.73 605.942V550.017L1079.76 522.046L1127.79 550.017V605.942L1079.76 633.913L1031.73 605.942ZM1080.43 635.085L1128.47 607.115L1176.51 635.085V691.011L1128.47 718.982L1080.43 691.011V635.085ZM1129.14 605.942V550.017L1177.19 522.046L1225.22 550.017V605.942L1177.19 633.913L1129.16 605.942H1129.14ZM1273.93 464.915V520.841L1225.88 548.812L1177.85 520.841V464.915L1225.88 436.944L1273.91 464.915H1273.93ZM1273.93 294.762V350.687L1225.88 378.658L1177.85 350.687V294.762L1225.88 266.791L1273.91 294.762H1273.93ZM1225.9 96.6207L1273.93 124.592V180.517L1225.88 208.488L1177.85 180.517V124.592L1225.88 96.6207H1225.9ZM1129.14 39.5065L1177.17 11.5356L1225.2 39.5065V95.4979L1177.17 123.469L1129.14 95.4979V39.5395V39.5065ZM1176.51 124.608V180.533L1128.47 208.504L1080.43 180.533V124.608L1128.47 96.6372L1176.51 124.608ZM1031.73 39.5065L1079.76 11.5356L1127.79 39.5065V95.4979L1079.76 123.469L1031.73 95.4979V39.5395V39.5065ZM1079.1 124.608V180.533L1031.07 208.504L983.021 180.533V124.608L1031.07 96.6372L1079.1 124.608ZM934.314 39.5065L982.344 11.5356L1030.37 39.5065V95.4979L982.344 123.469L934.314 95.4979V39.5395V39.5065ZM981.684 124.608V180.533L933.654 208.504L885.623 180.533V124.608L933.654 96.6372L981.684 124.608ZM836.9 39.5065L884.93 11.5356L932.96 39.5065V95.4979L884.93 123.469L836.9 95.4979V39.5395V39.5065ZM836.223 96.6207L884.253 124.592V180.517L836.206 208.488L788.176 180.517V124.592L836.206 96.6207H836.223ZM739.469 39.5065L787.499 11.5356L835.53 39.5065V95.4979L787.499 123.469L739.469 95.4979V39.5395V39.5065ZM786.839 124.608V180.533L738.809 208.504L690.779 180.533V124.608L738.809 96.6372L786.839 124.608ZM642.055 39.5065L690.085 11.5356L738.116 39.5065V95.4979L690.085 123.469L642.055 95.4979V39.5395V39.5065ZM689.425 124.608V180.533L641.395 208.504L593.364 180.533V124.608L641.395 96.6372L689.425 124.608ZM544.641 39.5065L592.671 11.5356L640.702 39.5065V95.4979L592.671 123.469L544.641 95.4979V39.5395V39.5065ZM592.011 124.608V180.533L543.981 208.504L495.95 180.533V124.608L543.981 96.6372L592.011 124.608ZM447.227 39.5065L495.257 11.5356L543.304 39.5065V95.4979L495.257 123.469L447.227 95.4979V39.5395V39.5065ZM446.55 96.6207L494.58 124.592V180.517L446.534 208.488L398.503 180.517V124.592L446.534 96.6207H446.55ZM349.796 39.5065L397.826 11.5356L445.857 39.5065V95.4979L397.826 123.469L349.796 95.4979V39.5395V39.5065ZM397.166 124.608V180.533L349.119 208.504L301.089 180.533V124.608L349.119 96.6372L397.166 124.608ZM252.448 39.5395L300.478 11.5686L348.509 39.5395V95.4979L300.478 123.469L252.448 95.4979V39.5395ZM299.818 124.641V180.566L251.788 208.537L203.758 180.566V124.641L251.788 96.6702L299.818 124.641ZM155.017 39.5395L203.048 11.5686L251.078 39.5395V95.4979L203.048 123.469L155.017 95.4979V39.5395ZM202.388 124.641V180.566L154.357 208.537L106.327 180.566V124.641L154.357 96.6702L202.388 124.641ZM57.6034 39.5395L105.634 11.5686L153.664 39.5395V95.4979L105.634 123.469L57.6034 95.4979V39.5395ZM8.89634 180.55V124.625L56.9267 96.6537L104.957 124.625V180.55L56.9267 208.521L8.89634 180.55ZM8.89634 350.703V294.778L56.9267 266.807L104.957 294.778V350.703L56.9267 378.674L8.89634 350.703ZM8.89634 520.857V464.932L56.9267 436.961L104.957 464.932V520.857L56.9267 548.828L8.89634 520.857ZM8.89634 691.011V635.085L56.9267 607.115L104.957 635.085V691.011L56.9267 718.982L8.89634 691.011ZM104.974 861.164L56.9432 889.135L8.91284 861.164V805.239L56.9432 777.268L104.974 805.239V861.164ZM57.6034 776.096V720.17L105.634 692.2L153.664 720.17V776.096L105.634 804.067L57.6034 776.096ZM202.388 861.164L154.357 889.135L106.327 861.164V805.239L154.357 777.268L202.388 805.239V861.164ZM155.017 776.096V720.17L203.048 692.2L251.078 720.17V776.096L203.048 804.067L155.017 776.096ZM299.802 861.164L251.771 889.135L203.741 861.164V805.239L251.771 777.268L299.802 805.239V861.164ZM252.432 776.096V720.17L300.462 692.2L348.492 720.17V776.096L300.462 804.067L252.432 776.096ZM397.216 861.164L349.169 889.135L301.139 861.164V805.239L349.169 777.268L397.216 805.239V861.164ZM397.893 804.083L349.862 776.112V720.187L397.909 692.216L445.939 720.187V776.112L397.909 804.083H397.893ZM494.646 861.164L446.6 889.135L398.569 861.164V805.239L446.6 777.268L494.63 805.239V861.164H494.646ZM495.323 804.083L447.293 776.112V720.187L495.34 692.216L543.37 720.187V776.112L495.323 804.083ZM592.077 861.164L544.047 889.135L496.016 861.164V805.239L544.047 777.268L592.077 805.239V861.164ZM544.707 776.096V720.17L592.737 692.2L640.768 720.17V776.096L592.737 804.067L544.707 776.096ZM689.491 861.164L641.461 889.135L593.43 861.164V805.239L641.461 777.268L689.491 805.239V861.164ZM642.121 776.096V720.17L690.151 692.2L738.182 720.17V776.096L690.151 804.067L642.121 776.096ZM786.905 861.164L738.875 889.135L690.845 861.164V805.239L738.875 777.268L786.905 805.239V861.164ZM787.582 804.083L739.552 776.112V720.187L787.598 692.216L835.629 720.187V776.112L787.598 804.083H787.582ZM884.336 861.164L836.289 889.135L788.259 861.164V805.239L836.289 777.268L884.319 805.239V861.164H884.336ZM836.966 776.096V720.17L884.996 692.2L933.026 720.17V776.096L884.996 804.067L836.966 776.096ZM981.75 861.164L933.719 889.135L885.689 861.164V805.239L933.719 777.268L981.75 805.239V861.164ZM934.38 776.096V720.17L982.41 692.2L1030.44 720.17V776.096L982.41 804.067L934.38 776.096ZM1079.16 861.164L1031.13 889.135L983.087 861.164V805.239L1031.13 777.268L1079.16 805.239V861.164ZM1031.79 776.096V720.17L1079.82 692.2L1127.85 720.17V776.096L1079.82 804.067L1031.79 776.096ZM1176.58 861.164L1128.53 889.135L1080.5 861.164V805.239L1128.53 777.268L1176.58 805.239V861.164ZM1177.25 804.083L1129.22 776.112V720.187L1177.27 692.216L1225.3 720.187V776.112L1177.27 804.083H1177.25ZM1274.01 861.164L1225.96 889.135L1177.93 861.164V805.239L1225.96 777.268L1273.99 805.239V861.164H1274.01Z" fill="url(#paint1_linear_64_1528)"/>
<path style="mix-blend-mode:color-dodge" d="M810.411 708.35C798.709 708.472 787.007 708.595 775.305 708.717" stroke="url(#paint2_linear_64_1528)" stroke-width="2" stroke-miterlimit="10"/>
<path style="mix-blend-mode:color-dodge" d="M744.147 294.058C744.147 300.326 739.059 305.414 732.791 305.414C726.523 305.414 721.435 300.326 721.435 294.058C721.435 287.79 726.523 282.702 732.791 282.702C739.059 282.702 744.147 287.79 744.147 294.058Z" fill="url(#paint3_radial_64_1528)"/>
<path style="mix-blend-mode:color-dodge" d="M268.129 506.668C268.129 512.937 263.041 518.025 256.773 518.025C250.505 518.025 245.417 512.937 245.417 506.668C245.417 500.4 250.505 495.312 256.773 495.312C263.041 495.312 268.129 500.4 268.129 506.668Z" fill="url(#paint4_radial_64_1528)"/>
<path style="mix-blend-mode:color-dodge" d="M913.063 201.948C919.335 201.948 924.42 196.863 924.42 190.592C924.42 184.32 919.335 179.235 913.063 179.235C906.792 179.235 901.707 184.32 901.707 190.592C901.707 196.863 906.792 201.948 913.063 201.948Z" fill="url(#paint5_radial_64_1528)"/>
<path style="mix-blend-mode:color-dodge" d="M613.085 96.1206C619.356 96.1206 624.441 91.0363 624.441 84.7645C624.441 78.4927 619.356 73.4084 613.085 73.4084C606.813 73.4084 601.729 78.4927 601.729 84.7645C601.729 91.0363 606.813 96.1206 613.085 96.1206Z" fill="url(#paint6_radial_64_1528)"/>
<path style="mix-blend-mode:color-dodge" d="M1153.25 413.602C1159.52 413.602 1164.61 408.517 1164.61 402.246C1164.61 395.974 1159.52 390.89 1153.25 390.89C1146.98 390.89 1141.89 395.974 1141.89 402.246C1141.89 408.517 1146.98 413.602 1153.25 413.602Z" fill="url(#paint7_radial_64_1528)"/>
<path style="mix-blend-mode:color-dodge" d="M249.833 236.871C256.105 236.871 261.189 231.786 261.189 225.515C261.189 219.243 256.105 214.158 249.833 214.158C243.561 214.158 238.477 219.243 238.477 225.515C238.477 231.786 243.561 236.871 249.833 236.871Z" fill="url(#paint8_radial_64_1528)"/>
<path style="mix-blend-mode:color-dodge" d="M433.24 339.197C439.511 339.197 444.596 334.113 444.596 327.841C444.596 321.569 439.511 316.485 433.24 316.485C426.968 316.485 421.884 321.569 421.884 327.841C421.884 334.113 426.968 339.197 433.24 339.197Z" fill="url(#paint9_radial_64_1528)"/>
<path style="mix-blend-mode:color-dodge" d="M684.294 539.027C684.294 545.295 679.206 550.383 672.938 550.383C666.67 550.383 661.582 545.295 661.582 539.027C661.582 532.759 666.67 527.671 672.938 527.671C679.206 527.671 684.294 532.759 684.294 539.027Z" fill="url(#paint10_radial_64_1528)"/>
<path style="mix-blend-mode:color-dodge" d="M372.939 24.2193C379.21 24.2193 384.295 19.135 384.295 12.8632C384.295 6.59147 379.21 1.5072 372.939 1.5072C366.667 1.5072 361.583 6.59147 361.583 12.8632C361.583 19.135 366.667 24.2193 372.939 24.2193Z" fill="url(#paint11_radial_64_1528)"/>
<path style="mix-blend-mode:color-dodge" d="M1275.17 125.976C1281.45 125.976 1286.53 120.892 1286.53 114.62C1286.53 108.348 1281.45 103.264 1275.17 103.264C1268.9 103.264 1263.82 108.348 1263.82 114.62C1263.82 120.892 1268.9 125.976 1275.17 125.976Z" fill="url(#paint12_radial_64_1528)"/>
<path style="mix-blend-mode:color-dodge" d="M1273.14 132.081C1279.41 132.081 1284.5 126.997 1284.5 120.725C1284.5 114.454 1279.41 109.369 1273.14 109.369C1266.87 109.369 1261.78 114.454 1261.78 120.725C1261.78 126.997 1266.87 132.081 1273.14 132.081Z" fill="url(#paint13_radial_64_1528)"/>
<path style="mix-blend-mode:color-dodge" d="M911.028 477.016C917.3 477.016 922.384 471.932 922.384 465.66C922.384 459.389 917.3 454.304 911.028 454.304C904.756 454.304 899.672 459.389 899.672 465.66C899.672 471.932 904.756 477.016 911.028 477.016Z" fill="url(#paint14_radial_64_1528)"/>
<g style="mix-blend-mode:color-dodge" filter="url(#filter0_d_64_1528)">
<path d="M1153.25 187.966L1204.64 215.929" stroke="url(#paint15_radial_64_1528)" stroke-width="3" stroke-miterlimit="10" style="mix-blend-mode:color-dodge"/>
</g>
<g style="mix-blend-mode:color-dodge" filter="url(#filter1_d_64_1528)">
<path d="M622.019 297.904L673.406 325.887" stroke="url(#paint16_radial_64_1528)" stroke-width="3" stroke-miterlimit="10" style="mix-blend-mode:color-dodge"/>
</g>
<g style="mix-blend-mode:color-dodge" filter="url(#filter2_d_64_1528)">
<path d="M370.903 503.779L422.311 531.741" stroke="url(#paint17_radial_64_1528)" stroke-width="3" stroke-miterlimit="10" style="mix-blend-mode:color-dodge"/>
</g>
<g style="mix-blend-mode:color-dodge" filter="url(#filter3_d_64_1528)">
<path d="M797.916 -18.9459L849.323 9.01683" stroke="url(#paint18_radial_64_1528)" stroke-width="3" stroke-miterlimit="10" style="mix-blend-mode:color-dodge"/>
</g>
<g style="mix-blend-mode:color-dodge" filter="url(#filter4_d_64_1528)">
<path d="M854.289 505.814L905.696 533.776" stroke="url(#paint19_radial_64_1528)" stroke-width="3" stroke-miterlimit="10" style="mix-blend-mode:color-dodge"/>
</g>
<g style="mix-blend-mode:color-dodge" opacity="0.58" filter="url(#filter5_d_64_1528)">
<path d="M547.329 191.772L495.922 219.735" stroke="url(#paint20_radial_64_1528)" stroke-width="3" stroke-miterlimit="10" style="mix-blend-mode:color-dodge"/>
</g>
<g style="mix-blend-mode:color-dodge" opacity="0.58" filter="url(#filter6_d_64_1528)">
<path d="M964.797 89.2622L913.389 117.245" stroke="url(#paint21_radial_64_1528)" stroke-width="3" stroke-miterlimit="10" style="mix-blend-mode:color-dodge"/>
</g>
<path style="mix-blend-mode:color-dodge" d="M80.53 8.08066C80.0619 9.36279 78.7391 9.93264 77.5383 9.85123C76.7446 9.19999 75.7271 7.97891 76.1748 6.71712C76.826 5.51639 78.1082 4.9262 79.3496 5.31287C79.3496 5.31287 80.9981 6.83923 80.53 8.08066Z" fill="url(#paint22_radial_64_1528)"/>
<path style="mix-blend-mode:color-dodge" d="M419.523 9.91225C419.665 11.459 418.342 11.9881 416.999 11.4182C415.676 10.9298 415.31 10.1158 415.188 8.48766C415.758 7.36834 417.06 6.75779 418.301 7.22587C419.706 7.73466 420.174 8.97609 419.523 9.91225Z" fill="url(#paint23_radial_64_1528)"/>
<path style="mix-blend-mode:color-dodge" d="M361.053 20.0066C360.585 21.2887 359.262 21.8585 358.062 21.7771C357.268 21.1259 356.25 19.9048 356.698 18.643C357.349 17.4423 358.631 16.8521 359.873 17.2388C359.873 17.2388 361.521 18.7651 361.053 20.0066Z" fill="url(#paint24_radial_64_1528)"/>
<path style="mix-blend-mode:color-dodge" d="M401.349 17.3202C400.881 18.6023 399.558 19.1721 398.357 19.0907C397.563 18.4395 396.546 17.2184 396.994 15.9566C397.645 14.7559 398.927 14.1657 400.168 14.5524C400.168 14.5524 401.817 16.0787 401.349 17.3202Z" fill="url(#paint25_radial_64_1528)"/>
<path style="mix-blend-mode:color-dodge" d="M145.166 37.1627C144.23 41.1923 139.285 43.3699 134.583 42.1895C130.737 40.7446 128.356 36.4097 129.679 32.1563C130.981 27.7197 136.171 25.013 140.221 27.0278C144.495 28.3099 146.937 32.7261 145.166 37.1627Z" fill="url(#paint26_radial_64_1528)"/>
<path style="mix-blend-mode:color-dodge" d="M514.299 22.3266C512.956 26.6207 508.254 29.246 503.492 28.086C499.442 26.0712 497.489 21.6143 498.384 17.5644C500.155 12.9242 504.917 10.4007 509.455 12.1305C513.709 13.433 516.11 17.7475 514.299 22.3266Z" fill="url(#paint27_radial_64_1528)"/>
<path style="mix-blend-mode:color-dodge" d="M137.534 3.42015C137.005 4.68194 135.641 5.21108 134.99 4.92616C133.728 4.47843 133.118 3.09454 133.118 3.09454C134.095 1.66994 134.807 0.815187 136.557 1.0594C137.209 1.38503 137.534 2.28048 137.534 3.42015Z" fill="url(#paint28_radial_64_1528)"/>
<path style="mix-blend-mode:color-dodge" d="M190.529 1.93457C190 3.19636 188.616 3.72549 187.985 3.44057C186.723 2.99284 186.113 1.60894 186.113 1.60894C187.09 0.184349 187.802 -0.670408 189.552 -0.426192C190.203 -0.10057 190.529 0.794897 190.529 1.93457Z" fill="url(#paint29_radial_64_1528)"/>
<path style="mix-blend-mode:color-dodge" d="M140.933 23.2221C140.445 24.5653 139.081 25.1758 137.982 24.9926C136.252 24.8095 135.642 23.4052 136.151 22.1231C136.354 21.0445 137.575 20.4339 139.346 20.8003C140.424 20.7596 140.994 22.1842 140.933 23.2221Z" fill="url(#paint30_radial_64_1528)"/>
<path style="mix-blend-mode:color-dodge" d="M133.24 62.9885C133.098 64.0468 131.327 64.7998 130.248 64.7794C128.966 64.3521 128.498 63.4363 129.088 62.1338C129.577 60.933 130.94 60.2818 131.551 60.5667C133.24 60.8313 133.891 62.2152 133.22 63.0089L133.24 62.9885Z" fill="url(#paint31_radial_64_1528)"/>
<g opacity="0.97">
<g style="mix-blend-mode:overlay">
<path style="mix-blend-mode:color-dodge" d="M913.308 -20.4112C929.345 -44.7108 941.352 -65.0418 940.151 -65.8558C938.93 -66.6495 924.949 -47.621 908.912 -23.3215C892.875 0.97803 880.868 21.309 882.068 22.1231C883.29 22.9168 897.271 3.88827 913.308 -20.4112Z" fill="url(#paint32_radial_64_1528)"/>
</g>
<g style="mix-blend-mode:overlay">
<path style="mix-blend-mode:color-dodge" d="M912.392 -20.8183C930.26 -47.8856 944.12 -70.211 943.367 -70.7198C942.614 -71.2286 927.513 -49.6969 909.644 -22.6296C891.776 4.43774 877.917 26.7632 878.67 27.272C879.423 27.7807 894.523 6.24901 912.392 -20.8183Z" fill="url(#paint33_radial_64_1528)"/>
</g>
</g>
<g style="mix-blend-mode:overlay">
<path style="mix-blend-mode:color-dodge" d="M909.726 -19.4344C934.025 -3.39752 954.356 8.60977 955.17 7.40904C955.964 6.18795 936.935 -7.79342 912.636 -23.8303C888.336 -39.8672 868.005 -51.8744 867.191 -50.6737C866.398 -49.4526 885.426 -35.4713 909.726 -19.4344Z" fill="url(#paint34_radial_64_1528)"/>
</g>
<g style="mix-blend-mode:overlay">
<path style="mix-blend-mode:color-dodge" d="M910.113 -20.3502C937.18 -2.48172 959.505 11.3775 960.014 10.6245C960.523 9.87155 938.991 -5.22916 911.924 -23.0976C884.856 -40.9661 862.531 -54.8254 862.022 -54.0724C861.513 -53.3194 883.045 -38.2187 910.113 -20.3502Z" fill="url(#paint35_radial_64_1528)"/>
</g>
<path style="mix-blend-mode:color-dodge" d="M36.9579 448.952C35.6758 448.952 34.4751 448.443 33.5593 447.548C31.6869 445.675 31.6869 442.643 33.5593 440.771C34.4751 439.855 35.6758 439.367 36.9579 439.367C38.2401 439.367 39.4408 439.855 40.3566 440.771C42.2289 442.643 42.2289 445.675 40.3566 447.548C39.4408 448.464 38.2401 448.952 36.9579 448.952Z" fill="url(#paint36_radial_64_1528)"/>
<path d="M35.0043 446.103C36.0829 447.181 37.8331 447.181 38.9117 446.103C39.9904 445.024 39.9904 443.274 38.9117 442.195C37.8331 441.117 36.0829 441.117 35.0043 442.195C33.9257 443.274 33.9257 445.024 35.0043 446.103Z" fill="white"/>
</g>
<defs>
<filter id="filter0_d_64_1528" x="1146.53" y="180.649" width="64.821" height="42.5978" filterUnits="userSpaceOnUse" color-interpolation-filters="sRGB">
<feFlood flood-opacity="0" result="BackgroundImageFix"/>
<feColorMatrix in="SourceAlpha" type="matrix" values="0 0 0 0 0 0 0 0 0 0 0 0 0 0 0 0 0 0 127 0" result="hardAlpha"/>
<feOffset/>
<feGaussianBlur stdDeviation="3"/>
<feColorMatrix type="matrix" values="0 0 0 0 1 0 0 0 0 1 0 0 0 0 1 0 0 0 0.2 0"/>
<feBlend mode="normal" in2="BackgroundImageFix" result="effect1_dropShadow_64_1528"/>
<feBlend mode="normal" in="SourceGraphic" in2="effect1_dropShadow_64_1528" result="shape"/>
</filter>
<filter id="filter1_d_64_1528" x="615.301" y="290.587" width="64.8219" height="42.6178" filterUnits="userSpaceOnUse" color-interpolation-filters="sRGB">
<feFlood flood-opacity="0" result="BackgroundImageFix"/>
<feColorMatrix in="SourceAlpha" type="matrix" values="0 0 0 0 0 0 0 0 0 0 0 0 0 0 0 0 0 0 127 0" result="hardAlpha"/>
<feOffset/>
<feGaussianBlur stdDeviation="3"/>
<feColorMatrix type="matrix" values="0 0 0 0 1 0 0 0 0 1 0 0 0 0 1 0 0 0 0.2 0"/>
<feBlend mode="normal" in2="BackgroundImageFix" result="effect1_dropShadow_64_1528"/>
<feBlend mode="normal" in="SourceGraphic" in2="effect1_dropShadow_64_1528" result="shape"/>
</filter>
<filter id="filter2_d_64_1528" x="364.187" y="496.461" width="64.8411" height="42.5981" filterUnits="userSpaceOnUse" color-interpolation-filters="sRGB">
<feFlood flood-opacity="0" result="BackgroundImageFix"/>
<feColorMatrix in="SourceAlpha" type="matrix" values="0 0 0 0 0 0 0 0 0 0 0 0 0 0 0 0 0 0 127 0" result="hardAlpha"/>
<feOffset/>
<feGaussianBlur stdDeviation="3"/>
<feColorMatrix type="matrix" values="0 0 0 0 1 0 0 0 0 1 0 0 0 0 1 0 0 0 0.2 0"/>
<feBlend mode="normal" in2="BackgroundImageFix" result="effect1_dropShadow_64_1528"/>
<feBlend mode="normal" in="SourceGraphic" in2="effect1_dropShadow_64_1528" result="shape"/>
</filter>
<filter id="filter3_d_64_1528" x="791.199" y="-26.2635" width="64.8411" height="42.598" filterUnits="userSpaceOnUse" color-interpolation-filters="sRGB">
<feFlood flood-opacity="0" result="BackgroundImageFix"/>
<feColorMatrix in="SourceAlpha" type="matrix" values="0 0 0 0 0 0 0 0 0 0 0 0 0 0 0 0 0 0 127 0" result="hardAlpha"/>
<feOffset/>
<feGaussianBlur stdDeviation="3"/>
<feColorMatrix type="matrix" values="0 0 0 0 1 0 0 0 0 1 0 0 0 0 1 0 0 0 0.2 0"/>
<feBlend mode="normal" in2="BackgroundImageFix" result="effect1_dropShadow_64_1528"/>
<feBlend mode="normal" in="SourceGraphic" in2="effect1_dropShadow_64_1528" result="shape"/>
</filter>
<filter id="filter4_d_64_1528" x="847.572" y="498.496" width="64.8411" height="42.5981" filterUnits="userSpaceOnUse" color-interpolation-filters="sRGB">
<feFlood flood-opacity="0" result="BackgroundImageFix"/>
<feColorMatrix in="SourceAlpha" type="matrix" values="0 0 0 0 0 0 0 0 0 0 0 0 0 0 0 0 0 0 127 0" result="hardAlpha"/>
<feOffset/>
<feGaussianBlur stdDeviation="3"/>
<feColorMatrix type="matrix" values="0 0 0 0 1 0 0 0 0 1 0 0 0 0 1 0 0 0 0.2 0"/>
<feBlend mode="normal" in2="BackgroundImageFix" result="effect1_dropShadow_64_1528"/>
<feBlend mode="normal" in="SourceGraphic" in2="effect1_dropShadow_64_1528" result="shape"/>
</filter>
<filter id="filter5_d_64_1528" x="489.205" y="184.454" width="64.8411" height="42.598" filterUnits="userSpaceOnUse" color-interpolation-filters="sRGB">
<feFlood flood-opacity="0" result="BackgroundImageFix"/>
<feColorMatrix in="SourceAlpha" type="matrix" values="0 0 0 0 0 0 0 0 0 0 0 0 0 0 0 0 0 0 127 0" result="hardAlpha"/>
<feOffset/>
<feGaussianBlur stdDeviation="3"/>
<feColorMatrix type="matrix" values="0 0 0 0 1 0 0 0 0 1 0 0 0 0 1 0 0 0 0.2 0"/>
<feBlend mode="normal" in2="BackgroundImageFix" result="effect1_dropShadow_64_1528"/>
<feBlend mode="normal" in="SourceGraphic" in2="effect1_dropShadow_64_1528" result="shape"/>
</filter>
<filter id="filter6_d_64_1528" x="906.672" y="81.9447" width="64.8418" height="42.618" filterUnits="userSpaceOnUse" color-interpolation-filters="sRGB">
<feFlood flood-opacity="0" result="BackgroundImageFix"/>
<feColorMatrix in="SourceAlpha" type="matrix" values="0 0 0 0 0 0 0 0 0 0 0 0 0 0 0 0 0 0 127 0" result="hardAlpha"/>
<feOffset/>
<feGaussianBlur stdDeviation="3"/>
<feColorMatrix type="matrix" values="0 0 0 0 1 0 0 0 0 1 0 0 0 0 1 0 0 0 0.2 0"/>
<feBlend mode="normal" in2="BackgroundImageFix" result="effect1_dropShadow_64_1528"/>
<feBlend mode="normal" in="SourceGraphic" in2="effect1_dropShadow_64_1528" result="shape"/>
</filter>
<linearGradient id="paint0_linear_64_1528" x1="640.008" y1="1287.22" x2="640.008" y2="66.9835" gradientUnits="userSpaceOnUse">
<stop stop-color="#003A4F" stop-opacity="0"/>
<stop offset="0.22" stop-color="#497281" stop-opacity="0.29"/>
<stop offset="0.43" stop-color="#8AA4AE" stop-opacity="0.54"/>
<stop offset="0.62" stop-color="#BCCBD1" stop-opacity="0.74"/>
<stop offset="0.78" stop-color="#E0E7EA" stop-opacity="0.88"/>
<stop offset="0.91" stop-color="#F6F8F9" stop-opacity="0.97"/>
<stop offset="1" stop-color="white"/>
</linearGradient>
<linearGradient id="paint1_linear_64_1528" x1="23.9987" y1="1231.06" x2="25.6505" y2="9.99998" gradientUnits="userSpaceOnUse">
<stop stop-color="#003A4F" stop-opacity="0"/>
<stop offset="0.22" stop-color="#497281" stop-opacity="0.29"/>
<stop offset="0.43" stop-color="#8AA4AE" stop-opacity="0.54"/>
<stop offset="0.62" stop-color="#BCCBD1" stop-opacity="0.74"/>
<stop offset="0.78" stop-color="#E0E7EA" stop-opacity="0.88"/>
<stop offset="0.91" stop-color="#F6F8F9" stop-opacity="0.97"/>
<stop offset="1" stop-color="white"/>
</linearGradient>
<linearGradient id="paint2_linear_64_1528" x1="775.285" y1="708.533" x2="810.432" y2="708.533" gradientUnits="userSpaceOnUse">
<stop stop-color="#C7E7F5"/>
<stop offset="0.14" stop-color="#C2E4F3"/>
<stop offset="0.28" stop-color="#B6DEEF"/>
<stop offset="0.42" stop-color="#A1D4E8"/>
<stop offset="0.57" stop-color="#83C5DF"/>
<stop offset="0.72" stop-color="#5EB2D2"/>
<stop offset="0.87" stop-color="#309CC3"/>
<stop offset="1" stop-color="#0084B4"/>
</linearGradient>
<radialGradient id="paint3_radial_64_1528" cx="0" cy="0" r="1" gradientUnits="userSpaceOnUse" gradientTransform="translate(732.791 294.058) scale(11.356 11.3561)">
<stop stop-color="#C7E7F5"/>
<stop offset="0.65" stop-color="#406C7F"/>
<stop offset="0.99" stop-color="#003246"/>
</radialGradient>
<radialGradient id="paint4_radial_64_1528" cx="0" cy="0" r="1" gradientUnits="userSpaceOnUse" gradientTransform="translate(256.773 506.668) scale(11.3561 11.3561)">
<stop stop-color="#C7E7F5"/>
<stop offset="0.65" stop-color="#406C7F"/>
<stop offset="0.99" stop-color="#003246"/>
</radialGradient>
<radialGradient id="paint5_radial_64_1528" cx="0" cy="0" r="1" gradientUnits="userSpaceOnUse" gradientTransform="translate(913.063 190.592) scale(11.3561)">
<stop stop-color="#C7E7F5"/>
<stop offset="0.65" stop-color="#406C7F"/>
<stop offset="0.99" stop-color="#003246"/>
</radialGradient>
<radialGradient id="paint6_radial_64_1528" cx="0" cy="0" r="1" gradientUnits="userSpaceOnUse" gradientTransform="translate(613.085 84.7645) scale(11.3561)">
<stop stop-color="#C7E7F5"/>
<stop offset="0.65" stop-color="#406C7F"/>
<stop offset="0.99" stop-color="#003246"/>
</radialGradient>
<radialGradient id="paint7_radial_64_1528" cx="0" cy="0" r="1" gradientUnits="userSpaceOnUse" gradientTransform="translate(1153.25 402.246) scale(11.3561 11.356)">
<stop stop-color="#C7E7F5"/>
<stop offset="0.65" stop-color="#406C7F"/>
<stop offset="0.99" stop-color="#003246"/>
</radialGradient>
<radialGradient id="paint8_radial_64_1528" cx="0" cy="0" r="1" gradientUnits="userSpaceOnUse" gradientTransform="translate(249.833 225.515) scale(11.3561)">
<stop stop-color="#C7E7F5"/>
<stop offset="0.65" stop-color="#406C7F"/>
<stop offset="0.99" stop-color="#003246"/>
</radialGradient>
<radialGradient id="paint9_radial_64_1528" cx="0" cy="0" r="1" gradientUnits="userSpaceOnUse" gradientTransform="translate(433.24 327.841) scale(11.3561)">
<stop stop-color="#C7E7F5"/>
<stop offset="0.65" stop-color="#406C7F"/>
<stop offset="0.99" stop-color="#003246"/>
</radialGradient>
<radialGradient id="paint10_radial_64_1528" cx="0" cy="0" r="1" gradientUnits="userSpaceOnUse" gradientTransform="translate(672.938 539.027) scale(11.3561)">
<stop stop-color="#C7E7F5"/>
<stop offset="0.65" stop-color="#406C7F"/>
<stop offset="0.99" stop-color="#003246"/>
</radialGradient>
<radialGradient id="paint11_radial_64_1528" cx="0" cy="0" r="1" gradientUnits="userSpaceOnUse" gradientTransform="translate(372.939 12.8633) scale(11.356 11.3561)">
<stop stop-color="#C7E7F5"/>
<stop offset="0.65" stop-color="#406C7F"/>
<stop offset="0.99" stop-color="#003246"/>
</radialGradient>
<radialGradient id="paint12_radial_64_1528" cx="0" cy="0" r="1" gradientUnits="userSpaceOnUse" gradientTransform="translate(1275.17 114.62) scale(11.356 11.3561)">
<stop stop-color="#C7E7F5"/>
<stop offset="0.65" stop-color="#406C7F"/>
<stop offset="0.99" stop-color="#003246"/>
</radialGradient>
<radialGradient id="paint13_radial_64_1528" cx="0" cy="0" r="1" gradientUnits="userSpaceOnUse" gradientTransform="translate(1273.14 120.725) scale(11.356 11.3561)">
<stop stop-color="#C7E7F5"/>
<stop offset="0.65" stop-color="#406C7F"/>
<stop offset="0.99" stop-color="#003246"/>
</radialGradient>
<radialGradient id="paint14_radial_64_1528" cx="0" cy="0" r="1" gradientUnits="userSpaceOnUse" gradientTransform="translate(911.028 465.66) scale(11.3561)">
<stop stop-color="#C7E7F5"/>
<stop offset="0.65" stop-color="#406C7F"/>
<stop offset="0.99" stop-color="#003246"/>
</radialGradient>
<radialGradient id="paint15_radial_64_1528" cx="0" cy="0" r="1" gradientUnits="userSpaceOnUse" gradientTransform="translate(1178.94 201.994) rotate(-61.45) scale(20.7991 20.7991)">
<stop stop-color="#C7E7F5"/>
<stop offset="0.65" stop-color="#406C7F"/>
<stop offset="0.99" stop-color="#003246"/>
</radialGradient>
<radialGradient id="paint16_radial_64_1528" cx="0" cy="0" r="1" gradientUnits="userSpaceOnUse" gradientTransform="translate(647.72 311.926) rotate(-61.45) scale(20.7991)">
<stop stop-color="#C7E7F5"/>
<stop offset="0.65" stop-color="#406C7F"/>
<stop offset="0.99" stop-color="#003246"/>
</radialGradient>
<radialGradient id="paint17_radial_64_1528" cx="0" cy="0" r="1" gradientUnits="userSpaceOnUse" gradientTransform="translate(396.602 517.799) rotate(-61.45) scale(20.7991 20.7991)">
<stop stop-color="#C7E7F5"/>
<stop offset="0.65" stop-color="#406C7F"/>
<stop offset="0.99" stop-color="#003246"/>
</radialGradient>
<radialGradient id="paint18_radial_64_1528" cx="0" cy="0" r="1" gradientUnits="userSpaceOnUse" gradientTransform="translate(823.645 -4.94245) rotate(-61.45) scale(20.7991 20.7991)">
<stop stop-color="#C7E7F5"/>
<stop offset="0.65" stop-color="#406C7F"/>
<stop offset="0.99" stop-color="#003246"/>
</radialGradient>
<radialGradient id="paint19_radial_64_1528" cx="0" cy="0" r="1" gradientUnits="userSpaceOnUse" gradientTransform="translate(892.944 495.843) rotate(-61.58) scale(0.416388 20.8194)">
<stop stop-color="#C7E7F5"/>
<stop offset="0.65" stop-color="#406C7F"/>
<stop offset="0.99" stop-color="#003246"/>
</radialGradient>
<radialGradient id="paint20_radial_64_1528" cx="0" cy="0" r="1" gradientUnits="userSpaceOnUse" gradientTransform="translate(535.609 231.533) rotate(-118.42) scale(0.416389 20.8194)">
<stop stop-color="#C7E7F5"/>
<stop offset="0.01" stop-color="#BFDFEE"/>
<stop offset="0.1" stop-color="#92B7C6"/>
<stop offset="0.19" stop-color="#6B93A4"/>
<stop offset="0.28" stop-color="#497586"/>
<stop offset="0.38" stop-color="#2E5C6F"/>
<stop offset="0.49" stop-color="#1A495C"/>
<stop offset="0.62" stop-color="#0B3C4F"/>
<stop offset="0.76" stop-color="#023448"/>
<stop offset="0.99" stop-color="#003246"/>
</radialGradient>
<radialGradient id="paint21_radial_64_1528" cx="0" cy="0" r="1" gradientUnits="userSpaceOnUse" gradientTransform="translate(955.312 133.2) rotate(-118.42) scale(0.416389 20.8194)">
<stop stop-color="#C7E7F5"/>
<stop offset="0.01" stop-color="#BFDFEE"/>
<stop offset="0.1" stop-color="#92B7C6"/>
<stop offset="0.19" stop-color="#6B93A4"/>
<stop offset="0.28" stop-color="#497586"/>
<stop offset="0.38" stop-color="#2E5C6F"/>
<stop offset="0.49" stop-color="#1A495C"/>
<stop offset="0.62" stop-color="#0B3C4F"/>
<stop offset="0.76" stop-color="#023448"/>
<stop offset="0.99" stop-color="#003246"/>
</radialGradient>
<radialGradient id="paint22_radial_64_1528" cx="0" cy="0" r="1" gradientUnits="userSpaceOnUse" gradientTransform="translate(71.5311 31.4929) rotate(66.63) scale(2.15908 2.24292)">
<stop stop-color="white"/>
<stop offset="0.11" stop-color="#D6D6D6"/>
<stop offset="0.29" stop-color="#969696"/>
<stop offset="0.47" stop-color="#606060"/>
<stop offset="0.64" stop-color="#363636"/>
<stop offset="0.78" stop-color="#181818"/>
<stop offset="0.91" stop-color="#060606"/>
<stop offset="1"/>
</radialGradient>
<radialGradient id="paint23_radial_64_1528" cx="0" cy="0" r="1" gradientUnits="userSpaceOnUse" gradientTransform="translate(410.118 34.0236) rotate(66.6299) scale(2.28484 2.37358)">
<stop stop-color="white"/>
<stop offset="0.11" stop-color="#D6D6D6"/>
<stop offset="0.29" stop-color="#969696"/>
<stop offset="0.47" stop-color="#606060"/>
<stop offset="0.64" stop-color="#363636"/>
<stop offset="0.78" stop-color="#181818"/>
<stop offset="0.91" stop-color="#060606"/>
<stop offset="1"/>
</radialGradient>
<radialGradient id="paint24_radial_64_1528" cx="0" cy="0" r="1" gradientUnits="userSpaceOnUse" gradientTransform="translate(351.49 43.9898) rotate(66.63) scale(2.15908 2.24292)">
<stop stop-color="white"/>
<stop offset="0.11" stop-color="#D6D6D6"/>
<stop offset="0.29" stop-color="#969696"/>
<stop offset="0.47" stop-color="#606060"/>
<stop offset="0.64" stop-color="#363636"/>
<stop offset="0.78" stop-color="#181818"/>
<stop offset="0.91" stop-color="#060606"/>
<stop offset="1"/>
</radialGradient>
<radialGradient id="paint25_radial_64_1528" cx="0" cy="0" r="1" gradientUnits="userSpaceOnUse" gradientTransform="translate(391.692 41.3925) rotate(66.63) scale(2.15908 2.24292)">
<stop stop-color="white"/>
<stop offset="0.11" stop-color="#D6D6D6"/>
<stop offset="0.29" stop-color="#969696"/>
<stop offset="0.47" stop-color="#606060"/>
<stop offset="0.64" stop-color="#363636"/>
<stop offset="0.78" stop-color="#181818"/>
<stop offset="0.91" stop-color="#060606"/>
<stop offset="1"/>
</radialGradient>
<radialGradient id="paint26_radial_64_1528" cx="0" cy="0" r="1" gradientUnits="userSpaceOnUse" gradientTransform="translate(130.665 58.5985) rotate(66.63) scale(8.0284 8.34019)">
<stop stop-color="white"/>
<stop offset="0.11" stop-color="#D6D6D6"/>
<stop offset="0.29" stop-color="#969696"/>
<stop offset="0.47" stop-color="#606060"/>
<stop offset="0.64" stop-color="#363636"/>
<stop offset="0.78" stop-color="#181818"/>
<stop offset="0.91" stop-color="#060606"/>
<stop offset="1"/>
</radialGradient>
<radialGradient id="paint27_radial_64_1528" cx="0" cy="0" r="1" gradientUnits="userSpaceOnUse" gradientTransform="translate(498.933 44.6725) rotate(66.63) scale(8.1961 8.51439)">
<stop stop-color="white"/>
<stop offset="0.11" stop-color="#D6D6D6"/>
<stop offset="0.29" stop-color="#969696"/>
<stop offset="0.47" stop-color="#606060"/>
<stop offset="0.64" stop-color="#363636"/>
<stop offset="0.78" stop-color="#181818"/>
<stop offset="0.91" stop-color="#060606"/>
<stop offset="1"/>
</radialGradient>
<radialGradient id="paint28_radial_64_1528" cx="0" cy="0" r="1" gradientUnits="userSpaceOnUse" gradientTransform="translate(128.525 27.1881) rotate(66.63) scale(1.97042 2.04694)">
<stop stop-color="white"/>
<stop offset="0.11" stop-color="#D6D6D6"/>
<stop offset="0.29" stop-color="#969696"/>
<stop offset="0.47" stop-color="#606060"/>
<stop offset="0.64" stop-color="#363636"/>
<stop offset="0.78" stop-color="#181818"/>
<stop offset="0.91" stop-color="#060606"/>
<stop offset="1"/>
</radialGradient>
<radialGradient id="paint29_radial_64_1528" cx="0" cy="0" r="1" gradientUnits="userSpaceOnUse" gradientTransform="translate(181.389 25.787) rotate(66.63) scale(1.97042 2.04694)">
<stop stop-color="white"/>
<stop offset="0.11" stop-color="#D6D6D6"/>
<stop offset="0.29" stop-color="#969696"/>
<stop offset="0.47" stop-color="#606060"/>
<stop offset="0.64" stop-color="#363636"/>
<stop offset="0.78" stop-color="#181818"/>
<stop offset="0.91" stop-color="#060606"/>
<stop offset="1"/>
</radialGradient>
<radialGradient id="paint30_radial_64_1528" cx="0" cy="0" r="1" gradientUnits="userSpaceOnUse" gradientTransform="translate(131.514 46.9508) rotate(66.6301) scale(2.30581 2.39535)">
<stop stop-color="white"/>
<stop offset="0.11" stop-color="#D6D6D6"/>
<stop offset="0.29" stop-color="#969696"/>
<stop offset="0.47" stop-color="#606060"/>
<stop offset="0.64" stop-color="#363636"/>
<stop offset="0.78" stop-color="#181818"/>
<stop offset="0.91" stop-color="#060606"/>
<stop offset="1"/>
</radialGradient>
<radialGradient id="paint31_radial_64_1528" cx="0" cy="0" r="1" gradientUnits="userSpaceOnUse" gradientTransform="translate(124.307 86.7612) rotate(66.63) scale(2.15907 2.24292)">
<stop stop-color="white"/>
<stop offset="0.11" stop-color="#D6D6D6"/>
<stop offset="0.29" stop-color="#969696"/>
<stop offset="0.47" stop-color="#606060"/>
<stop offset="0.64" stop-color="#363636"/>
<stop offset="0.78" stop-color="#181818"/>
<stop offset="0.91" stop-color="#060606"/>
<stop offset="1"/>
</radialGradient>
<radialGradient id="paint32_radial_64_1528" cx="0" cy="0" r="1" gradientUnits="userSpaceOnUse" gradientTransform="translate(808.582 -122.298) rotate(33.42) scale(2.55878 52.8038)">
<stop offset="0.11" stop-color="white"/>
<stop offset="1" stop-color="white"/>
</radialGradient>
<radialGradient id="paint33_radial_64_1528" cx="0" cy="0" r="1" gradientUnits="userSpaceOnUse" gradientTransform="translate(886.277 -28.9622) rotate(33.44) scale(1.63116 58.7218)">
<stop offset="0.11" stop-color="white"/>
<stop offset="1" stop-color="white"/>
</radialGradient>
<radialGradient id="paint34_radial_64_1528" cx="0" cy="0" r="1" gradientUnits="userSpaceOnUse" gradientTransform="translate(1083.21 -255.051) rotate(123.42) scale(2.55877 52.8038)">
<stop offset="0.11" stop-color="white"/>
<stop offset="1" stop-color="white"/>
</radialGradient>
<radialGradient id="paint35_radial_64_1528" cx="0" cy="0" r="1" gradientUnits="userSpaceOnUse" gradientTransform="translate(947.328 -83.7537) rotate(123.44) scale(1.63116 58.7218)">
<stop offset="0.11" stop-color="white"/>
<stop offset="1" stop-color="white"/>
</radialGradient>
<radialGradient id="paint36_radial_64_1528" cx="0" cy="0" r="1" gradientUnits="userSpaceOnUse" gradientTransform="translate(36.9579 444.149) scale(4.80292 4.80294)">
<stop stop-color="white"/>
<stop offset="0.06" stop-color="#EAEAEA"/>
<stop offset="0.33" stop-color="#989898"/>
<stop offset="0.57" stop-color="#575757"/>
<stop offset="0.76" stop-color="#272727"/>
<stop offset="0.91" stop-color="#0A0A0A"/>
<stop offset="1"/>
</radialGradient>
<clipPath id="clip0_64_1528">
<rect width="1280" height="720" fill="white"/>
</clipPath>
</defs>
</svg>
