<svg width="1280" height="720" viewBox="0 0 1280 720" fill="none" xmlns="http://www.w3.org/2000/svg">
<g clip-path="url(#clip0_72_5295)">
<path style="mix-blend-mode:overlay" opacity="0.77" d="M1280 -138.352L1276.24 -140.547L1228.2 -112.595V-56.7075L1276.24 -28.7555L1280 -30.95V-29.366L1276.9 -27.5674V28.3201L1280 30.1187V31.6698L1276.24 29.4752L1228.2 57.4272V113.315L1276.24 141.267L1280 139.072V140.656L1276.9 142.455V198.342L1280 200.141V201.692L1276.24 199.497L1228.2 227.449V283.337L1276.24 311.289L1280 309.094V310.678L1276.9 312.477V368.365L1280 370.163V371.714L1276.24 369.52L1228.2 397.472V453.359L1276.24 481.311L1280 479.117V480.701L1276.9 482.499V538.387L1280 540.185V541.736L1276.24 539.542L1228.2 567.494V623.497L1276.24 651.449L1280 649.254V650.805L1276.24 653L1227.53 624.652L1178.82 653L1130.11 624.652L1081.4 653L1032.69 624.652L983.979 653L935.27 624.652L886.56 653L837.851 624.652L789.141 653L740.432 624.652L691.722 653L643.012 624.652L594.303 653L545.593 624.652L496.884 653L448.174 624.652L399.465 653L350.755 624.652L302.046 653L253.336 624.652L204.626 653L155.917 624.652L107.158 653L58.4482 624.652L9.73861 653L0 647.34V645.789L9.73861 651.449L57.7714 623.497V567.576L9.73861 539.624L0 545.284V543.733L9.06186 538.453V482.565L0 477.285V475.701L9.73861 481.361L57.7714 453.409V397.521L9.73861 369.569L0 375.229V373.678L9.06186 368.398V312.51L0 307.23V305.646L9.73861 311.305L57.7714 283.353V227.466L9.73861 199.514L0 205.174V203.623L9.06186 198.342V142.455L0 137.175V135.591L9.73861 141.25L57.7714 113.298V57.4106L9.73861 29.4586L0 35.1184V33.5673L9.06186 28.2871V-27.6004L0 -32.8806V-34.4647L9.73861 -28.805L57.7714 -56.757V-112.645L9.73861 -140.597L0 -134.937V-136.488L9.06186 -141.768V-180H10.3989V-141.768L58.4317 -113.816L106.464 -141.768V-180H107.801V-141.768L155.834 -113.816L203.867 -141.768V-180H205.204V-141.768L253.237 -113.816L301.286 -141.768V-180H302.623V-141.768L350.673 -113.816L398.705 -141.768V-180H400.042V-141.768L448.075 -113.816L496.108 -141.768V-180H497.445V-141.768L545.478 -113.816L593.511 -141.768V-180H594.848V-141.768L642.897 -113.816L690.93 -141.768V-180H692.267V-141.768L740.299 -113.816L788.332 -141.768V-180H789.669V-141.768L837.702 -113.816L885.735 -141.768V-180H887.072V-141.768L935.105 -113.816L983.138 -141.768V-180H984.474V-141.768L1032.51 -113.816L1080.56 -141.768V-180H1081.89V-141.768L1129.93 -113.816L1177.96 -141.768V-180H1179.3V-141.768L1227.33 -113.816L1275.36 -141.768V-180H1276.7V-141.768L1279.8 -139.97V-138.418L1280 -138.352ZM1275.56 198.375V142.488L1227.53 114.536L1179.49 142.488V198.375L1227.53 226.327L1275.56 198.375ZM1130.77 397.538V453.425L1178.82 481.377L1226.85 453.425V397.538L1178.82 369.586L1130.77 397.538ZM1226.85 283.386V227.499L1178.82 199.547L1130.77 227.499V283.386L1178.82 311.339L1226.85 283.386ZM1178.14 368.431V312.543L1130.09 284.591L1082.06 312.543V368.431L1130.09 396.383L1178.12 368.431H1178.14ZM1129.43 283.403V227.515L1081.4 199.563L1033.37 227.515V283.403L1081.41 311.355L1129.45 283.403H1129.43ZM1129.43 397.554L1081.4 369.602L1033.37 397.554V453.442L1081.41 481.394L1129.45 453.442V397.554H1129.43ZM1080.72 368.431V312.543L1032.67 284.591L984.64 312.543V368.431L1032.67 396.383L1080.72 368.431ZM1032.01 283.386V227.499L983.979 199.547L935.947 227.499V283.386L983.979 311.339L1032.01 283.386ZM1032.01 397.538L983.979 369.586L935.947 397.538V453.425L983.979 481.377L1032.01 453.425V397.538ZM983.303 368.414V312.527L935.27 284.575L887.237 312.527V368.414L935.27 396.366L983.303 368.414ZM934.593 283.37V227.482L886.544 199.53L838.511 227.482V283.37L886.544 311.322L934.593 283.37ZM934.593 397.521L886.544 369.569L838.511 397.521V453.409L886.544 481.361L934.593 453.409V397.521ZM885.883 368.398V312.51L837.851 284.558L789.818 312.51V368.398L837.851 396.35L885.883 368.398ZM837.174 283.353V227.466L789.141 199.514L741.108 227.466V283.353L789.141 311.305L837.174 283.353ZM837.174 397.505L789.141 369.553L741.108 397.505V453.392L789.141 481.344L837.174 453.392V397.505ZM788.464 368.381V312.494L740.415 284.542L692.382 312.494V368.381L740.415 396.333L788.448 368.381H788.464ZM739.755 283.353V227.466L691.705 199.514L643.673 227.466V283.353L691.722 311.305L739.755 283.353ZM739.755 397.505L691.705 369.553L643.673 397.505V453.392L691.722 481.344L739.755 453.392V397.505ZM691.045 368.381V312.494L643.012 284.542L594.963 312.494V368.381L643.012 396.333L691.045 368.381ZM642.336 283.337V227.449L594.303 199.497L546.254 227.449V283.337L594.303 311.289L642.336 283.337ZM642.336 397.488L594.303 369.536L546.254 397.488V453.376L594.303 481.328L642.336 453.376V397.488ZM593.626 368.365V312.477L545.593 284.525L497.56 312.477V368.365L545.593 396.317L593.626 368.365ZM544.917 283.32V227.433L496.884 199.481L448.851 227.433V283.32L496.884 311.272L544.917 283.32ZM544.917 397.472L496.884 369.52L448.851 397.472V453.359L496.884 481.311L544.917 453.359V397.472ZM496.207 368.348V312.461L448.174 284.508L400.141 312.461V368.348L448.174 396.3L496.207 368.348ZM447.497 283.304V227.416L399.448 199.464L351.415 227.416V283.304L399.465 311.256L447.497 283.304ZM447.497 397.455L399.448 369.503L351.415 397.455V453.343L399.465 481.295L447.497 453.343V397.455ZM398.788 368.332V312.444L350.739 284.492L302.706 312.444V368.332L350.755 396.284L398.788 368.332ZM350.078 283.304V227.416L302.046 199.464L254.013 227.416V283.304L302.062 311.256L350.095 283.304H350.078ZM350.078 397.455L302.046 369.503L254.013 397.455V453.343L302.062 481.295L350.095 453.343V397.455H350.078ZM301.369 368.332V312.444L253.319 284.492L205.287 312.444V368.332L253.319 396.284L301.369 368.332ZM252.659 283.287V227.4L204.626 199.448L156.594 227.4V283.287L204.626 311.24L252.659 283.287ZM252.659 397.439L204.626 369.487L156.594 397.439V453.326L204.626 481.278L252.659 453.326V397.439ZM203.95 368.315V312.428L155.917 284.476L107.884 312.428V368.315L155.917 396.267L203.95 368.315ZM155.24 397.439L107.207 369.487L59.1744 397.439V453.326L107.207 481.278L155.24 453.326V397.439ZM155.24 283.287V227.4L107.207 199.448L59.1744 227.4V283.287L107.207 311.24L155.24 283.287ZM155.24 113.249V57.3611L107.207 29.4091L59.1744 57.3611V113.249L107.207 141.201L155.24 113.249ZM107.867 142.405V198.293L155.9 226.245L203.933 198.293V142.405L155.9 114.453L107.867 142.405ZM156.577 113.249L204.61 141.201L252.643 113.249V57.3611L204.61 29.4091L156.577 57.3611V113.249ZM205.287 142.405V198.293L253.319 226.245L301.369 198.293V142.405L253.319 114.453L205.287 142.405ZM253.996 113.249L302.046 141.201L350.078 113.249V57.3611L302.046 29.4091L254.013 57.3611V113.249H253.996ZM302.706 142.389V198.276L350.755 226.228L398.788 198.276V142.389L350.739 114.437L302.706 142.389ZM351.415 113.232L399.465 141.184L447.497 113.232V57.3447L399.448 29.3927L351.415 57.3447V113.232ZM400.125 142.389V198.276L448.158 226.228L496.19 198.276V142.389L448.158 114.437L400.125 142.389ZM448.834 113.249L496.867 141.201L544.9 113.249V57.3611L496.867 29.4091L448.834 57.3611V113.249ZM497.544 142.405V198.293L545.577 226.245L593.61 198.293V142.405L545.577 114.453L497.544 142.405ZM546.254 113.249L594.303 141.201L642.336 113.249V57.3611L594.303 29.4091L546.254 57.3611V113.249ZM594.963 142.405V198.293L643.012 226.245L691.045 198.293V142.405L643.012 114.453L594.963 142.405ZM643.673 113.249L691.722 141.201L739.755 113.249V57.3611L691.705 29.4091L643.673 57.3611V113.249ZM692.382 142.389V198.276L740.415 226.228L788.448 198.276V142.389L740.398 114.437L692.366 142.389H692.382ZM741.092 113.249L789.125 141.201L837.157 113.249V57.3611L789.125 29.4091L741.092 57.3611V113.249ZM789.801 142.405V198.293L837.834 226.245L885.867 198.293V142.405L837.834 114.453L789.801 142.405ZM838.511 113.249L886.544 141.201L934.593 113.249V57.3611L886.544 29.4091L838.511 57.3611V113.249ZM887.22 142.405V198.293L935.253 226.245L983.286 198.293V142.405L935.253 114.453L887.22 142.405ZM935.93 113.249L983.963 141.201L1032 113.249V57.3611L983.963 29.4091L935.93 57.3611V113.249ZM984.64 142.405V198.293L1032.67 226.245L1080.72 198.293V142.405L1032.67 114.453L984.64 142.405ZM1033.35 113.249L1081.4 141.201L1129.43 113.249V57.3611L1081.4 29.4091L1033.37 57.3611V113.249H1033.35ZM1082.06 142.389V198.276L1130.09 226.228L1178.12 198.276V142.389L1130.08 114.437L1082.04 142.389H1082.06ZM1130.77 113.232L1178.82 141.184L1226.85 113.232V57.3447L1178.82 29.3927L1130.77 57.3447V113.232ZM1275.56 368.315V312.428L1227.53 284.476L1179.49 312.428V368.315L1227.53 396.267L1275.56 368.315ZM1275.56 538.354V482.466L1227.53 454.514L1179.49 482.466V538.354L1227.53 566.306L1275.56 538.354ZM1130.77 623.398L1178.82 651.35L1226.85 623.398V567.477L1178.82 539.525L1130.77 567.477V623.497V623.398ZM1130.09 566.322L1178.12 538.37V482.483L1130.08 454.531L1082.04 482.483V538.37L1130.08 566.322H1130.09ZM1033.33 623.398L1081.37 651.35L1129.4 623.398V567.477L1081.37 539.525L1033.33 567.477V623.497V623.398ZM1080.71 538.354V482.466L1032.66 454.514L984.623 482.466V538.354L1032.66 566.306L1080.71 538.354ZM935.914 623.398L983.946 651.35L1031.98 623.398V567.477L983.946 539.525L935.914 567.477V623.497V623.398ZM983.286 538.354V482.466L935.253 454.514L887.22 482.466V538.354L935.253 566.306L983.286 538.354ZM838.494 623.398L886.527 651.35L934.577 623.398V567.477L886.527 539.525L838.494 567.477V623.497V623.398ZM885.867 538.354V482.466L837.834 454.514L789.801 482.466V538.354L837.834 566.306L885.867 538.354ZM741.075 623.398L789.108 651.35L837.141 623.398V567.477L789.108 539.525L741.075 567.477V623.497V623.398ZM740.398 566.322L788.431 538.37V482.483L740.382 454.531L692.349 482.483V538.37L740.382 566.322H740.398ZM643.64 623.398L691.672 651.35L739.722 623.398V567.477L691.672 539.525L643.64 567.477V623.497V623.398ZM691.012 538.354V482.466L642.979 454.514L594.93 482.466V538.354L642.979 566.306L691.012 538.354ZM546.221 623.398L594.27 651.35L642.303 623.398V567.477L594.27 539.525L546.221 567.477V623.497V623.398ZM593.593 538.354V482.466L545.56 454.514L497.527 482.466V538.354L545.56 566.306L593.593 538.354ZM448.801 623.398L496.834 651.35L544.867 623.398V567.477L496.834 539.525L448.801 567.477V623.497V623.398ZM496.174 538.354V482.466L448.141 454.514L400.108 482.466V538.354L448.141 566.306L496.174 538.354ZM351.382 623.398L399.415 651.35L447.464 623.398V567.477L399.415 539.525L351.382 567.477V623.497V623.398ZM350.706 566.322L398.738 538.37V482.483L350.689 454.531L302.656 482.483V538.37L350.706 566.322ZM253.947 623.398L301.979 651.35L350.012 623.398V567.477L301.979 539.525L253.947 567.477V623.497V623.398ZM301.319 538.354V482.466L253.27 454.514L205.237 482.466V538.354L253.27 566.306L301.319 538.354ZM156.544 623.497L204.577 651.449L252.61 623.497V567.576L204.577 539.624L156.544 567.576V623.497ZM203.917 538.453V482.565L155.884 454.613L107.851 482.565V538.453L155.884 566.405L203.917 538.453ZM59.1249 623.497L107.158 651.449L155.191 623.497V567.576L107.158 539.624L59.1249 567.576V623.497ZM10.4154 482.582V538.469L58.4482 566.421L106.481 538.469V482.582L58.4482 454.63L10.4154 482.582ZM10.4154 312.543V368.431L58.4482 396.383L106.481 368.431V312.543L58.4482 284.591L10.4154 312.543ZM10.4154 142.504V198.392L58.4482 226.344L106.481 198.392V142.504L58.4482 114.552L10.4154 142.504ZM10.4154 -27.5344V28.3531L58.4482 56.3052L106.481 28.3531V-27.5344L58.4482 -55.4865L10.4154 -27.5344ZM155.207 -112.579L107.174 -140.531L59.1414 -112.579V-56.691L107.174 -28.739L155.207 -56.691V-112.579ZM107.834 -27.5344V28.3531L155.867 56.3052L203.9 28.3531V-27.5344L155.867 -55.4865L107.834 -27.5344ZM252.626 -112.579L204.593 -140.531L156.561 -112.579V-56.691L204.593 -28.739L252.626 -56.691V-112.579ZM205.254 -27.5344V28.3531L253.286 56.3052L301.336 28.3531V-27.5344L253.286 -55.4865L205.254 -27.5344ZM350.045 -112.579L302.012 -140.531L253.98 -112.579V-56.691L302.029 -28.739L350.062 -56.691V-112.579H350.045ZM350.722 -55.5029L302.689 -27.5509V28.3366L350.739 56.2886L398.771 28.3366V-27.5509L350.722 -55.5029ZM447.481 -112.579L399.432 -140.531L351.399 -112.579V-56.691L399.448 -28.739L447.481 -56.691V-112.579ZM400.108 -27.5509V28.3366L448.141 56.2886L496.174 28.3366V-27.5509L448.141 -55.5029L400.108 -27.5509ZM544.9 -112.579L496.867 -140.531L448.834 -112.579V-56.691L496.867 -28.739L544.9 -56.691V-112.579ZM497.527 -27.5344V28.3531L545.56 56.3052L593.593 28.3531V-27.5344L545.56 -55.4865L497.527 -27.5344ZM642.319 -112.579L594.286 -140.531L546.237 -112.579V-56.691L594.286 -28.739L642.319 -56.691V-112.579ZM594.947 -27.5344V28.3531L642.996 56.3052L691.029 28.3531V-27.5344L642.996 -55.4865L594.947 -27.5344ZM739.738 -112.579L691.689 -140.531L643.656 -112.579V-56.691L691.705 -28.739L739.738 -56.691V-112.579ZM740.415 -55.5029L692.382 -27.5509V28.3366L740.415 56.2886L788.448 28.3366V-27.5509L740.398 -55.5029H740.415ZM837.174 -112.579L789.141 -140.531L741.108 -112.579V-56.691L789.141 -28.739L837.174 -56.691V-112.579ZM789.801 -27.5344V28.3531L837.834 56.3052L885.867 28.3531V-27.5344L837.834 -55.4865L789.801 -27.5344ZM934.593 -112.579L886.544 -140.531L838.511 -112.579V-56.691L886.544 -28.739L934.593 -56.691V-112.579ZM887.22 -27.5344V28.3531L935.253 56.3052L983.286 28.3531V-27.5344L935.253 -55.4865L887.22 -27.5344ZM1032.01 -112.579L983.979 -140.531L935.947 -112.579V-56.691L983.979 -28.739L1032.01 -56.691V-112.579ZM984.64 -27.5344V28.3531L1032.67 56.3052L1080.72 28.3531V-27.5344L1032.67 -55.4865L984.64 -27.5344ZM1129.43 -112.579L1081.4 -140.531L1033.37 -112.579V-56.691L1081.41 -28.739L1129.45 -56.691V-112.579H1129.43ZM1130.11 -55.5029L1082.08 -27.5509V28.3366L1130.11 56.2886L1178.14 28.3366V-27.5509L1130.09 -55.5029H1130.11ZM1226.87 -112.579L1178.83 -140.531L1130.78 -112.579V-56.691L1178.83 -28.739L1226.87 -56.691V-112.579ZM1179.49 -27.5344V28.3531L1227.53 56.3052L1275.56 28.3531V-27.5344L1227.53 -55.4865L1179.49 -27.5344Z" fill="url(#paint0_linear_72_5295)"/>
<path style="mix-blend-mode:overlay" opacity="0.3" d="M1280 -143.905L1275.33 -141.181V-85.2556L1280 -82.5311V-80.979L1274.65 -84.0833L1226.61 -56.1123V-0.187012L1274.65 27.7839L1280 24.6797V26.2648L1275.33 28.9893V84.9146L1280 87.639V89.1911L1274.65 86.0869L1226.61 114.058V169.983L1274.65 197.954L1280 194.85V196.435L1275.33 199.159V255.085L1280 257.809V259.361L1274.65 256.257L1226.61 284.228V340.153L1274.65 368.124L1280 365.02V366.605L1275.33 369.33V425.255L1280 427.979V429.531L1274.65 426.427L1226.61 454.398V510.323L1274.65 538.294L1280 535.19V536.775L1275.33 539.5V595.425L1280 598.149V599.701L1274.65 596.597L1226.61 624.568V680.46L1274.65 708.431L1280 705.327V706.879L1274.65 709.983L1225.95 681.616L1177.24 709.983L1128.53 681.616L1079.82 709.983L1031.12 681.616L982.41 709.983L933.703 681.616L884.996 709.983L836.289 681.616L787.582 709.983L738.875 681.616L690.168 709.983L641.461 681.616L592.754 709.983L544.047 681.616L495.34 709.983L446.633 681.616L397.926 709.983L349.218 681.616L300.511 709.983L251.804 681.616L203.097 709.983L154.39 681.616L105.683 709.983L56.9432 681.633L8.23613 710L0.0825267 705.261V703.709L8.23613 708.448L56.2665 680.46V624.502L8.21962 596.531L0.066021 601.27V599.718L7.54291 595.359V539.434L0.066021 535.075V533.489L8.21962 538.245L56.25 510.274V454.349L8.20312 426.378L0.0495154 431.117V429.564L7.5264 425.205V369.28L0.0495154 364.921V363.336L8.20312 368.091L56.2335 340.12V284.195L8.18661 256.224L0.0330097 260.963V259.411L7.5099 255.052V199.126L0.0330097 194.767V193.182L8.18661 197.938L56.2169 169.967V114.041L8.17011 86.0704L0.0165056 90.8093V89.2571L7.49339 84.8981V28.9727L0.0165056 24.6136V23.0285L8.17011 27.7839L56.2004 -0.187012V-56.1123L8.1536 -84.0833L0 -79.3278V-80.8799L7.47689 -85.2391V-141.164L0 -145.523V-147.109L8.1536 -142.353L56.1839 -170.324V-180H57.5209V-170.324L105.551 -142.353L153.582 -170.324V-180H154.918V-170.324L202.949 -142.353L250.979 -170.324V-180H252.316V-170.324L300.346 -142.353L348.377 -170.324V-180H349.714V-170.324L397.76 -142.353L445.791 -170.324V-180H447.128V-170.324L495.175 -142.353L543.205 -170.324V-180H544.542V-170.324L592.572 -142.353L640.602 -170.324V-180H641.939V-170.324L689.97 -142.353L738 -170.324V-180H739.337V-170.324L787.384 -142.353L835.414 -170.324V-180H836.751V-170.324L884.781 -142.353L932.812 -170.324V-180H934.149V-170.324L982.179 -142.353L1030.21 -170.324V-180H1031.55V-170.324L1079.58 -142.353L1127.61 -170.324V-180H1128.94V-170.324L1176.99 -142.353L1225.02 -170.324V-180H1226.36V-170.324L1274.4 -142.353L1279.75 -145.457V-143.872L1280 -143.905ZM1273.99 84.8981V28.9727L1225.95 1.00183L1177.91 28.9727V84.8981L1225.95 112.869L1273.98 84.8981H1273.99ZM155.017 284.195V340.12L203.048 368.091L251.078 340.12V284.195L203.048 256.224L155.017 284.195ZM202.388 255.052V199.126L154.357 171.155L106.327 199.126V255.052L154.357 283.023L202.388 255.052ZM203.725 255.052L251.755 283.023L299.785 255.052V199.126L251.755 171.155L203.725 199.126V255.052ZM252.432 284.195V340.12L300.462 368.091L348.492 340.12V284.195L300.462 256.224L252.432 284.195ZM301.139 255.052L349.169 283.023L397.216 255.052V199.126L349.169 171.155L301.139 199.126V255.052ZM349.846 284.195V340.12L397.893 368.091L445.923 340.12V284.195L397.893 256.224L349.862 284.195H349.846ZM398.553 255.052L446.583 283.023L494.613 255.052V199.126L446.567 171.155L398.536 199.126V255.052H398.553ZM447.26 284.195V340.12L495.307 368.091L543.337 340.12V284.195L495.29 256.224L447.26 284.195ZM495.967 255.052L543.997 283.023L592.027 255.052V199.126L543.997 171.155L495.967 199.126V255.052ZM544.674 284.195V340.12L592.704 368.091L640.735 340.12V284.195L592.704 256.224L544.674 284.195ZM593.381 255.052L641.411 283.023L689.442 255.052V199.126L641.411 171.155L593.381 199.126V255.052ZM642.088 284.195V340.12L690.118 368.091L738.149 340.12V284.195L690.118 256.224L642.088 284.195ZM690.795 255.052L738.825 283.023L786.856 255.052V199.126L738.825 171.155L690.795 199.126V255.052ZM739.502 284.195V340.12L787.549 368.091L835.579 340.12V284.195L787.549 256.224L739.519 284.195H739.502ZM788.209 255.052L836.239 283.023L884.27 255.052V199.126L836.223 171.155L788.193 199.126V255.052H788.209ZM836.916 284.195V340.12L884.946 368.091L932.977 340.12V284.195L884.946 256.224L836.916 284.195ZM885.623 255.052L933.654 283.023L981.684 255.052V199.126L933.654 171.155L885.623 199.126V255.052ZM934.33 284.195V340.12L982.361 368.091L1030.39 340.12V284.195L982.361 256.224L934.33 284.195ZM983.037 255.052L1031.08 283.023L1079.11 255.052V199.126L1031.08 171.155L983.037 199.126V255.052ZM1031.74 284.195V340.12L1079.77 368.091L1127.81 340.12V284.195L1079.77 256.224L1031.74 284.195ZM1080.45 255.052L1128.48 283.023L1176.53 255.052V199.126L1128.48 171.155L1080.45 199.126V255.052ZM1129.16 284.195V340.12L1177.21 368.091L1225.24 340.12V284.195L1177.21 256.224L1129.17 284.195H1129.16ZM1177.19 426.378L1129.16 454.349V510.274L1177.21 538.245L1225.24 510.274V454.349L1177.21 426.378H1177.19ZM1176.51 425.222V369.297L1128.47 341.326L1080.43 369.297V425.222L1128.47 453.193L1176.51 425.222ZM1127.81 454.365L1079.77 426.394L1031.74 454.365V510.29L1079.77 538.261L1127.81 510.29V454.365ZM1079.1 425.222V369.297L1031.07 341.326L983.021 369.297V425.222L1031.07 453.193L1079.1 425.222ZM1030.39 454.365L982.361 426.394L934.33 454.365V510.29L982.361 538.261L1030.39 510.29V454.365ZM981.684 425.222V369.297L933.654 341.326L885.623 369.297V425.222L933.654 453.193L981.684 425.222ZM932.977 454.365L884.946 426.394L836.916 454.365V510.29L884.946 538.261L932.977 510.29V454.365ZM884.27 425.222V369.297L836.223 341.326L788.193 369.297V425.222L836.223 453.193L884.253 425.222H884.27ZM835.563 454.365L787.532 426.394L739.502 454.365V510.29L787.549 538.261L835.579 510.29V454.365H835.563ZM786.856 425.222V369.297L738.825 341.326L690.795 369.297V425.222L738.825 453.193L786.856 425.222ZM738.149 454.365L690.118 426.394L642.088 454.365V510.29L690.118 538.261L738.149 510.29V454.365ZM689.442 425.222V369.297L641.411 341.326L593.381 369.297V425.222L641.411 453.193L689.442 425.222ZM640.735 454.365L592.704 426.394L544.674 454.365V510.29L592.704 538.261L640.735 510.29V454.365ZM592.027 425.222V369.297L543.997 341.326L495.967 369.297V425.222L543.997 453.193L592.027 425.222ZM543.32 454.365L495.274 426.394L447.243 454.365V510.29L495.29 538.261L543.32 510.29V454.365ZM494.613 425.222V369.297L446.567 341.326L398.536 369.297V425.222L446.567 453.193L494.597 425.222H494.613ZM445.906 454.365L397.876 426.394L349.846 454.365V510.29L397.893 538.261L445.923 510.29V454.365H445.906ZM397.199 425.222V369.297L349.152 341.326L301.122 369.297V425.222L349.152 453.193L397.199 425.222ZM348.492 454.365L300.462 426.394L252.432 454.365V510.29L300.462 538.261L348.492 510.29V454.365ZM299.785 425.222V369.297L251.755 341.326L203.725 369.297V425.222L251.755 453.193L299.785 425.222ZM251.078 454.365L203.048 426.394L155.017 454.365V510.29L203.048 538.261L251.078 510.29V454.365ZM202.371 425.222V369.297L154.341 341.326L106.31 369.297V425.222L154.341 453.193L202.371 425.222ZM153.664 454.365L105.634 426.394L57.6034 454.365V510.29L105.634 538.261L153.664 510.29V454.365ZM153.664 340.137V284.211L105.634 256.241L57.6034 284.211V340.137L105.634 368.108L153.664 340.137ZM153.664 169.983V114.058L105.634 86.0869L57.6034 114.058V169.983L105.634 197.954L153.664 169.983ZM106.294 84.9146L154.324 112.885L202.355 84.9146V28.9893L154.324 1.01837L106.294 28.9893V84.9146ZM155.001 114.058V169.983L203.031 197.954L251.062 169.983V114.058L203.031 86.0869L155.001 114.058ZM203.708 84.9146L251.738 112.885L299.769 84.9146V28.9893L251.738 1.01837L203.708 28.9893V84.9146ZM252.415 114.058V169.983L300.445 197.954L348.476 169.983V114.058L300.445 86.0869L252.415 114.058ZM301.122 84.9146L349.152 112.885L397.199 84.9146V28.9893L349.152 1.01837L301.122 28.9893V84.9146ZM349.829 114.058V169.983L397.876 197.954L445.906 169.983V114.058L397.876 86.0869L349.846 114.058H349.829ZM398.536 84.9146L446.567 112.885L494.597 84.9146V28.9893L446.55 1.01837L398.52 28.9893V84.9146H398.536ZM447.243 114.058V169.983L495.29 197.954L543.32 169.983V114.058L495.274 86.0869L447.243 114.058ZM495.95 84.9146L543.981 112.885L592.011 84.9146V28.9893L543.981 1.01837L495.95 28.9893V84.9146ZM544.657 114.058V169.983L592.688 197.954L640.718 169.983V114.058L592.688 86.0869L544.657 114.058ZM593.364 84.9146L641.395 112.885L689.425 84.9146V28.9893L641.395 1.01837L593.364 28.9893V84.9146ZM642.071 114.058V169.983L690.102 197.954L738.132 169.983V114.058L690.102 86.0869L642.071 114.058ZM690.779 84.9146L738.809 112.885L786.839 84.9146V28.9893L738.809 1.01837L690.779 28.9893V84.9146ZM739.486 114.058V169.983L787.532 197.954L835.563 169.983V114.058L787.532 86.0869L739.502 114.058H739.486ZM788.193 84.9146L836.223 112.885L884.253 84.9146V28.9893L836.206 1.01837L788.176 28.9893V84.9146H788.193ZM836.9 114.058V169.983L884.93 197.954L932.96 169.983V114.058L884.93 86.0869L836.9 114.058ZM885.607 84.9146L933.637 112.885L981.667 84.9146V28.9893L933.637 1.01837L885.607 28.9893V84.9146ZM934.314 114.058V169.983L982.344 197.954L1030.37 169.983V114.058L982.344 86.0869L934.314 114.058ZM983.021 84.9146L1031.07 112.885L1079.1 84.9146V28.9893L1031.07 1.01837L983.021 28.9893V84.9146ZM1031.73 114.058V169.983L1079.76 197.954L1127.79 169.983V114.058L1079.76 86.0869L1031.73 114.058ZM1080.43 84.9146L1128.47 112.885L1176.51 84.9146V28.9893L1128.47 1.01837L1080.43 28.9893V84.9146ZM1129.14 114.058V169.983L1177.19 197.954L1225.22 169.983V114.058L1177.19 86.0869L1129.16 114.058H1129.14ZM1273.93 255.085V199.159L1225.88 171.188L1177.85 199.159V255.085L1225.88 283.056L1273.91 255.085H1273.93ZM1273.93 425.238V369.313L1225.88 341.342L1177.85 369.313V425.238L1225.88 453.209L1273.91 425.238H1273.93ZM1225.9 623.379L1273.93 595.408V539.483L1225.88 511.512L1177.85 539.483V595.408L1225.88 623.379H1225.9ZM1129.14 680.493L1177.17 708.464L1225.2 680.493V624.502L1177.17 596.531L1129.14 624.502V680.46V680.493ZM1176.51 595.392V539.467L1128.47 511.496L1080.43 539.467V595.392L1128.47 623.363L1176.51 595.392ZM1031.73 680.493L1079.76 708.464L1127.79 680.493V624.502L1079.76 596.531L1031.73 624.502V680.46V680.493ZM1079.1 595.392V539.467L1031.07 511.496L983.021 539.467V595.392L1031.07 623.363L1079.1 595.392ZM934.314 680.493L982.344 708.464L1030.37 680.493V624.502L982.344 596.531L934.314 624.502V680.46V680.493ZM981.684 595.392V539.467L933.654 511.496L885.623 539.467V595.392L933.654 623.363L981.684 595.392ZM836.9 680.493L884.93 708.464L932.96 680.493V624.502L884.93 596.531L836.9 624.502V680.46V680.493ZM836.223 623.379L884.253 595.408V539.483L836.206 511.512L788.176 539.483V595.408L836.206 623.379H836.223ZM739.469 680.493L787.499 708.464L835.53 680.493V624.502L787.499 596.531L739.469 624.502V680.46V680.493ZM786.839 595.392V539.467L738.809 511.496L690.779 539.467V595.392L738.809 623.363L786.839 595.392ZM642.055 680.493L690.085 708.464L738.116 680.493V624.502L690.085 596.531L642.055 624.502V680.46V680.493ZM689.425 595.392V539.467L641.395 511.496L593.364 539.467V595.392L641.395 623.363L689.425 595.392ZM544.641 680.493L592.671 708.464L640.702 680.493V624.502L592.671 596.531L544.641 624.502V680.46V680.493ZM592.011 595.392V539.467L543.981 511.496L495.95 539.467V595.392L543.981 623.363L592.011 595.392ZM447.227 680.493L495.257 708.464L543.304 680.493V624.502L495.257 596.531L447.227 624.502V680.46V680.493ZM446.55 623.379L494.58 595.408V539.483L446.534 511.512L398.503 539.483V595.408L446.534 623.379H446.55ZM349.796 680.493L397.826 708.464L445.857 680.493V624.502L397.826 596.531L349.796 624.502V680.46V680.493ZM397.166 595.392V539.467L349.119 511.496L301.089 539.467V595.392L349.119 623.363L397.166 595.392ZM252.448 680.46L300.478 708.431L348.509 680.46V624.502L300.478 596.531L252.448 624.502V680.46ZM299.818 595.359V539.434L251.788 511.463L203.758 539.434V595.359L251.788 623.33L299.818 595.359ZM155.017 680.46L203.048 708.431L251.078 680.46V624.502L203.048 596.531L155.017 624.502V680.46ZM202.388 595.359V539.434L154.357 511.463L106.327 539.434V595.359L154.357 623.33L202.388 595.359ZM57.6034 680.46L105.634 708.431L153.664 680.46V624.502L105.634 596.531L57.6034 624.502V680.46ZM8.89634 539.45V595.375L56.9267 623.346L104.957 595.375V539.45L56.9267 511.479L8.89634 539.45ZM8.89634 369.297V425.222L56.9267 453.193L104.957 425.222V369.297L56.9267 341.326L8.89634 369.297ZM8.89634 199.143V255.068L56.9267 283.039L104.957 255.068V199.143L56.9267 171.172L8.89634 199.143ZM8.89634 28.9893V84.9146L56.9267 112.885L104.957 84.9146V28.9893L56.9267 1.01837L8.89634 28.9893ZM104.974 -141.164L56.9432 -169.135L8.91284 -141.164V-85.2391L56.9432 -57.2682L104.974 -85.2391V-141.164ZM57.6034 -56.0958V-0.170471L105.634 27.8004L153.664 -0.170471V-56.0958L105.634 -84.0667L57.6034 -56.0958ZM202.388 -141.164L154.357 -169.135L106.327 -141.164V-85.2391L154.357 -57.2682L202.388 -85.2391V-141.164ZM155.017 -56.0958V-0.170471L203.048 27.8004L251.078 -0.170471V-56.0958L203.048 -84.0667L155.017 -56.0958ZM299.802 -141.164L251.771 -169.135L203.741 -141.164V-85.2391L251.771 -57.2682L299.802 -85.2391V-141.164ZM252.432 -56.0958V-0.170471L300.462 27.8004L348.492 -0.170471V-56.0958L300.462 -84.0667L252.432 -56.0958ZM397.216 -141.164L349.169 -169.135L301.139 -141.164V-85.2391L349.169 -57.2682L397.216 -85.2391V-141.164ZM397.893 -84.0833L349.862 -56.1123V-0.187012L397.909 27.7839L445.939 -0.187012V-56.1123L397.909 -84.0833H397.893ZM494.646 -141.164L446.6 -169.135L398.569 -141.164V-85.2391L446.6 -57.2682L494.63 -85.2391V-141.164H494.646ZM495.323 -84.0833L447.293 -56.1123V-0.187012L495.34 27.7839L543.37 -0.187012V-56.1123L495.323 -84.0833ZM592.077 -141.164L544.047 -169.135L496.016 -141.164V-85.2391L544.047 -57.2682L592.077 -85.2391V-141.164ZM544.707 -56.0958V-0.170471L592.737 27.8004L640.768 -0.170471V-56.0958L592.737 -84.0667L544.707 -56.0958ZM689.491 -141.164L641.461 -169.135L593.43 -141.164V-85.2391L641.461 -57.2682L689.491 -85.2391V-141.164ZM642.121 -56.0958V-0.170471L690.151 27.8004L738.182 -0.170471V-56.0958L690.151 -84.0667L642.121 -56.0958ZM786.905 -141.164L738.875 -169.135L690.845 -141.164V-85.2391L738.875 -57.2682L786.905 -85.2391V-141.164ZM787.582 -84.0833L739.552 -56.1123V-0.187012L787.598 27.7839L835.629 -0.187012V-56.1123L787.598 -84.0833H787.582ZM884.336 -141.164L836.289 -169.135L788.259 -141.164V-85.2391L836.289 -57.2682L884.319 -85.2391V-141.164H884.336ZM836.966 -56.0958V-0.170471L884.996 27.8004L933.026 -0.170471V-56.0958L884.996 -84.0667L836.966 -56.0958ZM981.75 -141.164L933.719 -169.135L885.689 -141.164V-85.2391L933.719 -57.2682L981.75 -85.2391V-141.164ZM934.38 -56.0958V-0.170471L982.41 27.8004L1030.44 -0.170471V-56.0958L982.41 -84.0667L934.38 -56.0958ZM1079.16 -141.164L1031.13 -169.135L983.087 -141.164V-85.2391L1031.13 -57.2682L1079.16 -85.2391V-141.164ZM1031.79 -56.0958V-0.170471L1079.82 27.8004L1127.85 -0.170471V-56.0958L1079.82 -84.0667L1031.79 -56.0958ZM1176.58 -141.164L1128.53 -169.135L1080.5 -141.164V-85.2391L1128.53 -57.2682L1176.58 -85.2391V-141.164ZM1177.25 -84.0833L1129.22 -56.1123V-0.187012L1177.27 27.7839L1225.3 -0.187012V-56.1123L1177.27 -84.0833H1177.25ZM1274.01 -141.164L1225.96 -169.135L1177.93 -141.164V-85.2391L1225.96 -57.2682L1273.99 -85.2391V-141.164H1274.01Z" fill="url(#paint1_linear_72_5295)"/>
<path style="mix-blend-mode:color-dodge" d="M810.411 11.6497C798.709 11.5276 787.007 11.4055 775.305 11.2833" stroke="url(#paint2_linear_72_5295)" stroke-width="2" stroke-miterlimit="10"/>
<path style="mix-blend-mode:color-dodge" d="M744.147 425.942C744.147 419.674 739.059 414.586 732.791 414.586C726.523 414.586 721.435 419.674 721.435 425.942C721.435 432.21 726.523 437.298 732.791 437.298C739.059 437.298 744.147 432.21 744.147 425.942Z" fill="url(#paint3_radial_72_5295)"/>
<path style="mix-blend-mode:color-dodge" d="M268.129 213.332C268.129 207.063 263.041 201.975 256.773 201.975C250.505 201.975 245.417 207.063 245.417 213.332C245.417 219.6 250.505 224.688 256.773 224.688C263.041 224.688 268.129 219.6 268.129 213.332Z" fill="url(#paint4_radial_72_5295)"/>
<path style="mix-blend-mode:color-dodge" d="M913.063 518.052C919.335 518.052 924.42 523.137 924.42 529.408C924.42 535.68 919.335 540.765 913.063 540.765C906.792 540.765 901.707 535.68 901.707 529.408C901.707 523.137 906.792 518.052 913.063 518.052Z" fill="url(#paint5_radial_72_5295)"/>
<path style="mix-blend-mode:color-dodge" d="M613.085 623.879C619.356 623.879 624.441 628.964 624.441 635.235C624.441 641.507 619.356 646.592 613.085 646.592C606.813 646.592 601.729 641.507 601.729 635.235C601.729 628.964 606.813 623.879 613.085 623.879Z" fill="url(#paint6_radial_72_5295)"/>
<path style="mix-blend-mode:color-dodge" d="M1153.25 306.398C1159.52 306.398 1164.61 311.483 1164.61 317.754C1164.61 324.026 1159.52 329.11 1153.25 329.11C1146.98 329.11 1141.89 324.026 1141.89 317.754C1141.89 311.483 1146.98 306.398 1153.25 306.398Z" fill="url(#paint7_radial_72_5295)"/>
<path style="mix-blend-mode:color-dodge" d="M249.833 483.129C256.105 483.129 261.189 488.214 261.189 494.485C261.189 500.757 256.105 505.842 249.833 505.842C243.561 505.842 238.477 500.757 238.477 494.485C238.477 488.214 243.561 483.129 249.833 483.129Z" fill="url(#paint8_radial_72_5295)"/>
<path style="mix-blend-mode:color-dodge" d="M433.24 380.803C439.511 380.803 444.596 385.887 444.596 392.159C444.596 398.431 439.511 403.515 433.24 403.515C426.968 403.515 421.884 398.431 421.884 392.159C421.884 385.887 426.968 380.803 433.24 380.803Z" fill="url(#paint9_radial_72_5295)"/>
<path style="mix-blend-mode:color-dodge" d="M684.294 180.973C684.294 174.705 679.206 169.617 672.938 169.617C666.67 169.617 661.582 174.705 661.582 180.973C661.582 187.241 666.67 192.329 672.938 192.329C679.206 192.329 684.294 187.241 684.294 180.973Z" fill="url(#paint10_radial_72_5295)"/>
<path style="mix-blend-mode:color-dodge" d="M372.939 695.781C379.21 695.781 384.295 700.865 384.295 707.137C384.295 713.409 379.21 718.493 372.939 718.493C366.667 718.493 361.583 713.409 361.583 707.137C361.583 700.865 366.667 695.781 372.939 695.781Z" fill="url(#paint11_radial_72_5295)"/>
<path style="mix-blend-mode:color-dodge" d="M1275.17 594.024C1281.45 594.024 1286.53 599.108 1286.53 605.38C1286.53 611.652 1281.45 616.736 1275.17 616.736C1268.9 616.736 1263.82 611.652 1263.82 605.38C1263.82 599.108 1268.9 594.024 1275.17 594.024Z" fill="url(#paint12_radial_72_5295)"/>
<path style="mix-blend-mode:color-dodge" d="M1273.14 587.919C1279.41 587.919 1284.5 593.003 1284.5 599.275C1284.5 605.546 1279.41 610.631 1273.14 610.631C1266.87 610.631 1261.78 605.546 1261.78 599.275C1261.78 593.003 1266.87 587.919 1273.14 587.919Z" fill="url(#paint13_radial_72_5295)"/>
<path style="mix-blend-mode:color-dodge" d="M911.028 242.984C917.3 242.984 922.384 248.068 922.384 254.34C922.384 260.611 917.3 265.696 911.028 265.696C904.756 265.696 899.672 260.611 899.672 254.34C899.672 248.068 904.756 242.984 911.028 242.984Z" fill="url(#paint14_radial_72_5295)"/>
<g style="mix-blend-mode:color-dodge" filter="url(#filter0_d_72_5295)">
<path d="M1153.25 532.034L1204.64 504.071" stroke="url(#paint15_radial_72_5295)" stroke-width="3" stroke-miterlimit="10" style="mix-blend-mode:color-dodge"/>
</g>
<g style="mix-blend-mode:color-dodge" filter="url(#filter1_d_72_5295)">
<path d="M622.019 422.096L673.406 394.113" stroke="url(#paint16_radial_72_5295)" stroke-width="3" stroke-miterlimit="10" style="mix-blend-mode:color-dodge"/>
</g>
<g style="mix-blend-mode:color-dodge" filter="url(#filter2_d_72_5295)">
<path d="M370.903 216.221L422.311 188.259" stroke="url(#paint17_radial_72_5295)" stroke-width="3" stroke-miterlimit="10" style="mix-blend-mode:color-dodge"/>
</g>
<g style="mix-blend-mode:color-dodge" filter="url(#filter3_d_72_5295)">
<path d="M797.916 738.946L849.323 710.983" stroke="url(#paint18_radial_72_5295)" stroke-width="3" stroke-miterlimit="10" style="mix-blend-mode:color-dodge"/>
</g>
<g style="mix-blend-mode:color-dodge" filter="url(#filter4_d_72_5295)">
<path d="M854.289 214.186L905.696 186.224" stroke="url(#paint19_radial_72_5295)" stroke-width="3" stroke-miterlimit="10" style="mix-blend-mode:color-dodge"/>
</g>
<g style="mix-blend-mode:color-dodge" opacity="0.58" filter="url(#filter5_d_72_5295)">
<path d="M547.329 528.228L495.922 500.265" stroke="url(#paint20_radial_72_5295)" stroke-width="3" stroke-miterlimit="10" style="mix-blend-mode:color-dodge"/>
</g>
<g style="mix-blend-mode:color-dodge" opacity="0.58" filter="url(#filter6_d_72_5295)">
<path d="M964.797 630.738L913.389 602.755" stroke="url(#paint21_radial_72_5295)" stroke-width="3" stroke-miterlimit="10" style="mix-blend-mode:color-dodge"/>
</g>
<path style="mix-blend-mode:color-dodge" d="M80.5302 711.919C80.0621 710.637 78.7393 710.067 77.5386 710.149C76.7449 710.8 75.7273 712.021 76.175 713.283C76.8263 714.484 78.1084 715.074 79.3498 714.687C79.3498 714.687 80.9983 713.161 80.5302 711.919Z" fill="url(#paint22_radial_72_5295)"/>
<path style="mix-blend-mode:color-dodge" d="M419.523 710.088C419.665 708.541 418.342 708.012 416.999 708.582C415.676 709.07 415.31 709.884 415.188 711.512C415.758 712.632 417.06 713.242 418.302 712.774C419.706 712.265 420.174 711.024 419.523 710.088Z" fill="url(#paint23_radial_72_5295)"/>
<path style="mix-blend-mode:color-dodge" d="M361.053 699.993C360.585 698.711 359.262 698.141 358.062 698.223C357.268 698.874 356.25 700.095 356.698 701.357C357.349 702.558 358.631 703.148 359.873 702.761C359.873 702.761 361.521 701.235 361.053 699.993Z" fill="url(#paint24_radial_72_5295)"/>
<path style="mix-blend-mode:color-dodge" d="M401.349 702.68C400.881 701.398 399.558 700.828 398.357 700.909C397.564 701.561 396.546 702.782 396.994 704.043C397.645 705.244 398.927 705.834 400.169 705.448C400.169 705.448 401.817 703.921 401.349 702.68Z" fill="url(#paint25_radial_72_5295)"/>
<path style="mix-blend-mode:color-dodge" d="M145.166 682.837C144.23 678.808 139.285 676.63 134.583 677.81C130.737 679.255 128.356 683.59 129.679 687.844C130.981 692.28 136.171 694.987 140.221 692.972C144.495 691.69 146.937 687.274 145.166 682.837Z" fill="url(#paint26_radial_72_5295)"/>
<path style="mix-blend-mode:color-dodge" d="M514.299 697.673C512.956 693.379 508.255 690.754 503.492 691.914C499.443 693.929 497.489 698.386 498.384 702.436C500.155 707.076 504.917 709.599 509.455 707.869C513.709 706.567 516.11 702.252 514.299 697.673Z" fill="url(#paint27_radial_72_5295)"/>
<path style="mix-blend-mode:color-dodge" d="M137.534 716.58C137.005 715.318 135.642 714.789 134.99 715.074C133.729 715.522 133.118 716.905 133.118 716.905C134.095 718.33 134.807 719.185 136.558 718.941C137.209 718.615 137.534 717.72 137.534 716.58Z" fill="url(#paint28_radial_72_5295)"/>
<path style="mix-blend-mode:color-dodge" d="M190.529 718.065C190 716.804 188.616 716.275 187.985 716.559C186.724 717.007 186.113 718.391 186.113 718.391C187.09 719.816 187.802 720.67 189.552 720.426C190.204 720.101 190.529 719.205 190.529 718.065Z" fill="url(#paint29_radial_72_5295)"/>
<path style="mix-blend-mode:color-dodge" d="M140.933 696.778C140.445 695.435 139.081 694.824 137.982 695.007C136.252 695.191 135.642 696.595 136.151 697.877C136.354 698.956 137.575 699.566 139.346 699.2C140.424 699.24 140.994 697.816 140.933 696.778Z" fill="url(#paint30_radial_72_5295)"/>
<path style="mix-blend-mode:color-dodge" d="M133.24 657.011C133.098 655.953 131.327 655.2 130.249 655.221C128.966 655.648 128.498 656.564 129.088 657.866C129.577 659.067 130.94 659.718 131.551 659.433C133.24 659.169 133.891 657.785 133.22 656.991L133.24 657.011Z" fill="url(#paint31_radial_72_5295)"/>
<g opacity="0.97">
<g style="mix-blend-mode:overlay">
<path style="mix-blend-mode:color-dodge" d="M913.308 740.411C929.345 764.711 941.352 785.042 940.151 785.856C938.93 786.65 924.949 767.621 908.912 743.321C892.875 719.022 880.868 698.691 882.068 697.877C883.29 697.083 897.271 716.112 913.308 740.411Z" fill="url(#paint32_radial_72_5295)"/>
</g>
<g style="mix-blend-mode:overlay">
<path style="mix-blend-mode:color-dodge" d="M912.392 740.818C930.26 767.886 944.12 790.211 943.367 790.72C942.614 791.229 927.513 769.697 909.644 742.63C891.776 715.562 877.917 693.237 878.67 692.728C879.423 692.219 894.523 713.751 912.392 740.818Z" fill="url(#paint33_radial_72_5295)"/>
</g>
</g>
<g style="mix-blend-mode:overlay">
<path style="mix-blend-mode:color-dodge" d="M909.726 739.434C934.025 723.398 954.356 711.39 955.17 712.591C955.964 713.812 936.935 727.793 912.636 743.83C888.336 759.867 868.005 771.874 867.191 770.674C866.398 769.453 885.426 755.471 909.726 739.434Z" fill="url(#paint34_radial_72_5295)"/>
</g>
<g style="mix-blend-mode:overlay">
<path style="mix-blend-mode:color-dodge" d="M910.113 740.35C937.18 722.482 959.505 708.622 960.014 709.375C960.523 710.128 938.991 725.229 911.924 743.098C884.856 760.966 862.531 774.825 862.022 774.072C861.513 773.319 883.045 758.219 910.113 740.35Z" fill="url(#paint35_radial_72_5295)"/>
</g>
<path style="mix-blend-mode:color-dodge" d="M36.9579 271.048C35.6758 271.048 34.4751 271.557 33.5593 272.452C31.6869 274.325 31.6869 277.357 33.5593 279.229C34.4751 280.145 35.6758 280.633 36.9579 280.633C38.2401 280.633 39.4408 280.145 40.3566 279.229C42.2289 277.357 42.2289 274.325 40.3566 272.452C39.4408 271.536 38.2401 271.048 36.9579 271.048Z" fill="url(#paint36_radial_72_5295)"/>
<path d="M35.0043 273.897C36.0829 272.819 37.8331 272.819 38.9117 273.897C39.9904 274.976 39.9904 276.726 38.9117 277.805C37.8331 278.883 36.0829 278.883 35.0043 277.805C33.9257 276.726 33.9257 274.976 35.0043 273.897Z" fill="white"/>
</g>
<defs>
<filter id="filter0_d_72_5295" x="1146.53" y="496.753" width="64.8211" height="42.5978" filterUnits="userSpaceOnUse" color-interpolation-filters="sRGB">
<feFlood flood-opacity="0" result="BackgroundImageFix"/>
<feColorMatrix in="SourceAlpha" type="matrix" values="0 0 0 0 0 0 0 0 0 0 0 0 0 0 0 0 0 0 127 0" result="hardAlpha"/>
<feOffset/>
<feGaussianBlur stdDeviation="3"/>
<feColorMatrix type="matrix" values="0 0 0 0 1 0 0 0 0 1 0 0 0 0 1 0 0 0 0.2 0"/>
<feBlend mode="normal" in2="BackgroundImageFix" result="effect1_dropShadow_72_5295"/>
<feBlend mode="normal" in="SourceGraphic" in2="effect1_dropShadow_72_5295" result="shape"/>
</filter>
<filter id="filter1_d_72_5295" x="615.301" y="386.795" width="64.8219" height="42.6178" filterUnits="userSpaceOnUse" color-interpolation-filters="sRGB">
<feFlood flood-opacity="0" result="BackgroundImageFix"/>
<feColorMatrix in="SourceAlpha" type="matrix" values="0 0 0 0 0 0 0 0 0 0 0 0 0 0 0 0 0 0 127 0" result="hardAlpha"/>
<feOffset/>
<feGaussianBlur stdDeviation="3"/>
<feColorMatrix type="matrix" values="0 0 0 0 1 0 0 0 0 1 0 0 0 0 1 0 0 0 0.2 0"/>
<feBlend mode="normal" in2="BackgroundImageFix" result="effect1_dropShadow_72_5295"/>
<feBlend mode="normal" in="SourceGraphic" in2="effect1_dropShadow_72_5295" result="shape"/>
</filter>
<filter id="filter2_d_72_5295" x="364.187" y="180.941" width="64.8411" height="42.5981" filterUnits="userSpaceOnUse" color-interpolation-filters="sRGB">
<feFlood flood-opacity="0" result="BackgroundImageFix"/>
<feColorMatrix in="SourceAlpha" type="matrix" values="0 0 0 0 0 0 0 0 0 0 0 0 0 0 0 0 0 0 127 0" result="hardAlpha"/>
<feOffset/>
<feGaussianBlur stdDeviation="3"/>
<feColorMatrix type="matrix" values="0 0 0 0 1 0 0 0 0 1 0 0 0 0 1 0 0 0 0.2 0"/>
<feBlend mode="normal" in2="BackgroundImageFix" result="effect1_dropShadow_72_5295"/>
<feBlend mode="normal" in="SourceGraphic" in2="effect1_dropShadow_72_5295" result="shape"/>
</filter>
<filter id="filter3_d_72_5295" x="791.199" y="703.666" width="64.8411" height="42.598" filterUnits="userSpaceOnUse" color-interpolation-filters="sRGB">
<feFlood flood-opacity="0" result="BackgroundImageFix"/>
<feColorMatrix in="SourceAlpha" type="matrix" values="0 0 0 0 0 0 0 0 0 0 0 0 0 0 0 0 0 0 127 0" result="hardAlpha"/>
<feOffset/>
<feGaussianBlur stdDeviation="3"/>
<feColorMatrix type="matrix" values="0 0 0 0 1 0 0 0 0 1 0 0 0 0 1 0 0 0 0.2 0"/>
<feBlend mode="normal" in2="BackgroundImageFix" result="effect1_dropShadow_72_5295"/>
<feBlend mode="normal" in="SourceGraphic" in2="effect1_dropShadow_72_5295" result="shape"/>
</filter>
<filter id="filter4_d_72_5295" x="847.572" y="178.906" width="64.8411" height="42.5981" filterUnits="userSpaceOnUse" color-interpolation-filters="sRGB">
<feFlood flood-opacity="0" result="BackgroundImageFix"/>
<feColorMatrix in="SourceAlpha" type="matrix" values="0 0 0 0 0 0 0 0 0 0 0 0 0 0 0 0 0 0 127 0" result="hardAlpha"/>
<feOffset/>
<feGaussianBlur stdDeviation="3"/>
<feColorMatrix type="matrix" values="0 0 0 0 1 0 0 0 0 1 0 0 0 0 1 0 0 0 0.2 0"/>
<feBlend mode="normal" in2="BackgroundImageFix" result="effect1_dropShadow_72_5295"/>
<feBlend mode="normal" in="SourceGraphic" in2="effect1_dropShadow_72_5295" result="shape"/>
</filter>
<filter id="filter5_d_72_5295" x="489.205" y="492.948" width="64.8411" height="42.5981" filterUnits="userSpaceOnUse" color-interpolation-filters="sRGB">
<feFlood flood-opacity="0" result="BackgroundImageFix"/>
<feColorMatrix in="SourceAlpha" type="matrix" values="0 0 0 0 0 0 0 0 0 0 0 0 0 0 0 0 0 0 127 0" result="hardAlpha"/>
<feOffset/>
<feGaussianBlur stdDeviation="3"/>
<feColorMatrix type="matrix" values="0 0 0 0 1 0 0 0 0 1 0 0 0 0 1 0 0 0 0.2 0"/>
<feBlend mode="normal" in2="BackgroundImageFix" result="effect1_dropShadow_72_5295"/>
<feBlend mode="normal" in="SourceGraphic" in2="effect1_dropShadow_72_5295" result="shape"/>
</filter>
<filter id="filter6_d_72_5295" x="906.672" y="595.437" width="64.8418" height="42.618" filterUnits="userSpaceOnUse" color-interpolation-filters="sRGB">
<feFlood flood-opacity="0" result="BackgroundImageFix"/>
<feColorMatrix in="SourceAlpha" type="matrix" values="0 0 0 0 0 0 0 0 0 0 0 0 0 0 0 0 0 0 127 0" result="hardAlpha"/>
<feOffset/>
<feGaussianBlur stdDeviation="3"/>
<feColorMatrix type="matrix" values="0 0 0 0 1 0 0 0 0 1 0 0 0 0 1 0 0 0 0.2 0"/>
<feBlend mode="normal" in2="BackgroundImageFix" result="effect1_dropShadow_72_5295"/>
<feBlend mode="normal" in="SourceGraphic" in2="effect1_dropShadow_72_5295" result="shape"/>
</filter>
<linearGradient id="paint0_linear_72_5295" x1="640.008" y1="-567.22" x2="640.008" y2="653.017" gradientUnits="userSpaceOnUse">
<stop stop-color="#003A4F" stop-opacity="0"/>
<stop offset="0.22" stop-color="#497281" stop-opacity="0.29"/>
<stop offset="0.43" stop-color="#8AA4AE" stop-opacity="0.54"/>
<stop offset="0.62" stop-color="#BCCBD1" stop-opacity="0.74"/>
<stop offset="0.78" stop-color="#E0E7EA" stop-opacity="0.88"/>
<stop offset="0.91" stop-color="#F6F8F9" stop-opacity="0.97"/>
<stop offset="1" stop-color="white"/>
</linearGradient>
<linearGradient id="paint1_linear_72_5295" x1="23.9987" y1="-511.061" x2="25.6505" y2="710" gradientUnits="userSpaceOnUse">
<stop stop-color="#003A4F" stop-opacity="0"/>
<stop offset="0.22" stop-color="#497281" stop-opacity="0.29"/>
<stop offset="0.43" stop-color="#8AA4AE" stop-opacity="0.54"/>
<stop offset="0.62" stop-color="#BCCBD1" stop-opacity="0.74"/>
<stop offset="0.78" stop-color="#E0E7EA" stop-opacity="0.88"/>
<stop offset="0.91" stop-color="#F6F8F9" stop-opacity="0.97"/>
<stop offset="1" stop-color="white"/>
</linearGradient>
<linearGradient id="paint2_linear_72_5295" x1="775.285" y1="11.4665" x2="810.432" y2="11.4665" gradientUnits="userSpaceOnUse">
<stop stop-color="#C7E7F5"/>
<stop offset="0.14" stop-color="#C2E4F3"/>
<stop offset="0.28" stop-color="#B6DEEF"/>
<stop offset="0.42" stop-color="#A1D4E8"/>
<stop offset="0.57" stop-color="#83C5DF"/>
<stop offset="0.72" stop-color="#5EB2D2"/>
<stop offset="0.87" stop-color="#309CC3"/>
<stop offset="1" stop-color="#0084B4"/>
</linearGradient>
<radialGradient id="paint3_radial_72_5295" cx="0" cy="0" r="1" gradientUnits="userSpaceOnUse" gradientTransform="translate(732.791 425.942) scale(11.356 11.3561)">
<stop stop-color="#C7E7F5"/>
<stop offset="0.65" stop-color="#406C7F"/>
<stop offset="0.99" stop-color="#003246"/>
</radialGradient>
<radialGradient id="paint4_radial_72_5295" cx="0" cy="0" r="1" gradientUnits="userSpaceOnUse" gradientTransform="translate(256.773 213.332) scale(11.3561 11.3561)">
<stop stop-color="#C7E7F5"/>
<stop offset="0.65" stop-color="#406C7F"/>
<stop offset="0.99" stop-color="#003246"/>
</radialGradient>
<radialGradient id="paint5_radial_72_5295" cx="0" cy="0" r="1" gradientUnits="userSpaceOnUse" gradientTransform="translate(913.063 529.408) scale(11.3561)">
<stop stop-color="#C7E7F5"/>
<stop offset="0.65" stop-color="#406C7F"/>
<stop offset="0.99" stop-color="#003246"/>
</radialGradient>
<radialGradient id="paint6_radial_72_5295" cx="0" cy="0" r="1" gradientUnits="userSpaceOnUse" gradientTransform="translate(613.085 635.235) scale(11.3561)">
<stop stop-color="#C7E7F5"/>
<stop offset="0.65" stop-color="#406C7F"/>
<stop offset="0.99" stop-color="#003246"/>
</radialGradient>
<radialGradient id="paint7_radial_72_5295" cx="0" cy="0" r="1" gradientUnits="userSpaceOnUse" gradientTransform="translate(1153.25 317.754) scale(11.3561 11.356)">
<stop stop-color="#C7E7F5"/>
<stop offset="0.65" stop-color="#406C7F"/>
<stop offset="0.99" stop-color="#003246"/>
</radialGradient>
<radialGradient id="paint8_radial_72_5295" cx="0" cy="0" r="1" gradientUnits="userSpaceOnUse" gradientTransform="translate(249.833 494.485) scale(11.3561)">
<stop stop-color="#C7E7F5"/>
<stop offset="0.65" stop-color="#406C7F"/>
<stop offset="0.99" stop-color="#003246"/>
</radialGradient>
<radialGradient id="paint9_radial_72_5295" cx="0" cy="0" r="1" gradientUnits="userSpaceOnUse" gradientTransform="translate(433.24 392.159) scale(11.3561)">
<stop stop-color="#C7E7F5"/>
<stop offset="0.65" stop-color="#406C7F"/>
<stop offset="0.99" stop-color="#003246"/>
</radialGradient>
<radialGradient id="paint10_radial_72_5295" cx="0" cy="0" r="1" gradientUnits="userSpaceOnUse" gradientTransform="translate(672.938 180.973) scale(11.3561)">
<stop stop-color="#C7E7F5"/>
<stop offset="0.65" stop-color="#406C7F"/>
<stop offset="0.99" stop-color="#003246"/>
</radialGradient>
<radialGradient id="paint11_radial_72_5295" cx="0" cy="0" r="1" gradientUnits="userSpaceOnUse" gradientTransform="translate(372.939 707.137) scale(11.356 11.3561)">
<stop stop-color="#C7E7F5"/>
<stop offset="0.65" stop-color="#406C7F"/>
<stop offset="0.99" stop-color="#003246"/>
</radialGradient>
<radialGradient id="paint12_radial_72_5295" cx="0" cy="0" r="1" gradientUnits="userSpaceOnUse" gradientTransform="translate(1275.17 605.38) scale(11.356 11.3561)">
<stop stop-color="#C7E7F5"/>
<stop offset="0.65" stop-color="#406C7F"/>
<stop offset="0.99" stop-color="#003246"/>
</radialGradient>
<radialGradient id="paint13_radial_72_5295" cx="0" cy="0" r="1" gradientUnits="userSpaceOnUse" gradientTransform="translate(1273.14 599.275) scale(11.356 11.3561)">
<stop stop-color="#C7E7F5"/>
<stop offset="0.65" stop-color="#406C7F"/>
<stop offset="0.99" stop-color="#003246"/>
</radialGradient>
<radialGradient id="paint14_radial_72_5295" cx="0" cy="0" r="1" gradientUnits="userSpaceOnUse" gradientTransform="translate(911.028 254.34) scale(11.3561)">
<stop stop-color="#C7E7F5"/>
<stop offset="0.65" stop-color="#406C7F"/>
<stop offset="0.99" stop-color="#003246"/>
</radialGradient>
<radialGradient id="paint15_radial_72_5295" cx="0" cy="0" r="1" gradientUnits="userSpaceOnUse" gradientTransform="translate(1178.94 518.006) rotate(61.45) scale(20.7991 20.7991)">
<stop stop-color="#C7E7F5"/>
<stop offset="0.65" stop-color="#406C7F"/>
<stop offset="0.99" stop-color="#003246"/>
</radialGradient>
<radialGradient id="paint16_radial_72_5295" cx="0" cy="0" r="1" gradientUnits="userSpaceOnUse" gradientTransform="translate(647.72 408.074) rotate(61.45) scale(20.7991)">
<stop stop-color="#C7E7F5"/>
<stop offset="0.65" stop-color="#406C7F"/>
<stop offset="0.99" stop-color="#003246"/>
</radialGradient>
<radialGradient id="paint17_radial_72_5295" cx="0" cy="0" r="1" gradientUnits="userSpaceOnUse" gradientTransform="translate(396.603 202.201) rotate(61.45) scale(20.7991 20.7991)">
<stop stop-color="#C7E7F5"/>
<stop offset="0.65" stop-color="#406C7F"/>
<stop offset="0.99" stop-color="#003246"/>
</radialGradient>
<radialGradient id="paint18_radial_72_5295" cx="0" cy="0" r="1" gradientUnits="userSpaceOnUse" gradientTransform="translate(823.645 724.942) rotate(61.45) scale(20.7991 20.7991)">
<stop stop-color="#C7E7F5"/>
<stop offset="0.65" stop-color="#406C7F"/>
<stop offset="0.99" stop-color="#003246"/>
</radialGradient>
<radialGradient id="paint19_radial_72_5295" cx="0" cy="0" r="1" gradientUnits="userSpaceOnUse" gradientTransform="translate(892.944 224.157) rotate(61.58) scale(0.416388 20.8194)">
<stop stop-color="#C7E7F5"/>
<stop offset="0.65" stop-color="#406C7F"/>
<stop offset="0.99" stop-color="#003246"/>
</radialGradient>
<radialGradient id="paint20_radial_72_5295" cx="0" cy="0" r="1" gradientUnits="userSpaceOnUse" gradientTransform="translate(535.609 488.467) rotate(118.42) scale(0.416389 20.8194)">
<stop stop-color="#C7E7F5"/>
<stop offset="0.01" stop-color="#BFDFEE"/>
<stop offset="0.1" stop-color="#92B7C6"/>
<stop offset="0.19" stop-color="#6B93A4"/>
<stop offset="0.28" stop-color="#497586"/>
<stop offset="0.38" stop-color="#2E5C6F"/>
<stop offset="0.49" stop-color="#1A495C"/>
<stop offset="0.62" stop-color="#0B3C4F"/>
<stop offset="0.76" stop-color="#023448"/>
<stop offset="0.99" stop-color="#003246"/>
</radialGradient>
<radialGradient id="paint21_radial_72_5295" cx="0" cy="0" r="1" gradientUnits="userSpaceOnUse" gradientTransform="translate(955.312 586.8) rotate(118.42) scale(0.416389 20.8194)">
<stop stop-color="#C7E7F5"/>
<stop offset="0.01" stop-color="#BFDFEE"/>
<stop offset="0.1" stop-color="#92B7C6"/>
<stop offset="0.19" stop-color="#6B93A4"/>
<stop offset="0.28" stop-color="#497586"/>
<stop offset="0.38" stop-color="#2E5C6F"/>
<stop offset="0.49" stop-color="#1A495C"/>
<stop offset="0.62" stop-color="#0B3C4F"/>
<stop offset="0.76" stop-color="#023448"/>
<stop offset="0.99" stop-color="#003246"/>
</radialGradient>
<radialGradient id="paint22_radial_72_5295" cx="0" cy="0" r="1" gradientUnits="userSpaceOnUse" gradientTransform="translate(71.5314 688.507) rotate(-66.63) scale(2.15908 2.24292)">
<stop stop-color="white"/>
<stop offset="0.11" stop-color="#D6D6D6"/>
<stop offset="0.29" stop-color="#969696"/>
<stop offset="0.47" stop-color="#606060"/>
<stop offset="0.64" stop-color="#363636"/>
<stop offset="0.78" stop-color="#181818"/>
<stop offset="0.91" stop-color="#060606"/>
<stop offset="1"/>
</radialGradient>
<radialGradient id="paint23_radial_72_5295" cx="0" cy="0" r="1" gradientUnits="userSpaceOnUse" gradientTransform="translate(410.119 685.976) rotate(-66.6299) scale(2.28484 2.37358)">
<stop stop-color="white"/>
<stop offset="0.11" stop-color="#D6D6D6"/>
<stop offset="0.29" stop-color="#969696"/>
<stop offset="0.47" stop-color="#606060"/>
<stop offset="0.64" stop-color="#363636"/>
<stop offset="0.78" stop-color="#181818"/>
<stop offset="0.91" stop-color="#060606"/>
<stop offset="1"/>
</radialGradient>
<radialGradient id="paint24_radial_72_5295" cx="0" cy="0" r="1" gradientUnits="userSpaceOnUse" gradientTransform="translate(351.49 676.01) rotate(-66.63) scale(2.15908 2.24292)">
<stop stop-color="white"/>
<stop offset="0.11" stop-color="#D6D6D6"/>
<stop offset="0.29" stop-color="#969696"/>
<stop offset="0.47" stop-color="#606060"/>
<stop offset="0.64" stop-color="#363636"/>
<stop offset="0.78" stop-color="#181818"/>
<stop offset="0.91" stop-color="#060606"/>
<stop offset="1"/>
</radialGradient>
<radialGradient id="paint25_radial_72_5295" cx="0" cy="0" r="1" gradientUnits="userSpaceOnUse" gradientTransform="translate(391.692 678.608) rotate(-66.63) scale(2.15908 2.24292)">
<stop stop-color="white"/>
<stop offset="0.11" stop-color="#D6D6D6"/>
<stop offset="0.29" stop-color="#969696"/>
<stop offset="0.47" stop-color="#606060"/>
<stop offset="0.64" stop-color="#363636"/>
<stop offset="0.78" stop-color="#181818"/>
<stop offset="0.91" stop-color="#060606"/>
<stop offset="1"/>
</radialGradient>
<radialGradient id="paint26_radial_72_5295" cx="0" cy="0" r="1" gradientUnits="userSpaceOnUse" gradientTransform="translate(130.665 661.401) rotate(-66.63) scale(8.0284 8.34019)">
<stop stop-color="white"/>
<stop offset="0.11" stop-color="#D6D6D6"/>
<stop offset="0.29" stop-color="#969696"/>
<stop offset="0.47" stop-color="#606060"/>
<stop offset="0.64" stop-color="#363636"/>
<stop offset="0.78" stop-color="#181818"/>
<stop offset="0.91" stop-color="#060606"/>
<stop offset="1"/>
</radialGradient>
<radialGradient id="paint27_radial_72_5295" cx="0" cy="0" r="1" gradientUnits="userSpaceOnUse" gradientTransform="translate(498.933 675.327) rotate(-66.63) scale(8.1961 8.51439)">
<stop stop-color="white"/>
<stop offset="0.11" stop-color="#D6D6D6"/>
<stop offset="0.29" stop-color="#969696"/>
<stop offset="0.47" stop-color="#606060"/>
<stop offset="0.64" stop-color="#363636"/>
<stop offset="0.78" stop-color="#181818"/>
<stop offset="0.91" stop-color="#060606"/>
<stop offset="1"/>
</radialGradient>
<radialGradient id="paint28_radial_72_5295" cx="0" cy="0" r="1" gradientUnits="userSpaceOnUse" gradientTransform="translate(128.526 692.812) rotate(-66.63) scale(1.97042 2.04694)">
<stop stop-color="white"/>
<stop offset="0.11" stop-color="#D6D6D6"/>
<stop offset="0.29" stop-color="#969696"/>
<stop offset="0.47" stop-color="#606060"/>
<stop offset="0.64" stop-color="#363636"/>
<stop offset="0.78" stop-color="#181818"/>
<stop offset="0.91" stop-color="#060606"/>
<stop offset="1"/>
</radialGradient>
<radialGradient id="paint29_radial_72_5295" cx="0" cy="0" r="1" gradientUnits="userSpaceOnUse" gradientTransform="translate(181.39 694.213) rotate(-66.63) scale(1.97042 2.04694)">
<stop stop-color="white"/>
<stop offset="0.11" stop-color="#D6D6D6"/>
<stop offset="0.29" stop-color="#969696"/>
<stop offset="0.47" stop-color="#606060"/>
<stop offset="0.64" stop-color="#363636"/>
<stop offset="0.78" stop-color="#181818"/>
<stop offset="0.91" stop-color="#060606"/>
<stop offset="1"/>
</radialGradient>
<radialGradient id="paint30_radial_72_5295" cx="0" cy="0" r="1" gradientUnits="userSpaceOnUse" gradientTransform="translate(131.514 673.049) rotate(-66.6301) scale(2.30581 2.39535)">
<stop stop-color="white"/>
<stop offset="0.11" stop-color="#D6D6D6"/>
<stop offset="0.29" stop-color="#969696"/>
<stop offset="0.47" stop-color="#606060"/>
<stop offset="0.64" stop-color="#363636"/>
<stop offset="0.78" stop-color="#181818"/>
<stop offset="0.91" stop-color="#060606"/>
<stop offset="1"/>
</radialGradient>
<radialGradient id="paint31_radial_72_5295" cx="0" cy="0" r="1" gradientUnits="userSpaceOnUse" gradientTransform="translate(124.307 633.239) rotate(-66.63) scale(2.15907 2.24292)">
<stop stop-color="white"/>
<stop offset="0.11" stop-color="#D6D6D6"/>
<stop offset="0.29" stop-color="#969696"/>
<stop offset="0.47" stop-color="#606060"/>
<stop offset="0.64" stop-color="#363636"/>
<stop offset="0.78" stop-color="#181818"/>
<stop offset="0.91" stop-color="#060606"/>
<stop offset="1"/>
</radialGradient>
<radialGradient id="paint32_radial_72_5295" cx="0" cy="0" r="1" gradientUnits="userSpaceOnUse" gradientTransform="translate(808.582 842.298) rotate(-33.42) scale(2.55878 52.8038)">
<stop offset="0.11" stop-color="white"/>
<stop offset="1" stop-color="white"/>
</radialGradient>
<radialGradient id="paint33_radial_72_5295" cx="0" cy="0" r="1" gradientUnits="userSpaceOnUse" gradientTransform="translate(886.277 748.962) rotate(-33.44) scale(1.63116 58.7218)">
<stop offset="0.11" stop-color="white"/>
<stop offset="1" stop-color="white"/>
</radialGradient>
<radialGradient id="paint34_radial_72_5295" cx="0" cy="0" r="1" gradientUnits="userSpaceOnUse" gradientTransform="translate(1083.21 975.051) rotate(-123.42) scale(2.55877 52.8038)">
<stop offset="0.11" stop-color="white"/>
<stop offset="1" stop-color="white"/>
</radialGradient>
<radialGradient id="paint35_radial_72_5295" cx="0" cy="0" r="1" gradientUnits="userSpaceOnUse" gradientTransform="translate(947.328 803.754) rotate(-123.44) scale(1.63116 58.7218)">
<stop offset="0.11" stop-color="white"/>
<stop offset="1" stop-color="white"/>
</radialGradient>
<radialGradient id="paint36_radial_72_5295" cx="0" cy="0" r="1" gradientUnits="userSpaceOnUse" gradientTransform="translate(36.9579 275.851) scale(4.80292 4.80294)">
<stop stop-color="white"/>
<stop offset="0.06" stop-color="#EAEAEA"/>
<stop offset="0.33" stop-color="#989898"/>
<stop offset="0.57" stop-color="#575757"/>
<stop offset="0.76" stop-color="#272727"/>
<stop offset="0.91" stop-color="#0A0A0A"/>
<stop offset="1"/>
</radialGradient>
<clipPath id="clip0_72_5295">
<rect width="1280" height="720" fill="white" transform="matrix(1 0 0 -1 0 720)"/>
</clipPath>
</defs>
</svg>
